<?xml version="1.0" encoding="UTF-8"?>
<!DOCTYPE svg PUBLIC "-//W3C//DTD SVG 1.1//EN" "http://www.w3.org/Graphics/SVG/1.1/DTD/svg11.dtd">
<!-- Creator: CorelDRAW -->
<svg xmlns="http://www.w3.org/2000/svg" xml:space="preserve" width="3.3866mm" height="2.2858mm" version="1.1" style="shape-rendering:geometricPrecision; text-rendering:geometricPrecision; image-rendering:optimizeQuality; fill-rule:evenodd; clip-rule:evenodd"
viewBox="0 0 338.66 228.58"
 xmlns:xlink="http://www.w3.org/1999/xlink"
 xmlns:xodm="http://www.corel.com/coreldraw/odm/2003">
 <defs>
  <style type="text/css">
   <![CDATA[
    .fil0 {fill:#FEFEFE}
   ]]>
  </style>
 </defs>
 <g id="Camada_x0020_1">
  <metadata id="CorelCorpID_0Corel-Layer"/>
  <g id="_2913123046992">
   <path class="fil0" d="M241.08 162.67l0 -33.65 0 -17.52 0 -17.83c0,-9.52 -7.65,-17.31 -17.01,-17.31l-14.06 0 0 -34.35 -19.89 0 0 34.35 -22.74 0 0 -45.71c0,-14.53 -11.69,-26.42 -25.97,-26.42l-68.12 0c-14.28,0 -25.97,11.89 -25.97,26.42l0 51.16 -18.41 30.62 0.24 42.65c-2.01,1.45 -3.92,2.93 -5.72,4.44 -12.08,9.55 -22.03,19.58 -23.43,39.69 0.38,16.86 12.34,33.3 36.34,33.6l175.31 0 15.78 -16.64 -188.15 1.19c-17.27,-0.22 -22.44,-7.67 -22.71,-19.8 1.2,-11.67 39.55,-60.83 64.74,-55.3l77.47 19.19 82.3 1.22zm-172.56 -142.07l78.62 0c2.34,0 4.26,1.95 4.26,4.34l0 55.91c0,2.39 -1.92,4.34 -4.26,4.34l-78.62 0c-2.35,0 -4.26,-1.95 -4.26,-4.34l0 -55.91c0,-2.39 1.91,-4.34 4.26,-4.34z"/>
   <path class="fil0" d="M132.49 173.59l98.62 0 25.58 0 0 -78.07 28.42 0 25.12 99.97 28.44 21.43 -81.98 -0.26 0 -12.94 -25.58 0 -98.62 0 -2.46 0c-8.14,0 -14.81,-6.77 -14.81,-15.06 0,-8.29 6.67,-15.07 14.81,-15.07l2.46 0z"/>
   <ellipse class="fil0" cx="73.25" cy="183.47" rx="20.65" ry="20.04"/>
  </g>
 </g>
</svg>
