<?xml version="1.0" encoding="UTF-8"?>
<!DOCTYPE svg PUBLIC "-//W3C//DTD SVG 1.1//EN" "http://www.w3.org/Graphics/SVG/1.1/DTD/svg11.dtd">
<!-- Creator: CorelDRAW 2020 (64 Bit) -->
<svg xmlns="http://www.w3.org/2000/svg" xml:space="preserve" width="500px" height="500px" version="1.1" style="shape-rendering:geometricPrecision; text-rendering:geometricPrecision; image-rendering:optimizeQuality; fill-rule:evenodd; clip-rule:evenodd"
viewBox="0 0 500 500"
 xmlns:xlink="http://www.w3.org/1999/xlink"
 xmlns:xodm="http://www.corel.com/coreldraw/odm/2003">
 <defs>
  <style type="text/css">
   <![CDATA[
    .fil0 {fill:white}
   ]]>
  </style>
 </defs>
 <g id="Camada_x0020_1">
  <metadata id="CorelCorpID_0Corel-Layer"/>
  <g id="_2402923214352">
   <path class="fil0" d="M129.34 236.94c-2.84,-9.86 -6.88,-15.17 -2.22,-27.44 9.44,-24.87 38.39,-28.63 51.92,-15.31 3.33,3.27 5.16,5.77 8.71,8.19 1.82,-1.05 0.22,0 1.56,-1.18l38.83 -35.96c2.48,-2.6 3.44,-3.73 5.74,-5.82 -7.01,-16.66 -12.28,-30.05 -9.66,-51.17 1.1,-8.87 3.79,-17.11 7.53,-24.1 11.08,-20.75 29.22,-33.92 54.12,-40.54 10.21,-2.72 38.53,-1.06 30.98,-15.37 -1.43,-2.69 -6.75,-5.07 -10.1,-6.62 -44.17,-20.37 -96.86,-13.85 -136.08,13.08 -3.33,2.29 -5.66,4.54 -8.77,6.99l-56.84 54.45c-2.95,2.67 -4.75,5.32 -7.75,8 -8.47,7.55 -8.67,6.96 -9.54,22.16 -0.62,10.9 -1.52,18.34 -9,22.43 -7.22,3.94 -19.23,2.32 -28,1.71 -13.41,-0.94 -13.95,5.25 -20.77,10.92l-24.92 22.44c-11.44,9.3 -1.01,13.82 6.35,23.56l42.01 45.17c1.4,1.68 2.36,2.88 3.84,4.47l11.67 12.4c1.63,1.88 1.74,1.85 3.81,3.64 1.54,1.33 2.56,2.96 4.2,4.19 5.61,4.2 10.57,-3.4 18.95,-10.09l12.23 -11c1.92,-1.55 2.87,-2.05 4.52,-3.8 3.37,-3.57 14.59,-12.41 16.68,-15.4z"/>
   <path class="fil0" d="M255 183.65c-4.59,2.35 -22.27,20.91 -28.84,26.09l-16.44 15.24 67.7 81.71c1.13,1.39 1.11,1.13 2.38,2.56 1.05,1.2 1.24,1.65 2.23,2.79l12.71 14.67c16.69,20.19 35.15,40.36 51.67,60.44l68.66 80.76c29.18,37.23 84.82,28.27 84.93,-18.43 0.05,-19.74 -8.58,-31.48 -20.91,-43.11l-63.74 -64.11c-5.06,-5.19 -10.9,-11.73 -16.26,-16.11 -2.5,-2.04 -2.27,-2.41 -4.14,-4.16 -24.26,-22.64 -51.04,-51.24 -75.58,-75.53l-12.58 -12.34c-9.31,-10.69 -17.69,-17.23 -27.84,-26.95 -2.83,-2.71 -4.72,-5.43 -7.63,-8.13l-16.32 -15.39z"/>
  </g>
 </g>
</svg>
