<?xml version="1.0" encoding="UTF-8"?>
<!DOCTYPE svg PUBLIC "-//W3C//DTD SVG 1.1//EN" "http://www.w3.org/Graphics/SVG/1.1/DTD/svg11.dtd">
<!-- Creator: CorelDRAW 2020 (64 Bit) -->
<svg xmlns="http://www.w3.org/2000/svg" xml:space="preserve" width="500px" height="500px" version="1.1" style="shape-rendering:geometricPrecision; text-rendering:geometricPrecision; image-rendering:optimizeQuality; fill-rule:evenodd; clip-rule:evenodd"
viewBox="0 0 500 500"
 xmlns:xlink="http://www.w3.org/1999/xlink"
 xmlns:xodm="http://www.corel.com/coreldraw/odm/2003">
 <defs>
  <style type="text/css">
   <![CDATA[
    .fil0 {fill:white}
   ]]>
  </style>
 </defs>
 <g id="Camada_x0020_1">
  <metadata id="CorelCorpID_0Corel-Layer"/>
  <g id="_2402916886560">
   <path class="fil0" d="M109.55 441.11l0 -346.01c0,-8.14 1.62,-14.04 5.54,-18.65 9.89,-11.63 19.76,-8.7 39.68,-8.7l0 53.64c0,18.11 13.06,29.45 31.55,29.45l127.26 0c11.62,0 17.52,-3.02 23.42,-9.18 5.93,-6.17 8.13,-12.83 8.13,-24.48l0 -49.43c14.85,0 44.17,-3.51 44.17,21.04l0 358.63c0,12.07 -11.2,21.03 -24.19,21.03l-230.32 0c-16.23,0 -25.24,-10.93 -25.24,-27.34zm76.77 -371.25l127.26 0 0 49.43 -127.26 0 0 -49.43zm64.15 -34.71c-9.54,0 -11.56,-6.25 -11.56,-12.62 0,-12.4 22.08,-15.23 22.08,2.1 0,5.39 -5.53,10.52 -10.52,10.52zm-51.53 -9.46l0 10.51 -70.46 0c-7.58,0 -14.89,3.24 -20.35,5.95 -4.01,2 -4.59,2.12 -7.82,4.79 -13.42,11.1 -22.31,23.38 -22.31,45l0 352.32c0,22.59 12.16,40.47 31.51,50.52 5.11,2.64 14.29,5.22 22.12,5.22l236.63 0c15.35,0 31.14,-8.9 38.33,-17.42 10.59,-12.53 15.31,-23.13 15.31,-41.47l0 -346.01c0,-20.02 -4.62,-27.9 -14.71,-41.04 -7.2,-9.39 -24.11,-17.86 -37.87,-17.86l-68.36 0c0,-20.55 -2.88,-35.76 -31.55,-35.76 -17.9,0 -49.71,-2.77 -60.75,5.51 -5.76,4.31 -9.72,10.05 -9.72,19.74z"/>
   <path class="fil0" d="M150.56 392.73c-5.93,0 -8.41,3.83 -8.41,9.46 0,3.6 8.16,9.73 10.78,12.36 21.02,21.16 18.43,7.12 30.24,-0.79 0,19.79 5.1,15.78 -41.02,15.78 -2.42,0 -3.16,-0.73 -3.16,-3.16l0 -39.96c0,-2.46 1.75,-4.21 4.21,-4.21l35.76 0c2.55,0 6.59,2.56 0.86,9.24 -2.92,3.4 -4.5,5.84 -7.94,8.98 -9.38,8.54 -13.32,-7.7 -21.32,-7.7zm39.97 -13.67c-13.68,-9.16 -18.92,-6.31 -43.12,-6.31 -23.17,0 -17.88,19.11 -17.88,51.53 0,7.89 5.13,14.72 12.62,14.72l35.76 0c16.28,0 13.76,-16.31 13.65,-27.36 -0.06,-6.11 -0.51,-8.05 2.04,-11.63 1.66,-2.34 4.14,-4.82 6.25,-7.43 4.36,-5.39 10.75,-10.87 9.99,-16.19 -0.81,-5.62 -8.22,-13.9 -19.31,2.67z"/>
   <path class="fil0" d="M167.39 232.87c-9.52,0 -6.27,-9.46 -18.93,-9.46 -2.03,0 -15.61,5.7 4.82,21.47 3.28,2.54 10.35,11.13 14.11,11.13 7.57,0 10.64,-9.18 15.78,-12.62 0,17.39 4.18,13.67 -41.02,13.67 -2.42,0 -3.16,-0.73 -3.16,-3.16l0 -39.96c0,-2.46 1.75,-4.21 4.21,-4.21l35.76 0c3.23,0 4.21,3.08 4.21,6.31 0,1.43 -10.75,16.83 -15.78,16.83zm22.09 -25.24c-2.78,-10.39 -28.28,-7.36 -42.07,-7.36 -23.17,0 -17.88,19.11 -17.88,51.53 0,9.2 5.52,14.72 14.72,14.72l34.71 0c11.1,0 12.7,-9.93 12.63,-18.91 -0.14,-18.58 -0.92,-13.84 8.08,-24.53 2.6,-3.09 4.73,-5.47 7.14,-8.64 2.46,-3.23 4.44,-6.53 2.27,-10.55 -6.18,-11.44 -15.63,2.68 -19.6,3.74z"/>
   <path class="fil0" d="M150.56 307.54c-5.93,0 -8.41,3.83 -8.41,9.47 0,3.62 21.28,23.13 24.19,23.13 12.53,0 6.28,-4.51 16.83,-11.57 0,6.65 -0.64,9.71 -1.06,14.73 -9.67,2.25 -28.12,1.05 -38.91,1.05 -2.46,0 -4.21,-1.74 -4.21,-4.21l0 -39.96c0,-3.23 3.09,-4.21 6.32,-4.21 6.1,0 30.71,-1.11 34.69,1.07 1.28,0.69 0.64,0.34 1.74,1.41l1.43 1.73c-1.07,4.57 -2.85,5.4 -5.7,9.03 -1.63,2.07 -6.02,6.94 -7.98,7.87 -7.29,3.46 -13.03,-9.54 -18.93,-9.54zm39.97 -13.67c-3.72,-2.49 -4.91,-6.31 -10.52,-6.31l-37.86 0c-7.49,0 -12.62,6.84 -12.62,14.72l0 35.76c0,7.19 4.63,14.72 11.57,14.72l38.91 0c19.3,0 6.58,-29.64 14.52,-39.11 8.67,-10.33 20.38,-19.57 12.87,-27.15 -3.73,-3.77 -9.19,-2.35 -12.41,1.32 -1.2,1.37 -3.53,4.66 -4.46,6.05z"/>
   <path class="fil0" d="M230.49 236.03c0,6.26 4.25,8.41 10.52,8.41l122 0c12.18,0 13.63,-16.83 -2.11,-16.83l-118.84 0c-6.26,0 -11.57,2.03 -11.57,8.42z"/>
   <path class="fil0" d="M230.49 312.8c0,4.49 4.19,7.36 6.31,7.36l129.36 0c7.17,0 9.99,-15.77 -2.1,-15.77l-125.15 0c-5.09,0 -8.42,3.32 -8.42,8.41z"/>
   <path class="fil0" d="M230.49 387.47c0,5.64 2.48,9.47 8.42,9.47l125.15 0c12.09,0 9.23,-15.78 2.1,-15.78l-129.36 0c-2.53,0 -6.31,3.78 -6.31,6.31z"/>
  </g>
 </g>
</svg>
