<?xml version="1.0" encoding="UTF-8"?>
<!DOCTYPE svg PUBLIC "-//W3C//DTD SVG 1.1//EN" "http://www.w3.org/Graphics/SVG/1.1/DTD/svg11.dtd">
<!-- Creator: CorelDRAW 2020 (64 Bit) -->
<svg xmlns="http://www.w3.org/2000/svg" xml:space="preserve" width="500px" height="500px" version="1.1" style="shape-rendering:geometricPrecision; text-rendering:geometricPrecision; image-rendering:optimizeQuality; fill-rule:evenodd; clip-rule:evenodd"
viewBox="0 0 500 500"
 xmlns:xlink="http://www.w3.org/1999/xlink"
 xmlns:xodm="http://www.corel.com/coreldraw/odm/2003">
 <defs>
  <style type="text/css">
   <![CDATA[
    .fil0 {fill:white}
   ]]>
  </style>
 </defs>
 <g id="Camada_x0020_1">
  <metadata id="CorelCorpID_0Corel-Layer"/>
  <g id="_2402923872464">
   <path class="fil0" d="M230.98 201.68l37.58 0 0.28 31.33c25.1,6.5 40.96,18.69 44.24,47.52l-31.41 -0.57c-8.72,-14.4 -11.56,-21.66 -33.39,-20.9 -19.98,0.71 -26.82,8.01 -25.68,27.7 22.19,15.43 16.75,9.3 48.52,17.22 68.31,17.02 47.81,77.37 17.71,91.46 -5.04,2.36 -6.93,2.21 -11.31,4.03 -10.19,4.24 -8.68,-4.44 -8.68,33.52l-38.5 0.04 0 -26.75c-2.22,-10 -50.57,-11.35 -45.59,-52.73l30.19 0.19c9.52,12.13 7.02,17.71 26.34,21.05 13.96,2.42 29.62,-0.36 36.16,-8.82 35.26,-45.62 -95.33,-13.68 -90.29,-87.75 2.63,-38.59 36.59,-37.65 43.07,-49.04l0.76 -27.5zm-209.88 207.17c5.15,30.01 20.3,53.39 36.96,67.15 26.38,21.78 37.9,23.85 79.88,23.79 68.44,-0.09 136.89,0 205.33,0 36.66,0 60.84,3.23 88.11,-15.71 18.55,-12.9 34.79,-31.92 43.32,-59.49 24.15,-78.15 -26.68,-171.26 -71.89,-229.27 -16.67,-21.38 -31.48,-35.22 -49.42,-53.32 -6.26,-6.32 -6.42,-7.19 -17.59,-7.51l-77.23 0.21c-128.32,0 -91.24,-10.69 -129.4,24.16 -56.25,51.36 -122.9,163.75 -108.07,249.99z"/>
   <path class="fil0" d="M208.38 18.72c-22.57,0 -67.68,-7.36 -72.79,13.52 -3.2,13.08 13.85,49.01 17.43,63.61l193.31 0.09c3.65,-16.36 22.21,-51 16.82,-65.98 -6.39,-17.8 -50.95,-11.24 -72.14,-11.24 -9.98,-11.68 -21.01,-19.15 -42.72,-18.7 -20.73,0.43 -30.11,7.61 -39.91,18.7z"/>
  </g>
 </g>
</svg>
