<?xml version="1.0" encoding="UTF-8"?>
<!DOCTYPE svg PUBLIC "-//W3C//DTD SVG 1.1//EN" "http://www.w3.org/Graphics/SVG/1.1/DTD/svg11.dtd">
<!-- Creator: CorelDRAW 2020 (64 Bit) -->
<svg xmlns="http://www.w3.org/2000/svg" xml:space="preserve" width="500px" height="500px" version="1.1" style="shape-rendering:geometricPrecision; text-rendering:geometricPrecision; image-rendering:optimizeQuality; fill-rule:evenodd; clip-rule:evenodd"
viewBox="0 0 500 500"
 xmlns:xlink="http://www.w3.org/1999/xlink"
 xmlns:xodm="http://www.corel.com/coreldraw/odm/2003">
 <defs>
  <style type="text/css">
   <![CDATA[
    .fil0 {fill:white}
   ]]>
  </style>
 </defs>
 <g id="Camada_x0020_1">
  <metadata id="CorelCorpID_0Corel-Layer"/>
  <path class="fil0" d="M336.52 307.24c-9.31,16.23 -23.03,31.63 -34.02,44.37 -6.15,7.11 -33.62,33.34 -40.65,36.63l0.09 -38.33 74.58 -42.67zm-99.02 81.02c-18.25,-14.43 -65.9,-59.73 -76.33,-85.1l76.98 45.92 -0.65 39.18zm0.55 -66.99c-20.3,-8.85 -47.56,-28.63 -68.38,-40.98 -31.54,-18.71 -39.52,-21.55 -38.95,-71.07l107.27 65.8 0.06 46.25zm23.61 0.32c1.81,-58.89 -7.52,-41.24 39.53,-68.11 9.88,-5.64 62.32,-36.77 68.24,-37.51 -3.04,47.75 -6.69,48.09 -39,66.67 -18.59,10.69 -50.81,32.3 -68.77,38.95zm0.17 -73.8c-0.61,-56.41 -8.52,-44.23 30.39,-67.92 9.81,-5.97 53.59,-34.21 61.65,-36.11l13.1 44.83 -105.14 59.2zm-113.9 -105.87l90.11 56.63 -0.28 48.79 -105.3 -63.8 15.47 -41.62zm113.88 -14.75c0,-13.74 32.86,-25.95 43.65,-32.89 15.77,-10.15 27.88,12.16 35.19,28.37l-78.87 46.92 0.03 -11.81 0 -30.59zm-24.12 42.11c-13.07,-5.99 -29.69,-18.12 -42.89,-26.29 -10.31,-6.38 -39.02,-16.6 -30.55,-29.46 15.27,-23.18 14.37,-29.24 35.19,-15.96 40.22,25.68 40.13,5.82 38.25,71.71zm24.15 -134.19c3.77,2.59 8.04,5.39 10.83,7.97l26.59 26.33c-4.25,4.48 -12.46,8.36 -18.68,12.2 -5.84,3.59 -12.74,8.73 -18.79,10.47l0.05 -56.97zm-61.2 34.3c9.19,-8.96 25.97,-28.08 37.44,-34.34l0.01 57.22c-6.52,-2.49 -14.3,-7.91 -20.23,-11.42 -3.68,-2.17 -6.76,-4.02 -9.57,-5.71 -4.13,-2.5 -5.39,-3.39 -7.65,-5.75zm-92.67 163.14c9.21,70.29 68.16,138.2 117.59,177.13 28.6,22.53 0.43,61.86 15.07,82.02 27.01,37.21 20.15,-62.12 21.5,-68.44 2.67,-12.46 98.99,-70.33 124.92,-167.23 30.29,-113.18 -74.46,-220.41 -127.73,-254.25 -30.66,-19.47 -165,126.57 -151.35,230.77z"/>
 </g>
</svg>
