<?xml version="1.0" encoding="UTF-8"?>
<!DOCTYPE svg PUBLIC "-//W3C//DTD SVG 1.1//EN" "http://www.w3.org/Graphics/SVG/1.1/DTD/svg11.dtd">
<!-- Creator: CorelDRAW 2020 (64 Bit) -->
<svg xmlns="http://www.w3.org/2000/svg" xml:space="preserve" width="500px" height="500px" version="1.1" style="shape-rendering:geometricPrecision; text-rendering:geometricPrecision; image-rendering:optimizeQuality; fill-rule:evenodd; clip-rule:evenodd"
viewBox="0 0 500 500"
 xmlns:xlink="http://www.w3.org/1999/xlink"
 xmlns:xodm="http://www.corel.com/coreldraw/odm/2003">
 <defs>
  <style type="text/css">
   <![CDATA[
    .fil0 {fill:white}
   ]]>
  </style>
 </defs>
 <g id="Camada_x0020_1">
  <metadata id="CorelCorpID_0Corel-Layer"/>
  <path class="fil0" d="M160.19 254.37c0,-9.36 0.04,-16.13 2.67,-25.21 4.41,-15.25 11.95,-28.97 23.44,-40.14 1.01,-0.99 1.77,-1.42 2.72,-2.34l2.85 -2.5c4.05,-3.44 8.05,-6.06 12.67,-8.76 11.39,-6.63 28.51,-11.8 41.76,-11.8 11.2,0 19.6,0.32 30.15,3.77 1.44,0.47 2.57,0.82 4.07,1.32 11.52,3.8 24.59,12.08 33,20.31 3.11,3.04 7.27,8.03 9.74,11.32 1.57,2.1 2.85,4.15 4.24,6.41 1.41,2.27 2.5,4.59 3.71,6.93 4.53,8.77 8.43,23.3 8.43,33.67 0,10.71 0.05,14.43 -2.71,25.17 -2.62,10.21 -7.4,20.24 -13.55,28.69 -2.11,2.91 -7.14,8.85 -9.86,11.49 -10.9,10.61 -26.09,19.06 -41.08,22.7 -19.91,4.84 -42.59,3.36 -60.77,-5.5 -7.12,-3.47 -13.63,-7.01 -19.64,-12.22l-5.73 -4.98c-1.01,-0.98 -1.45,-1.71 -2.4,-2.64 -0.5,-0.5 -0.88,-0.8 -1.36,-1.31 -0.59,-0.61 -0.66,-0.84 -1.21,-1.46 -9.1,-10.14 -14.53,-21.5 -18.4,-34.51 -1.36,-4.58 -2.74,-12.67 -2.74,-18.41zm15.95 -176.52c-1.08,0.09 -5.85,2.25 -7.02,2.83l-6.82 3.32c-8.79,4.24 -17.36,9.34 -25.17,15.05 -1.08,0.79 -1.87,1.35 -2.92,2.15 -1.56,1.18 -1.52,1.07 -3.45,0.28 -2.5,-1.02 -4.86,-1.9 -7.31,-2.84l-50.63 -19.87c-2.73,-1.07 -5.66,-2.38 -8.99,-2.38 -4.36,0 -7.9,1.98 -10.11,5.1 -0.67,0.94 -1.38,2.19 -1.92,3.11 -2.49,4.23 -4.88,8.44 -7.48,12.62l-11.21 18.96c-1.25,2.12 -2.63,4.35 -3.89,6.47 -2.5,4.23 -4.88,8.43 -7.48,12.63 -5.21,8.42 -9.89,17.03 -15.1,25.43 -2.03,3.28 -6.64,9.9 -6.64,13.74 0,2.41 0.35,5.16 1.62,7.21 0.85,1.36 1.98,2.75 3.19,3.63l15.53 11.83c1.45,1.06 2.46,1.9 3.88,2.97 1.42,1.08 2.49,1.87 3.87,2.96 3.76,2.97 27.64,21.37 30.93,23.51 -0.36,0.71 -1.17,8.52 -1.21,9.96 -0.09,3.59 -0.6,6.84 -0.6,10.83l0.3 14.93c0.07,1.28 0.26,1.22 0.3,2.63 0.05,1.54 0.84,9.5 1.21,10.25 -1.27,0.82 -2.42,1.82 -3.75,2.8 -10.52,7.69 -20.68,15.8 -31.05,23.67l-15.53 11.84c-5.25,4.07 -8.69,6 -8.69,13.8 0,3.09 1.59,5.12 2.8,7.22l24.31 41.06c0.63,1.06 1.23,1.94 1.9,3.14 4.78,8.52 10.02,16.85 14.96,25.26 0.63,1.06 1.23,1.94 1.9,3.13 2.19,3.9 7.08,12.69 9.9,15.26 2.28,2.07 5.79,2.99 9.27,2.99 2.65,0 5.64,-1.53 7.56,-2.3l57.95 -22.71c1.84,-0.74 1.95,-1.09 3.49,0.07 4.88,3.67 9.86,7.04 15.18,10.14 3.4,1.98 22.93,13.02 26.92,13.34 0,3.05 8.75,60.8 9.46,65.45 1.06,6.85 6.1,11.54 14.03,11.54l100.57 0c7.75,0 12.93,-4.63 13.98,-11.29 1.17,-7.37 2.16,-14.48 3.2,-21.77 0.5,-3.56 6.3,-40.43 6.3,-43.93 2.48,-0.2 9.19,-3.88 12.08,-5.23l8.46 -4.37c7.38,-4.35 14.77,-8.77 21.57,-13.88 1.54,-1.16 1.65,-0.81 3.49,-0.07 2.56,1.03 4.76,1.86 7.31,2.85 9.76,3.77 19.22,7.59 28.95,11.37l21.9 8.57c2.67,1.1 5.39,2.22 8.86,2.22 5.96,0 9.31,-3.99 11.83,-8.4l22.58 -38.05c1.29,-2.24 2.44,-4.08 3.73,-6.33 1.26,-2.19 2.45,-4.17 3.77,-6.29l18.71 -31.58c2.21,-3.93 2.91,-4.94 2.91,-9.76 0,-3.23 -2.43,-6.71 -4.82,-8.49l-11.65 -8.87c-1.36,-1.08 -2.48,-1.89 -3.88,-2.96 -1.39,-1.07 -2.48,-1.9 -3.87,-2.97l-27.01 -20.58c-2.58,-2 -5.05,-4.11 -7.79,-5.89 1.39,-2.8 1.81,-23.04 1.81,-27.81 0,-3.91 -0.45,-7.04 -0.6,-10.54 -0.07,-1.54 -0.83,-9.48 -1.21,-10.25 2.74,-1.78 5.21,-3.89 7.79,-5.89 10.32,-8.03 21,-15.67 31.26,-23.77l7.92 -6.06c3.48,-2.58 8.83,-5.79 10.85,-9.64 2.34,-4.44 1.45,-9.18 -0.92,-13.17 -8.19,-13.81 -16.61,-27.45 -24.59,-41.38l-17.08 -28.77c-2.29,-3.77 -9.15,-16.56 -11.91,-18.57 -6.49,-4.75 -11.52,-3 -18.17,-0.1 -7.6,3.32 -17.26,6.79 -25.11,9.85l-33.51 13.09 -10.11 -6.85c-6.95,-4.51 -14.07,-8.72 -21.6,-12.38l-5.92 -2.73c-1.93,-0.95 -4.13,-1.66 -6.03,-2.63 0,-2.06 -0.4,-3.57 -0.62,-5.54 -0.2,-1.69 -0.56,-3.81 -0.79,-5.38l-4.78 -32.83c-1.12,-7.42 -2.09,-14.41 -3.18,-21.78 -0.27,-1.83 -0.83,-3.06 -1.67,-4.53l-2.08 -2.66c-2.65,-2.56 -5.54,-3.98 -10.36,-3.98l-100.57 0c-7.76,0 -12.93,4.63 -13.98,11.29 -1.18,7.37 -2.16,14.48 -3.2,21.77 -0.51,3.56 -6.31,40.43 -6.31,43.93z"/>
 </g>
</svg>
