<?xml version="1.0" encoding="UTF-8"?>
<!DOCTYPE svg PUBLIC "-//W3C//DTD SVG 1.1//EN" "http://www.w3.org/Graphics/SVG/1.1/DTD/svg11.dtd">
<!-- Creator: CorelDRAW 2020 (64 Bit) -->
<svg xmlns="http://www.w3.org/2000/svg" xml:space="preserve" width="500px" height="500px" version="1.1" style="shape-rendering:geometricPrecision; text-rendering:geometricPrecision; image-rendering:optimizeQuality; fill-rule:evenodd; clip-rule:evenodd"
viewBox="0 0 500 500"
 xmlns:xlink="http://www.w3.org/1999/xlink"
 xmlns:xodm="http://www.corel.com/coreldraw/odm/2003">
 <defs>
  <style type="text/css">
   <![CDATA[
    .fil0 {fill:white}
   ]]>
  </style>
 </defs>
 <g id="Camada_x0020_1">
  <metadata id="CorelCorpID_0Corel-Layer"/>
  <path class="fil0" d="M128.1 264.62c-20.41,-160.6 226.01,-188.55 243.54,-28.48 17.62,160.93 -223.16,188.9 -243.54,28.48zm108.05 -162.46l-50.89 13.48c-6.61,-14.26 -18.55,-32.79 -27.3,-47.84 -17.91,-30.77 -16,-41.55 -42.69,-26.85l48.47 88.15 -36.01 36.01c-17.79,-6.47 -76.55,-53.42 -93.25,-39.74 -12.36,21.47 66.81,53.08 81.15,63.23l-14.25 49.1 -96.96 1.91 0.06 4.23c-11.19,10.13 0.29,19.84 15.66,19.84 97.55,0 80.95,-6.61 85.76,18.54 2.41,12.59 7.68,21.76 10.21,32.12 -17.1,7.8 -89.07,39.48 -81.19,62.35 19.38,13.75 72.23,-31.93 94.02,-40.5l36.18 36.62c-5.8,12.83 -57.75,82.63 -39.39,93.4 19.84,11.64 53.22,-67.24 62.28,-81.59l49.69 14.34 4.16 95.07c4.02,5.95 21.37,15.7 21.4,-18.75l0.06 -77.68 51.14 -12.74c7.15,14.96 18.88,33.55 27.55,48.58 15.78,27.37 16.02,41.76 42.77,27.11l-48.68 -89.04 36.19 -36.01c18.31,5.09 78.46,54.87 92.37,40.12 14.22,-19.53 -66.57,-55.47 -80.49,-62.97l14.29 -50.36 83.65 -0.42c21.04,-0.53 29.03,-24.8 -7.13,-24.94l-76.7 -0.05 -14.07 -51.58c15.57,-4.86 91.41,-42.65 79.99,-61.71 -14.77,-12.26 -76.77,31.73 -92.67,40.84l-37.48 -34.88c6.8,-23.32 54.18,-74.23 41.5,-95.24 -23.53,-6.77 -56.39,61.94 -62.26,81.31 -11.48,-2.29 -20.24,-7.54 -32.88,-9.73 -25.35,-4.39 -18.94,10.83 -18.94,-82.28 0,-32.13 -25.52,-31.92 -25.06,3.42 0.31,23 1.59,52.76 -0.26,75.13z"/>
 </g>
</svg>
