<?xml version="1.0" encoding="UTF-8"?>
<!DOCTYPE svg PUBLIC "-//W3C//DTD SVG 1.1//EN" "http://www.w3.org/Graphics/SVG/1.1/DTD/svg11.dtd">
<!-- Creator: CorelDRAW 2020 (64 Bit) -->
<svg xmlns="http://www.w3.org/2000/svg" xml:space="preserve" width="500px" height="500px" version="1.1" style="shape-rendering:geometricPrecision; text-rendering:geometricPrecision; image-rendering:optimizeQuality; fill-rule:evenodd; clip-rule:evenodd"
viewBox="0 0 500 500"
 xmlns:xlink="http://www.w3.org/1999/xlink"
 xmlns:xodm="http://www.corel.com/coreldraw/odm/2003">
 <defs>
  <style type="text/css">
   <![CDATA[
    .fil0 {fill:white}
   ]]>
  </style>
 </defs>
 <g id="Camada_x0020_1">
  <metadata id="CorelCorpID_0Corel-Layer"/>
  <g id="_2402916937248">
   <path class="fil0" d="M368.28 225.61l12.58 0.02c0,9.35 4.28,42.85 -5.39,44.34 -9.33,1.44 -7.21,-11.23 -7.19,-18.4 0.03,-8.65 0,-17.31 0,-25.96zm-21.2 0.06l12.61 -0.05c0,14.81 3.25,43.6 -5.66,44.4 -10.62,0.96 -6.95,-27.37 -6.95,-44.35zm64.17 0.06l11.51 -0.02c1.45,8.4 0.61,17.39 0.65,25.86 0.05,12.87 3.04,18.59 -9.76,18.35 -5.13,-8.33 -4.5,-31.6 -2.4,-44.19zm-84.61 -0.17l11.53 0.27c1.61,12.98 2.5,35.25 -2.34,43.88l-8.87 -0.38c-2.23,-8.63 -2.36,-33.88 -0.32,-43.77zm-21.44 0.1l11.78 -0.03c2.55,12.95 2.42,35.43 -2.47,44.24 -12.6,0.63 -10.17,-4.32 -10.1,-16.63 0.04,-9.04 -1.01,-18.8 0.79,-27.58zm-21.29 0.19l11.48 -0.2c1.5,8.39 0.66,17.43 0.68,25.92 0.05,12.86 2.91,18.64 -10.04,18.33 -4.31,-7.19 -3.93,-32.68 -2.12,-44.05zm177.84 44.01l-7.66 -1.76c-2.46,-8.92 -2.24,-32.72 -0.09,-42.45l11.75 0.08c1.89,11.48 3.9,38.46 -4,44.13zm-19.96 -0.08c-12.41,0.89 -9.87,-4.44 -9.81,-16.54 0.04,-9.08 -0.9,-18.72 0.68,-27.61l11.67 0.08c1.8,11.4 3.54,37.13 -2.54,44.07zm-52.09 -44.09l11.81 -0.05c2.07,9.47 1.91,35.61 -0.48,43.21l-8.85 1.37c-4.67,-7.84 -3.21,-9.76 -3.18,-20.31 0.02,-8 -0.72,-16.41 0.7,-24.22zm75.66 -7.75l-181.21 -0.04c2.22,-16.08 23.39,-11.43 38.55,-11.43l127.54 -0.05c9.41,0.36 13.26,3.15 15.12,11.52zm-17.52 -77.51l-7.73 -0.25c-0.17,-15.86 2.68,-34.42 -4.76,-47.02 -5.27,-8.94 -20.19,-20.12 -33.37,-11.6l0.35 8.34c6.71,7.4 16.97,2.21 20.94,13.73 1.99,5.78 1.11,27.19 1.11,34.61l-6.39 2.86c-0.19,-0.33 -0.77,0.29 -1.23,0.47l-0.63 49.09c-42.26,2.25 -102.13,0.16 -148.06,0.18 -17.46,0 -15.84,2.08 -24.13,-4.88 -10.73,-8.99 -21.21,-17.25 -31.48,-26.65 10.82,-8.85 20.52,-17.49 17.63,-28.18 -10.26,-5.36 -12.65,0.12 -22.25,9.79l-28.13 28.32c-5.35,5.37 -11.18,7.33 -9.12,18.94 11.45,5.27 12.87,1.84 29.61,-16.63 4.66,1.65 32.55,25.04 35.62,30.02l0.29 35.84 14.54 0.24c-3.11,20.7 -9.59,25.14 -20,34.96 -14.12,-30.66 -20.31,-41.82 -41.83,-59.65 -27.66,-22.92 -41.99,-21.45 -70.5,-28.95 -7.56,-40.26 -0.63,-101.2 -45.13,-97.18l0.02 102.11c-20.34,4.87 -49.94,20.98 -58.3,35.97 0.28,9.66 3.24,11.76 13.15,11.17 37.84,-36.69 99.68,-47.11 146.62,-10.43 16.7,13.05 33.52,33.4 40.26,61.1 12.86,52.82 -14.08,68.47 -1.65,83.36 10.5,-0.4 11.56,1.66 15.04,-8.44l134.68 -0.03c0.38,-32.91 16.86,-55.09 37.19,-66.98 19.52,-11.43 42.28,-13.3 64.69,-4.63 7.38,2.86 10.45,5.96 17.52,8.55 -0.05,-23.45 -0.04,-46.9 0.01,-70.34 0.06,-23.46 -9.46,-37.12 -34.12,-37.38l-0.46 -50.43z"/>
   <path class="fil0" d="M95.46 269.19c27.2,-7.64 51.21,13.18 56.13,34.51 6.65,28.74 -12.7,52.47 -34.55,57.43 -58.93,13.38 -83.5,-74.55 -21.58,-91.94zm-75.54 -16.95c4.08,2.83 2.99,1.7 5.73,6 -5.87,12.24 -13.63,22.28 -15.8,39.96l-9.8 0.22 -0.05 33.16 9.71 0.21c1.86,13.93 9.71,30.66 16.37,39.86l-6.39 6.25c3.08,5.64 17.94,20.44 23.36,23.67l6.52 -5.34c13.65,6.18 20.77,13.13 39.79,15.61l0.3 9.83 32.64 0.15 0.58 -9.83c19.12,-2.98 24.96,-9.12 39.45,-15.94l8.45 5.38 21.51 -21.02c-3.13,-5.41 -0.23,-0.41 -3.15,-4.38 -2.59,-3.53 -1.01,-0.76 -2.61,-4.46 6.69,-12.8 13.52,-21.64 15.6,-39.78l9.87 -0.08 0.01 -33.46 -10.09 -0.06c-1.07,-16.69 -9.25,-28.14 -15.71,-40.34l5.66 -6.28c-2.83,-5.16 -18.05,-20.48 -23.41,-23.07l-6.07 5.77c-11.61,-6.9 -23.73,-14.14 -39.97,-16.01l-0.04 -10.1 -32.66 0.5 -0.16 9.49c-19.3,3.2 -25.23,8.76 -39.99,15.9 -4.73,-2.53 -3,-1.35 -7.06,-5.75l-22.59 23.94z"/>
   <path class="fil0" d="M432 337.77c28.02,-8.75 42.22,33.9 13.26,43.9 -27.21,9.39 -44.32,-34.21 -13.26,-43.9zm66.43 35.47c16.47,-82.93 -101.9,-105.13 -120.26,-27.56 -9.13,38.54 18.5,68.26 46.71,74.68 37.6,8.55 67.71,-17.72 73.55,-47.12z"/>
  </g>
 </g>
</svg>
