<?xml version="1.0" encoding="UTF-8"?>
<!DOCTYPE svg PUBLIC "-//W3C//DTD SVG 1.1//EN" "http://www.w3.org/Graphics/SVG/1.1/DTD/svg11.dtd">
<!-- Creator: CorelDRAW 2020 (64 Bit) -->
<svg xmlns="http://www.w3.org/2000/svg" xml:space="preserve" width="500px" height="500px" version="1.1" style="shape-rendering:geometricPrecision; text-rendering:geometricPrecision; image-rendering:optimizeQuality; fill-rule:evenodd; clip-rule:evenodd"
viewBox="0 0 500 500"
 xmlns:xlink="http://www.w3.org/1999/xlink"
 xmlns:xodm="http://www.corel.com/coreldraw/odm/2003">
 <defs>
  <style type="text/css">
   <![CDATA[
    .fil0 {fill:white}
   ]]>
  </style>
 </defs>
 <g id="Camada_x0020_1">
  <metadata id="CorelCorpID_0Corel-Layer"/>
  <path class="fil0" d="M321.83 259.36c-4.12,-11.89 -4.5,-57.89 -3.88,-72.72 5.23,0.27 32.61,29.56 33.01,31.03 -0.06,6.53 -23.92,39.25 -29.13,41.69zm48.7 -55.99c-2.46,1.43 -5.51,5.25 -9.9,2.66l-22.3 -21.84c-15.28,-15.8 -21.1,-17.36 -17.77,-41.04 4.97,0.12 16,6.28 18.33,9.22 3.5,4.42 7.78,12.12 10.78,16.61 4.45,6.68 20.83,27.42 20.86,34.39zm-72.62 -37.2c-7.24,0.76 -17.79,0.09 -25.31,-0.15 -19.14,-0.63 -18.32,1.33 -18.63,-6.89 -2.26,-61.26 29.63,-56.67 38.83,-37.94 6.23,12.68 5.82,29.86 5.11,44.98zm-91.9 55.41c-0.1,-9.45 6.77,-33.27 9.21,-43.68 2.48,-10.57 1.74,-11.75 7.34,-19.07 3.92,-5.14 8.54,-12.87 12.68,-13.38 1.26,18.97 -3.18,60.64 -6.45,79.1 -7.3,0.38 -17.19,0.21 -22.78,-2.97zm91.44 -158.81c0.11,5.69 -3.97,16.39 -6.19,21.11 -12.03,25.49 -33.26,10.6 -36.45,-20.66l42.64 -0.45zm-38.5 -16.81c0.27,-13.23 4.06,-34.26 17.54,-33.78 10.66,0.39 18.35,20.76 16.1,33.1l-33.64 0.68zm-114.41 81.84c-16.24,-1.62 -25.22,-31.34 -23.45,-52.84 0.46,-5.66 4.85,-17.25 0.62,-21.07 -10.01,-10.1 -10.24,18.18 -10.36,20.11 -0.68,10.51 -0.52,21.58 1.77,31.55 7.23,31.62 23.93,30.6 31.35,34.92l-1.43 82.39c-6.22,2.25 -10.96,3.52 -10.65,11.42 0.15,3.7 1.72,6.01 3.73,7.5 2.06,1.52 0.9,0.63 3.19,1.69l3.25 1.56c1.04,32.96 -1.87,89.61 -2.04,126.07l-1.61 93.81c-0.08,7.22 -3.55,25.33 6.38,24.04 8.7,-1.13 6.32,-18.27 6.41,-26 0.34,-30.25 2.23,-207.26 3.72,-218.74 17,-0.52 52.65,-1.94 67.98,1.08 0.75,12.63 -7.71,101.28 -9.21,122.83 -1.36,19.36 -10.21,115.85 -3.16,126.57 3.19,-1.22 1.96,-0.43 4,-3.34 3.43,-4.89 11.05,-25.19 13.07,-30.87 4.47,-12.51 8.56,-24.08 13.03,-36.85 3.99,-11.37 20.99,-66.7 30.37,-69.76 8.31,7.26 21.64,57.8 26.1,73.33l17.65 57.57c1.17,3.37 2.1,5.67 3.67,9.07 1.75,3.79 2.16,5.41 5.47,6.16 7.8,-10.76 2.6,-114.94 1.98,-135.75 -0.67,-22.98 -2.51,-46.46 -2.58,-69.43 -0.03,-8.98 6.27,-11.96 14.1,-21.62 5.29,-6.52 11.14,-11.83 16.89,-18.28 5.73,-6.44 29.61,-32.79 32.77,-38.7 2.77,-5.18 -6.98,-17.99 -9.85,-22.55l-35.58 -53.35c-2.21,-2.38 -45.63,-30.68 -50.7,-36.89 1.65,-3.36 3.92,-4.66 6.41,-8.06 7.31,-9.96 10.48,-17.5 10.27,-30.75 8.4,-3.52 25.1,-2.78 31.25,-7.98 1.91,-6.44 -2.58,-11.73 -10,-11.88 -7.95,-0.16 -15.73,1.05 -23.71,0.09 -2.55,-11 -3.03,-20.29 -7.83,-30.22 -3.89,-8.03 -11.24,-15.96 -23.3,-14.44 -21.23,2.66 -21.48,28.47 -28.27,46.41 -11.46,1.25 -34.34,-9.48 -34.09,5.23 8.22,7.99 21.48,5.95 30.53,11.11 1.1,3.32 0.95,8.52 2,12.58 1,3.86 1.94,6.66 3.43,10.3 1.58,3.86 2.82,6.64 4.86,9.8 2.28,3.54 4.59,4.99 6.03,7.71 -4.38,4.84 -21.34,15.17 -27.64,19.35l-27.18 19.72c-5.88,5.74 -6.61,30.05 -7.52,39.15 -0.5,5.01 -3.1,34.89 -4.9,39.35 -0.61,1.49 -0.47,1.04 -1.25,2.01 -6.3,1.56 -27.33,0.72 -35.34,0.38l0.46 -83.8c4.18,-3.19 12.35,-4.27 19.33,-12.59 19.54,-23.3 13.83,-68.89 8.85,-75.21 -17.33,-0.41 2.49,32.36 -14.61,64.52 -2.22,4.18 -8.43,13.5 -12.97,11.59 -4.46,-8.93 3.47,-65.12 -2.85,-72.26 -11.2,-0.71 -7.68,23.99 -7.94,33.17 -0.34,12.46 0.01,26.71 -0.9,39.09z"/>
 </g>
</svg>
