<?xml version="1.0" encoding="UTF-8"?>
<!DOCTYPE svg PUBLIC "-//W3C//DTD SVG 1.1//EN" "http://www.w3.org/Graphics/SVG/1.1/DTD/svg11.dtd">
<!-- Creator: CorelDRAW -->
<svg xmlns="http://www.w3.org/2000/svg" xml:space="preserve" width="314.463mm" height="157.005mm" version="1.1" style="shape-rendering:geometricPrecision; text-rendering:geometricPrecision; image-rendering:optimizeQuality; fill-rule:evenodd; clip-rule:evenodd"
viewBox="0 0 31446.3 15700.5"
 xmlns:xlink="http://www.w3.org/1999/xlink"
 xmlns:xodm="http://www.corel.com/coreldraw/odm/2003">
 <defs>
  <style type="text/css">
   <![CDATA[
    .str0 {stroke:#373435;stroke-width:7.62;stroke-miterlimit:22.9256}
    .fil0 {fill:#FEFEFE}
    .fil1 {fill:#646464}
    .fil2 {fill:#999999}
    .fil3 {fill:#EFEFEF}
   ]]>
  </style>
 </defs>
 <g id="Camada_x0020_1">
  <metadata id="CorelCorpID_0Corel-Layer"/>
  <g id="_2201996575312">
   <polygon class="fil0 str0" points="27168.71,1785.35 27630.26,1997.32 26661.16,2651.57 26338.99,2365.81 "/>
   <g>
    <path class="fil1" d="M4866.17 13222.98c98.82,-87.82 409.91,-224.37 532.99,-285.88 408.63,-204.24 334.09,-224.32 541.51,-149.32 -103.58,101.92 -665.53,350.71 -819.22,433.71 -140.91,76.1 -126.58,107.9 -255.28,1.49zm2906.46 -1470.22l120.61 74.01c-187.65,89.49 -356.05,176.69 -544.72,271.02 -181.15,90.58 -392.66,268.32 -531.02,129.7l955.13 -474.73zm1002.13 -487.66c144.16,-120.11 356.66,-194.16 528.45,-280.07 208.12,-104.07 356.22,-249.97 569.63,-148.06 -178.74,92.93 -360.34,178.72 -548.76,273.08 -365.67,183.13 -359.74,236.42 -549.32,155.05zm1960.15 -979.77c121.2,-103.71 366.32,-199.5 520.19,-276.42 201.38,-100.66 369.04,-250.94 578.72,-167.04 -140.17,102.09 -352.61,189.58 -534.19,280.37 -347.36,173.68 -373.57,244.98 -564.72,163.09zm1973.53 -1006.9c452.52,-144.81 823.25,-528.95 1094.62,-421.06 -129.89,122.83 -387.88,215.55 -568.33,305.76 -215.4,107.67 -361.66,260.81 -526.29,115.3zm2104.23 -1041.5c54.69,-27.43 88.45,-42.34 141.7,-68.93 102.41,-51.13 181.33,-90.68 282.21,-141.12 421.71,-210.87 361.37,-244.34 526.38,-139.94 -114.07,103.1 -790.68,420.09 -971.63,485.71l-115.41 -47.47 136.75 -88.25zm1851.05 -905.34c78.9,-79.89 678.21,-354.89 806.6,-423.45 136.26,-72.78 125.15,-104.25 249.33,0.12l-533.81 279.31c-424.1,212 -367.07,246.18 -522.12,144.02zm1960.91 -987.78c35.5,-31.62 -20.3,4.05 62.7,-49.75l470.16 -236.13c414.6,-207.22 335.36,-225.27 541.51,-149.57 -83.72,82.76 -165.59,105.62 -278.78,162.1 -93.92,46.85 -171.76,85.81 -258.83,129.34 -418.66,209.27 -392.29,262.52 -536.76,144.01zm2934.85 -1463.77l115.83 47.36 -538.53 284.49c-351.77,175.85 -406.62,266.32 -542.83,134.92l965.53 -466.77zm987.92 -513.3c159.59,-82.91 359.24,-174.8 544.57,-267.41 194.91,-97.39 347.78,-240.25 548.79,-147.08 -157.17,110.8 -365.89,190.89 -551.65,283.77 -197.5,98.76 -391.96,274.13 -541.71,130.72zm1958.46 -966.14c152.06,-100.11 366.97,-191.74 537.83,-277.4 449.54,-225.39 359.4,-244.21 560.51,-150.65 -168.13,101.09 -359.38,185.4 -539.7,275.57 -353.87,176.95 -366.82,241.72 -558.64,152.48zm-23770.69 8772.56l52.86 25.38 107.98 30.86c58.57,-6.23 45.05,-20.22 45.05,36.88l25.5 -2.23c58.61,-5.42 45.05,-19.56 45.05,37.51l25.51 -2.24c58.61,-5.41 45.05,-19.55 45.05,37.52l25.5 -2.24c58.61,-5.41 45.05,-19.55 45.05,37.52l25.51 -2.24c58.61,-5.42 45.05,-19.55 45.05,37.51l25.5 -2.23c58.61,-5.42 45.06,-19.55 45.06,37.51l25.5 -2.24c58.61,-5.41 45.05,-19.55 45.05,37.52l25.51 -2.24c58.6,-5.41 45.05,-19.55 45.05,37.52l25.5 -2.24c58.61,-5.41 45.05,-19.55 45.05,37.51l25.51 -2.23c58.6,-5.42 45.05,-19.55 45.05,37.51l25.5 -2.23c58.61,-5.42 45.05,-19.56 45.05,37.51l25.51 -2.24c58.6,-5.41 45.05,-19.55 45.05,37.52l25.5 -2.24c58.61,-5.41 45.05,-19.55 45.05,37.52l25.51 -2.24c58.61,-5.42 45.05,-19.55 45.05,37.51l25.5 -2.23c58.61,-5.42 45.06,-19.55 45.06,37.51l25.5 -2.24c58.61,-5.41 45.05,-19.55 45.05,37.52l25.51 -2.24c58.6,-5.41 45.05,-19.55 45.05,37.52l25.5 -2.24c58.61,-5.41 45.05,-19.55 45.05,37.51l25.51 -2.23c58.6,-5.42 45.05,-19.55 45.05,37.51l25.5 -2.23c58.61,-5.42 45.05,-19.56 45.05,37.51l25.51 -2.24c58.6,-5.41 45.05,-19.55 45.05,37.52l25.5 -2.24c58.61,-5.41 45.05,-19.55 45.05,37.52l25.51 -2.24c58.61,-5.42 45.05,-19.55 45.05,37.51l25.5 -2.23c58.61,-5.42 45.06,-19.55 45.06,37.51l25.5 -2.24c58.61,-5.41 45.05,-19.55 45.05,37.52l25.51 -2.24c58.6,-5.41 45.05,-19.55 45.05,37.52l25.5 -2.24c58.61,-5.41 45.05,-19.55 45.05,37.51l25.51 -2.23c58.6,-5.42 45.05,-19.55 45.05,37.51l25.5 -2.23c58.61,-5.42 45.05,-19.56 45.05,37.51l25.51 -2.24c58.6,-5.41 45.05,-19.55 45.05,37.52l25.5 -2.24c58.61,-5.41 45.05,-19.55 45.05,37.52l25.51 -2.24c58.61,-5.42 45.05,-19.55 45.05,37.51l25.5 -2.23c58.61,-5.42 45.05,-19.55 45.05,37.51l25.51 -2.24c58.61,-5.41 45.05,-19.55 45.05,37.52l25.51 -2.24c58.6,-5.41 45.05,-19.55 45.05,37.52l25.5 -2.24c58.61,-5.41 45.05,-19.55 45.05,37.51l25.51 -2.23c58.6,-5.42 45.05,-19.55 45.05,37.51l25.5 -2.23c58.61,-5.42 45.05,-19.56 45.05,37.51l25.51 -2.24c58.6,-5.41 45.05,-19.55 45.05,37.52l25.5 -2.24c58.61,-5.41 45.05,-19.55 45.05,37.52l25.51 -2.24c58.61,-5.42 45.05,-19.55 45.05,37.51l25.5 -2.23c58.61,-5.42 45.05,-19.55 45.05,37.51l25.51 -2.24c58.61,-5.41 45.05,-19.55 45.05,37.52l25.51 -2.24c58.6,-5.41 45.05,-19.55 45.05,37.52l25.5 -2.24c58.61,-5.41 45.05,-19.55 45.05,37.52l25.51 -2.24c58.6,-5.42 45.05,-19.55 45.05,37.51l25.5 -2.23c58.61,-5.42 45.05,-19.56 45.05,37.51l25.51 -2.24c58.6,-5.41 45.05,-19.55 45.05,37.52l25.5 -2.24c58.61,-5.41 45.05,-19.55 45.05,37.52l25.51 -2.24c58.61,-5.42 45.05,-19.55 45.05,37.51l25.5 -2.23c58.61,-5.42 45.05,-19.55 45.05,37.51l25.51 -2.24c58.61,-5.41 45.05,-19.55 45.05,37.52l25.51 -2.24c58.6,-5.41 45.05,-19.55 45.05,37.52l25.5 -2.24c58.61,-5.41 45.05,-19.55 45.05,37.52l25.51 -2.24c58.6,-5.42 45.05,-19.55 45.05,37.51l25.5 -2.23c58.61,-5.42 45.05,-19.56 45.05,37.51l25.51 -2.24c58.6,-5.41 45.05,-19.55 45.05,37.52l25.5 -2.24c58.61,-5.41 45.05,-19.55 45.05,37.52l25.51 -2.24c58.61,-5.42 45.05,-19.55 45.05,37.51l25.5 -2.23c58.61,-5.42 45.05,-19.55 45.05,37.51l25.51 -2.24c58.61,-5.41 45.05,-19.55 45.05,37.52l25.51 -2.24c58.6,-5.41 45.05,-19.55 45.05,37.52l25.5 -2.24c58.61,-5.41 45.05,-19.55 45.05,37.52l25.51 -2.24c58.6,-5.42 45.05,-19.55 45.05,37.51l25.5 -2.23c58.61,-5.42 45.05,-19.56 45.05,37.51l25.51 -2.24c58.6,-5.41 45.05,-19.55 45.05,37.52l25.5 -2.24c58.61,-5.41 45.05,-19.55 45.05,37.52l25.51 -2.24c58.6,-5.42 45.05,-19.55 45.05,37.51l25.5 -2.23c58.61,-5.42 45.05,-19.55 45.05,37.51l25.51 -2.24c58.61,-5.41 45.05,-19.55 45.05,37.52l25.5 -2.24c58.61,-5.41 45.06,-19.55 45.06,37.52l25.5 -2.24c58.61,-5.41 45.05,-19.55 45.05,37.52l25.51 -2.24c58.6,-5.42 45.05,-19.55 45.05,37.51l25.5 -2.23c58.61,-5.42 45.05,-19.56 45.05,37.51l25.51 -2.24c58.6,-5.41 45.05,-19.55 45.05,37.52l25.5 -2.24c58.61,-5.41 45.05,-19.55 45.05,37.52l25.51 -2.24c58.6,-5.42 45.05,-19.55 45.05,37.51l25.5 -2.23c58.61,-5.42 45.05,-19.55 45.05,37.51l25.51 -2.24c58.61,-5.41 45.05,-19.55 45.05,37.52l25.5 -2.24c58.61,-5.41 45.06,-19.55 45.06,37.52l25.5 -2.24c58.61,-5.41 45.05,-19.55 45.05,37.52l25.51 -2.24c58.6,-5.42 45.05,-19.55 45.05,37.51l25.5 -2.23c58.61,-5.42 45.05,-19.55 45.05,37.51l25.51 -2.24c58.6,-5.41 45.05,-19.55 45.05,37.52l25.5 -2.24c58.61,-5.41 45.05,-19.55 45.05,37.52l25.51 -2.24c58.6,-5.42 45.05,-19.55 45.05,37.51l24.28 -1.24c50.69,-4.42 36.34,-14.93 36.34,38.65l48.3 4.77 18.94 31.53 33.86 5.07c284.69,-49.37 2464.84,-1210.39 2956.22,-1453.13 6383.76,-3153.54 12796.8,-6390.9 19173.19,-9579.59l1108.01 -550.71c184.3,-91.91 299.92,-109.83 346.11,-244.75 -10.58,-2.39 -23.7,-5.75 -31.5,-8.14l-770.3 -368.68c-347.06,-172.07 -2175.55,-1059.22 -2251.47,-1141.35 -225.8,38.85 -435.32,185.71 -637.19,286.64 -95.13,47.57 -187.68,95.79 -283.5,143.93 -88.57,44.5 -107.33,61.92 -188.63,17.27 -106.81,-58.65 -16.22,-10.96 -62.04,-40.34l981.57 -483.09 -3003.37 -1507.34 -52.22 -32.29 -36.5 -4.26c-200.85,-12.08 -602.42,243.86 -792.55,338.92l-22802.22 11432.8c-3.48,-6.48 -12.97,15.25 -18.44,23.6z"/>
    <path class="fil2" d="M735.17 12173.16c5.47,-8.35 14.96,-30.08 18.44,-23.6l22802.22 -11432.8c190.13,-95.06 591.7,-351 792.55,-338.92 -97.85,-73.55 -716.64,-370.77 -771.42,-371.01 -64.43,-0.28 -653.57,309.23 -756.93,360.91 -514.49,257.25 -1018.12,509.07 -1528.7,764.35l-15216.5 7607.83c-1027.14,513.57 -2036.69,1018.37 -3057.39,1528.71l-3025.38 1520.6 743.11 383.93z"/>
    <path class="fil2" d="M7100 15343.67l768.87 363.64 17492.56 -8739.85c1029.47,-514.74 2028.23,-1014.09 3057.43,-1528.7 517.68,-258.84 1010.88,-505.46 1528.68,-764.36 281.15,-140.57 1339.2,-625.41 1490.85,-762.71 -189.57,-65.74 -623.6,-273.1 -754.86,-396.2 -46.19,134.92 -161.81,152.84 -346.11,244.75l-1108.01 550.71c-6376.39,3188.69 -12789.43,6426.05 -19173.19,9579.59 -491.38,242.74 -2671.53,1403.76 -2956.22,1453.13z"/>
    <path class="fil3" d="M4866.17 13222.98c128.7,106.41 114.37,74.61 255.28,-1.49 153.69,-83 715.64,-331.79 819.22,-433.71 -207.42,-75 -132.88,-54.92 -541.51,149.32 -123.08,61.51 -434.17,198.06 -532.99,285.88z"/>
    <path class="fil3" d="M18624.63 6343.81c144.47,118.51 118.1,65.26 536.76,-144.01 87.07,-43.53 164.91,-82.49 258.83,-129.34 113.19,-56.48 195.06,-79.34 278.78,-162.1 -206.15,-75.7 -126.91,-57.65 -541.51,149.57l-470.16 236.13c-83,53.8 -27.2,18.13 -62.7,49.75z"/>
    <path class="fil3" d="M14675.92 8325.18l115.41 47.47c180.95,-65.62 857.56,-382.61 971.63,-485.71 -165.01,-104.4 -104.67,-70.93 -526.38,139.94 -100.88,50.44 -179.8,89.99 -282.21,141.12 -53.25,26.59 -87.01,41.5 -141.7,68.93l-136.75 88.25z"/>
    <path class="fil3" d="M22547.4 4366.74c149.75,143.41 344.21,-31.96 541.71,-130.72 185.76,-92.88 394.48,-172.97 551.65,-283.77 -201.01,-93.17 -353.88,49.69 -548.79,147.08 -185.33,92.61 -384.98,184.5 -544.57,267.41z"/>
    <path class="fil3" d="M10734.91 10285.33c191.15,81.89 217.36,10.59 564.72,-163.09 181.58,-90.79 394.02,-178.28 534.19,-280.37 -209.68,-83.9 -377.34,66.38 -578.72,167.04 -153.87,76.92 -398.99,172.71 -520.19,276.42z"/>
    <path class="fil3" d="M24505.86 3400.6c191.82,89.24 204.77,24.47 558.64,-152.48 180.32,-90.17 371.57,-174.48 539.7,-275.57 -201.11,-93.56 -110.97,-74.74 -560.51,150.65 -170.86,85.66 -385.77,177.29 -537.83,277.4z"/>
    <path class="fil3" d="M8774.76 11265.1c189.58,81.37 183.65,28.08 549.32,-155.05 188.42,-94.36 370.02,-180.15 548.76,-273.08 -213.41,-101.91 -361.51,43.99 -569.63,148.06 -171.79,85.91 -384.29,159.96 -528.45,280.07z"/>
    <path class="fil3" d="M12708.44 9278.43c164.63,145.51 310.89,-7.63 526.29,-115.3 180.45,-90.21 438.44,-182.93 568.33,-305.76 -271.37,-107.89 -642.1,276.25 -1094.62,421.06z"/>
    <path class="fil3" d="M16663.72 7331.59c155.05,102.16 98.02,67.98 522.12,-144.02l533.81 -279.31c-124.18,-104.37 -113.07,-72.9 -249.33,-0.12 -128.39,68.56 -727.7,343.56 -806.6,423.45z"/>
    <path class="fil3" d="M6817.5 12227.49c138.36,138.62 349.87,-39.12 531.02,-129.7 188.67,-94.33 357.07,-181.53 544.72,-271.02l-120.61 -74.01 -955.13 474.73z"/>
    <path class="fil3" d="M20593.95 5346.81c136.21,131.4 191.06,40.93 542.83,-134.92l538.53 -284.49 -115.83 -47.36 -965.53 466.77z"/>
    <path class="fil2" d="M6514.95 15053.23c0,-57.07 13.55,-42.93 -45.06,-37.52 0,51.21 -11.4,35.11 45.06,37.52z"/>
    <path class="fil2" d="M5879.95 14735.73c0,-57.07 13.55,-42.93 -45.06,-37.52 0,51.21 -11.4,35.11 45.06,37.52z"/>
    <path class="fil2" d="M1928.84 12760.17c0,-57.06 13.55,-42.93 -45.06,-37.51 0,51.21 -11.4,35.1 45.06,37.51z"/>
    <path class="fil2" d="M1293.84 12442.67c0,-57.06 13.55,-42.93 -45.06,-37.51 0,51.21 -11.4,35.1 45.06,37.51z"/>
    <path class="fil2" d="M2563.84 13077.67c0,-57.06 13.55,-42.93 -45.06,-37.51 0,51.21 -11.4,35.1 45.06,37.51z"/>
    <path class="fil2" d="M5174.39 14382.95c0,-57.07 13.56,-42.93 -45.05,-37.52 0,51.22 -11.41,35.11 45.05,37.52z"/>
    <path class="fil2" d="M4539.39 14065.45c0,-57.07 13.56,-42.93 -45.05,-37.52 0,51.22 -11.41,35.11 45.05,37.52z"/>
    <path class="fil2" d="M6444.39 15017.95c0,-57.07 13.56,-42.93 -45.05,-37.52 0,51.22 -11.41,35.11 45.05,37.52z"/>
    <path class="fil2" d="M5809.39 14700.45c0,-57.07 13.56,-42.93 -45.05,-37.52 0,51.22 -11.41,35.11 45.05,37.52z"/>
    <path class="fil2" d="M3904.39 13747.95c0,-57.07 13.56,-42.93 -45.05,-37.52 0,51.22 -11.4,35.11 45.05,37.52z"/>
    <path class="fil2" d="M1364.39 12477.95c0,-57.07 13.56,-42.93 -45.05,-37.52 0,51.22 -11.4,35.11 45.05,37.52z"/>
    <path class="fil2" d="M2634.39 13112.95c0,-57.07 13.56,-42.93 -45.05,-37.52 0,51.22 -11.4,35.11 45.05,37.52z"/>
    <path class="fil2" d="M1999.39 12795.45c0,-57.07 13.56,-42.93 -45.05,-37.52 0,51.22 -11.4,35.11 45.05,37.52z"/>
    <path class="fil2" d="M3269.39 13430.45c0,-57.07 13.56,-42.93 -45.05,-37.52 0,51.22 -11.4,35.11 45.05,37.52z"/>
    <path class="fil2" d="M1082.17 12336.84c0,-57.07 13.56,-42.93 -45.05,-37.52 0,51.21 -11.41,35.11 45.05,37.52z"/>
    <path class="fil2" d="M3622.17 13606.84c0,-57.07 13.55,-42.93 -45.05,-37.52 0,51.21 -11.41,35.11 45.05,37.52z"/>
    <path class="fil2" d="M2352.17 12971.84c0,-57.07 13.55,-42.93 -45.05,-37.52 0,51.21 -11.41,35.11 45.05,37.52z"/>
    <path class="fil2" d="M5244.95 14418.23c0,-57.07 13.55,-42.93 -45.05,-37.52 0,51.21 -11.41,35.11 45.05,37.52z"/>
    <path class="fil2" d="M4257.17 13924.34c0,-57.07 13.55,-42.93 -45.05,-37.52 0,51.21 -11.41,35.11 45.05,37.52z"/>
    <path class="fil2" d="M6797.17 15194.34c0,-57.07 13.55,-42.93 -45.05,-37.52 0,51.21 -11.41,35.11 45.05,37.52z"/>
    <path class="fil2" d="M4609.95 14100.73c0,-57.07 13.55,-42.93 -45.05,-37.52 0,51.21 -11.41,35.11 45.05,37.52z"/>
    <path class="fil2" d="M3974.95 13783.23c0,-57.07 13.55,-42.93 -45.05,-37.52 0,51.21 -11.41,35.11 45.05,37.52z"/>
    <path class="fil2" d="M1717.17 12654.34c0,-57.07 13.55,-42.93 -45.05,-37.52 0,51.21 -11.41,35.11 45.05,37.52z"/>
    <path class="fil2" d="M2704.95 13148.23c0,-57.07 13.55,-42.93 -45.05,-37.52 0,51.21 -11.41,35.11 45.05,37.52z"/>
    <path class="fil2" d="M6162.17 14876.84c0,-57.07 13.55,-42.93 -45.05,-37.52 0,51.21 -11.41,35.11 45.05,37.52z"/>
    <path class="fil2" d="M2069.95 12830.73c0,-57.07 13.55,-42.93 -45.05,-37.52 0,51.21 -11.41,35.11 45.05,37.52z"/>
    <path class="fil2" d="M3339.95 13465.73c0,-57.07 13.55,-42.93 -45.05,-37.52 0,51.21 -11.41,35.11 45.05,37.52z"/>
    <path class="fil2" d="M5527.17 14559.34c0,-57.07 13.55,-42.93 -45.05,-37.52 0,51.21 -11.41,35.11 45.05,37.52z"/>
    <path class="fil2" d="M2987.17 13289.34c0,-57.07 13.55,-42.93 -45.05,-37.52 0,51.21 -11.41,35.11 45.05,37.52z"/>
    <path class="fil2" d="M4892.17 14241.84c0,-57.07 13.55,-42.93 -45.05,-37.52 0,51.21 -11.41,35.11 45.05,37.52z"/>
    <path class="fil2" d="M1434.95 12513.23c0,-57.07 13.55,-42.93 -45.05,-37.52 0,51.21 -11.41,35.1 45.05,37.52z"/>
    <path class="fil2" d="M6867.72 15229.62c0,-57.07 13.56,-42.93 -45.05,-37.52 0,51.21 -11.4,35.1 45.05,37.52z"/>
    <path class="fil2" d="M5950.5 14771.01c0,-57.07 13.56,-42.93 -45.05,-37.52 0,51.21 -11.4,35.1 45.05,37.52z"/>
    <path class="fil2" d="M1152.72 12372.12c0,-57.07 13.56,-42.93 -45.05,-37.52 0,51.21 -11.4,35.1 45.05,37.52z"/>
    <path class="fil2" d="M4045.5 13818.51c0,-57.07 13.56,-42.93 -45.05,-37.52 0,51.21 -11.4,35.1 45.05,37.52z"/>
    <path class="fil2" d="M3057.72 13324.62c0,-57.07 13.56,-42.93 -45.05,-37.52 0,51.21 -11.4,35.1 45.05,37.52z"/>
    <path class="fil2" d="M4327.72 13959.62c0,-57.07 13.56,-42.93 -45.05,-37.52 0,51.21 -11.4,35.1 45.05,37.52z"/>
    <path class="fil2" d="M2422.72 13007.12c0,-57.07 13.56,-42.93 -45.05,-37.52 0,51.21 -11.4,35.1 45.05,37.52z"/>
    <path class="fil2" d="M3692.72 13642.12c0,-57.07 13.56,-42.93 -45.05,-37.52 0,51.21 -11.4,35.1 45.05,37.52z"/>
    <path class="fil2" d="M4962.72 14277.12c0,-57.07 13.56,-42.93 -45.05,-37.52 0,51.21 -11.4,35.1 45.05,37.52z"/>
    <path class="fil2" d="M4680.5 14136.01c0,-57.07 13.56,-42.93 -45.05,-37.52 0,51.21 -11.4,35.1 45.05,37.52z"/>
    <path class="fil2" d="M5315.5 14453.51c0,-57.07 13.56,-42.93 -45.05,-37.52 0,51.21 -11.4,35.1 45.05,37.52z"/>
    <path class="fil2" d="M5597.72 14594.62c0,-57.07 13.56,-42.93 -45.05,-37.52 0,51.21 -11.4,35.1 45.05,37.52z"/>
    <path class="fil2" d="M1787.72 12689.62c0,-57.07 13.56,-42.93 -45.05,-37.52 0,51.21 -11.4,35.1 45.05,37.52z"/>
    <path class="fil2" d="M6232.72 14912.12c0,-57.07 13.56,-42.93 -45.05,-37.52 0,51.21 -11.4,35.1 45.05,37.52z"/>
    <path class="fil2" d="M6585.5 15088.51c0,-57.07 13.56,-42.93 -45.05,-37.52 0,51.21 -11.4,35.1 45.05,37.52z"/>
    <path class="fil2" d="M3551.61 13571.56c0,-57.07 13.56,-42.93 -45.05,-37.51 0,51.21 -11.4,35.1 45.05,37.51z"/>
    <path class="fil2" d="M1011.61 12301.56c0,-57.07 13.56,-42.93 -45.05,-37.51 0,51.21 -11.4,35.1 45.05,37.51z"/>
    <path class="fil2" d="M2916.61 13254.06c0,-57.07 13.56,-42.93 -45.05,-37.51 0,51.21 -11.4,35.1 45.05,37.51z"/>
    <path class="fil2" d="M4186.61 13889.06c0,-57.07 13.56,-42.93 -45.05,-37.51 0,51.21 -11.4,35.1 45.05,37.51z"/>
    <path class="fil2" d="M6091.61 14841.56c0,-57.07 13.56,-42.93 -45.05,-37.51 0,51.21 -11.4,35.1 45.05,37.51z"/>
    <path class="fil2" d="M1646.61 12619.06c0,-57.07 13.56,-42.93 -45.05,-37.51 0,51.21 -11.4,35.1 45.05,37.51z"/>
    <path class="fil2" d="M4821.61 14206.56c0,-57.07 13.56,-42.93 -45.05,-37.51 0,51.21 -11.4,35.1 45.05,37.51z"/>
    <path class="fil2" d="M2281.61 12936.56c0,-57.07 13.56,-42.93 -45.05,-37.51 0,51.21 -11.4,35.1 45.05,37.51z"/>
    <path class="fil2" d="M5456.61 14524.06c0,-57.07 13.56,-42.93 -45.05,-37.51 0,51.21 -11.4,35.1 45.05,37.51z"/>
    <path class="fil2" d="M2493.28 13042.39c0,-57.06 13.56,-42.93 -45.05,-37.51 0,51.21 -11.41,35.1 45.05,37.51z"/>
    <path class="fil2" d="M5033.28 14312.39c0,-57.06 13.56,-42.93 -45.05,-37.51 0,51.21 -11.41,35.1 45.05,37.51z"/>
    <path class="fil2" d="M3128.28 13359.89c0,-57.06 13.56,-42.93 -45.05,-37.51 0,51.21 -11.41,35.1 45.05,37.51z"/>
    <path class="fil2" d="M3763.28 13677.39c0,-57.06 13.56,-42.93 -45.05,-37.51 0,51.21 -11.41,35.1 45.05,37.51z"/>
    <path class="fil2" d="M4398.28 13994.89c0,-57.06 13.56,-42.93 -45.05,-37.51 0,51.21 -11.41,35.1 45.05,37.51z"/>
    <path class="fil2" d="M1858.28 12724.89c0,-57.06 13.56,-42.93 -45.05,-37.51 0,51.21 -11.41,35.1 45.05,37.51z"/>
    <path class="fil2" d="M1223.28 12407.39c0,-57.06 13.56,-42.93 -45.05,-37.51 0,51.21 -11.41,35.1 45.05,37.51z"/>
    <path class="fil2" d="M1576.06 12583.78c0,-57.06 13.55,-42.93 -45.05,-37.51 0,51.21 -11.41,35.1 45.05,37.51z"/>
    <path class="fil2" d="M2211.06 12901.28c0,-57.06 13.55,-42.93 -45.05,-37.51 0,51.21 -11.41,35.1 45.05,37.51z"/>
    <path class="fil2" d="M2846.06 13218.78c0,-57.06 13.55,-42.93 -45.05,-37.51 0,51.21 -11.41,35.1 45.05,37.51z"/>
    <path class="fil2" d="M3481.06 13536.28c0,-57.06 13.55,-42.93 -45.05,-37.51 0,51.21 -11.41,35.1 45.05,37.51z"/>
    <path class="fil2" d="M5668.28 14629.89c0,-57.06 13.55,-42.93 -45.05,-37.51 0,51.21 -11.41,35.1 45.05,37.51z"/>
    <path class="fil2" d="M5386.06 14488.78c0,-57.06 13.55,-42.93 -45.05,-37.51 0,51.21 -11.41,35.1 45.05,37.51z"/>
    <path class="fil2" d="M6656.06 15123.78c0,-57.06 13.55,-42.93 -45.05,-37.51 0,51.21 -11.41,35.1 45.05,37.51z"/>
    <path class="fil2" d="M4116.06 13853.78c0,-57.06 13.55,-42.93 -45.05,-37.51 0,51.21 -11.41,35.1 45.05,37.51z"/>
    <path class="fil2" d="M4751.06 14171.28c0,-57.06 13.55,-42.93 -45.05,-37.51 0,51.21 -11.41,35.1 45.05,37.51z"/>
    <path class="fil2" d="M6938.28 15264.89c0,-57.06 13.55,-42.93 -45.05,-37.51 0,51.21 -11.41,35.1 45.05,37.51z"/>
    <path class="fil2" d="M6021.06 14806.28c0,-57.06 13.55,-42.93 -45.05,-37.51 0,51.21 -11.41,35.1 45.05,37.51z"/>
    <path class="fil2" d="M6303.28 14947.39c0,-57.06 13.55,-42.93 -45.05,-37.51 0,51.21 -11.41,35.1 45.05,37.51z"/>
    <path class="fil2" d="M6373.83 14982.67c0,-57.06 13.56,-42.93 -45.05,-37.51 0,51.21 -11.4,35.1 45.05,37.51z"/>
    <path class="fil2" d="M3198.83 13395.17c0,-57.06 13.56,-42.93 -45.05,-37.51 0,51.21 -11.4,35.1 45.05,37.51z"/>
    <path class="fil2" d="M5738.83 14665.17c0,-57.06 13.56,-42.93 -45.05,-37.51 0,51.21 -11.4,35.1 45.05,37.51z"/>
    <path class="fil2" d="M6726.61 15159.06c0,-57.06 13.56,-42.93 -45.05,-37.51 0,51.21 -11.4,35.1 45.05,37.51z"/>
    <path class="fil2" d="M3833.83 13712.67c0,-57.06 13.56,-42.93 -45.05,-37.51 0,51.21 -11.4,35.1 45.05,37.51z"/>
    <path class="fil2" d="M5103.83 14347.67c0,-57.06 13.56,-42.93 -45.05,-37.51 0,51.21 -11.4,35.1 45.05,37.51z"/>
    <path class="fil2" d="M4468.83 14030.17c0,-57.06 13.56,-42.93 -45.05,-37.51 0,51.21 -11.4,35.1 45.05,37.51z"/>
    <path class="fil2" d="M1505.5 12548.5c0,-57.06 13.56,-42.92 -45.05,-37.51 0,51.21 -11.4,35.1 45.05,37.51z"/>
    <path class="fil2" d="M3410.5 13501c0,-57.06 13.56,-42.92 -45.05,-37.51 0,51.21 -11.4,35.1 45.05,37.51z"/>
    <path class="fil2" d="M2775.5 13183.5c0,-57.06 13.56,-42.92 -45.05,-37.51 0,51.21 -11.4,35.1 45.05,37.51z"/>
    <path class="fil2" d="M2140.5 12866c0,-57.06 13.56,-42.92 -45.05,-37.51 0,51.21 -11.4,35.1 45.05,37.51z"/>
    <path class="fil2" d="M941.06 12266.28c0,-57.1 13.52,-43.11 -45.05,-36.88l45.05 36.88z"/>
    <path class="fil2" d="M6998.9 15302.3c0,-53.58 14.35,-43.07 -36.34,-38.65l36.34 38.65z"/>
    <path class="fil2" d="M7066.14 15338.6l-18.94 -31.53c-21.83,40.24 -27.13,29.15 18.94,31.53z"/>
    <polygon class="fil2" points="788.03,12198.54 735.17,12173.16 "/>
    <polygon class="fil2" points="24437.1,414.39 24384.88,382.1 "/>
   </g>
  </g>
 </g>
</svg>
