<?xml version="1.0" encoding="UTF-8"?>
<!DOCTYPE svg PUBLIC "-//W3C//DTD SVG 1.1//EN" "http://www.w3.org/Graphics/SVG/1.1/DTD/svg11.dtd">
<!-- Creator: CorelDRAW -->
<svg xmlns="http://www.w3.org/2000/svg" xml:space="preserve" width="2.2012mm" height="1.1006mm" version="1.1" style="shape-rendering:geometricPrecision; text-rendering:geometricPrecision; image-rendering:optimizeQuality; fill-rule:evenodd; clip-rule:evenodd"
viewBox="0 0 220.12 110.06"
 xmlns:xlink="http://www.w3.org/1999/xlink"
 xmlns:xodm="http://www.corel.com/coreldraw/odm/2003">
 <defs>
  <style type="text/css">
   <![CDATA[
    .fil3 {fill:#7C4B0D}
    .fil0 {fill:#8E560F}
    .fil1 {fill:#99CB32}
    .fil2 {fill:#A66411}
   ]]>
  </style>
 </defs>
 <g id="Camada_x0020_1">
  <metadata id="CorelCorpID_0Corel-Layer"/>
  <g id="_2517525568464">
   <g>
    <path class="fil0" d="M85.36 53.19c5,4.05 6.33,1.71 11.7,-1.28 4.21,-2.33 8.23,-3.79 11.5,-6.38 -11.47,-10.25 -12.74,-6.15 -24.76,-0.89 1.77,3.76 -0.3,1.51 4.48,3.31 -0.29,0.36 -0.86,1.29 -0.98,0.98l-2.19 3.16c-0.02,0.09 0.08,0.5 0.07,0.57 -0.01,0.07 0.29,0.38 0.18,0.53zm46.24 2.58c8.89,4.88 10.17,2.14 19.37,-2.94 -5.01,-5.24 -15.33,-8.83 -22.06,-12.18 -8.19,-4.08 -17.21,-11.63 -24.27,-5.79l32.44 17.21 -5.48 3.7zm-62.44 -2.33c4.93,-5.44 4.24,-3.09 3.92,-5.23 -5.27,-3.79 -5.67,-2.29 -11.87,0.81 -5.16,2.57 -9.18,3.77 -12.64,7.4 12.67,6.33 19.74,14.81 32.2,2.82 -3.7,-3.23 -6.45,-4.47 -11.61,-5.8zm60.92 10.3l-10.22 -8.44c2.48,-4.05 8.38,-0.12 0.44,-4.65 -5.73,-3.26 -25.16,9.07 -30.35,12.28 2.65,2.02 16.98,9.24 19.39,9.48 5.51,0.56 15.15,-6.09 20.74,-8.67zm28.78 -7.02c-2.84,0.04 -7.52,3 -10.33,4.31l-8.13 4.55 10.34 7.9 -5.3 3.8c8.8,6.44 15.16,-2.05 33.06,-10.07 -3.26,-3.84 -14.24,-10.57 -19.64,-10.49zm-82.02 13.19c4.71,4.42 13.69,8.9 20.49,10.33l5.04 -3.27c-3.59,-2.92 -7.76,-4.34 -12.1,-6.56 -6.75,-3.45 -7.72,-5.53 -13.43,-0.5zm27.22 13.21c11.7,14.09 21.8,2.56 32.15,-1.33 -1.47,-4.36 -1.32,-2.47 -4.56,-5.64l5.27 -2.57c-9.71,-7.07 -12.01,0.55 -32.86,9.54zm-79.69 -35.54c1.21,-2.52 -2.32,-1.33 3.36,-2.42 4.65,4.22 10.23,7.71 16.51,5.39 5.73,-2.11 13.12,-6.36 16.47,-9.56l-11.82 -6.35 5.69 -3.11c6.87,3.62 16.28,11.2 24.43,8.41 3.48,-1.19 21.04,-10.25 23.39,-12.15l-19.46 -11.11 4.33 -1.36c2.69,4.75 44.92,24.12 53.66,28.55 13.13,6.65 43.37,24.06 55.66,27.53l-2.92 2.03c-9.9,-4.68 -7.44,-3.43 -17.53,1.77 -5.4,2.78 -10.64,5.2 -15.93,8.43l4.13 3.79c0.13,0.52 0.6,0.51 0.88,0.79l-7.74 3.17c-10.05,-11.07 -22.33,-5.9 -32.36,3.46l12.06 6.98 -3.88 1.71c-3.87,-4.8 -49.53,-26.26 -54.81,-28.92 -17.76,-8.97 -35.96,-18.87 -54.12,-27.03z"/>
    <path class="fil1" d="M19.9 48.56c6.37,5.8 43.79,22.95 54.8,28.5 14.71,7.43 43.65,20.1 54.84,28.09 -19.37,14.17 -23.14,8.72 -31.39,4.57 -17.88,-8.98 -91.67,-44.6 -98.15,-50.48l19.9 -10.68z"/>
    <path class="fil1" d="M91.04 13.6c17.99,-14.94 22.83,-8.55 31.03,-4.28l98.05 49.92 -20.62 10.62c-7.51,-6.29 -43.3,-22.31 -55.03,-28.24 -10.39,-5.27 -47.89,-22.69 -53.43,-28.02z"/>
    <path class="fil2" d="M54.58 31.53l28.36 -14.85 19.46 11.11c-2.35,1.9 -19.91,10.96 -23.39,12.15 -8.15,2.79 -17.56,-4.79 -24.43,-8.41z"/>
    <path class="fil2" d="M130.08 63.74c-5.59,2.58 -15.23,9.23 -20.74,8.67 -2.41,-0.24 -16.74,-7.46 -19.39,-9.48 5.19,-3.21 24.62,-15.54 30.35,-12.28 7.94,4.53 2.04,0.6 -0.44,4.65l10.22 8.44z"/>
    <path class="fil3" d="M87.27 15.32l3.77 -1.72c5.54,5.33 43.04,22.75 53.43,28.02 11.73,5.93 47.52,21.95 55.03,28.24l-2.91 1.54c-12.29,-3.47 -42.53,-20.88 -55.66,-27.53 -8.74,-4.43 -50.97,-23.8 -53.66,-28.55z"/>
    <path class="fil3" d="M19.9 48.56l4.47 -0.98c18.16,8.16 36.36,18.06 54.12,27.03 5.28,2.66 50.94,24.12 54.81,28.92l-3.76 1.62c-11.19,-7.99 -40.13,-20.66 -54.84,-28.09 -11.01,-5.55 -48.43,-22.7 -54.8,-28.5z"/>
    <path class="fil2" d="M145.44 77.28l5.3 -3.8 -10.34 -7.9 8.13 -4.55c2.81,-1.31 7.49,-4.27 10.33,-4.31 5.4,-0.08 16.38,6.65 19.64,10.49 -17.9,8.02 -24.26,16.51 -33.06,10.07z"/>
    <path class="fil2" d="M104.06 83.12c20.85,-8.99 23.15,-16.61 32.86,-9.54l-5.27 2.57c3.24,3.17 3.09,1.28 4.56,5.64 -10.35,3.89 -20.45,15.42 -32.15,1.33z"/>
    <path class="fil2" d="M69.16 53.44c5.16,1.33 7.91,2.57 11.61,5.8 -12.46,11.99 -19.53,3.51 -32.2,-2.82 3.46,-3.63 7.48,-4.83 12.64,-7.4 6.2,-3.1 6.6,-4.6 11.87,-0.81 0.32,2.14 1.01,-0.21 -3.92,5.23z"/>
    <path class="fil2" d="M128.91 40.65c6.73,3.35 17.05,6.94 22.06,12.18 -9.2,5.08 -10.48,7.82 -19.37,2.94l5.48 -3.7 -32.44 -17.21c7.06,-5.84 16.08,1.71 24.27,5.79z"/>
    <path class="fil2" d="M157.48 91.38l-20.3 10.44 -12.06 -6.98c10.03,-9.36 22.31,-14.53 32.36,-3.46z"/>
    <path class="fil2" d="M27.73 45.16l21.16 -10.52 11.82 6.35c-3.35,3.2 -10.74,7.45 -16.47,9.56 -6.28,2.32 -11.86,-1.17 -16.51,-5.39z"/>
    <path class="fil2" d="M97.06 51.91c-5.37,2.99 -6.7,5.33 -11.7,1.28 0.11,-0.15 -0.19,-0.46 -0.18,-0.53 0.01,-0.07 -0.09,-0.48 -0.07,-0.57l2.19 -3.16c0.12,0.31 0.69,-0.62 0.98,-0.98 -4.78,-1.8 -2.71,0.45 -4.48,-3.31 12.02,-5.26 13.29,-9.36 24.76,0.89 -3.27,2.59 -7.29,4.05 -11.5,6.38z"/>
    <path class="fil2" d="M193.67 73.43l-28.45 14.78c-0.28,-0.28 -0.75,-0.27 -0.88,-0.79l-4.13 -3.79c5.29,-3.23 10.53,-5.65 15.93,-8.43 10.09,-5.2 7.63,-6.45 17.53,-1.77z"/>
    <path class="fil2" d="M76.84 69.91c5.71,-5.03 6.68,-2.95 13.43,0.5 4.34,2.22 8.51,3.64 12.1,6.56l-5.04 3.27c-6.8,-1.43 -15.78,-5.91 -20.49,-10.33z"/>
   </g>
   <g>
    <path class="fil0" d="M85.36 53.19c5,4.05 6.33,1.71 11.7,-1.28 4.21,-2.33 8.23,-3.79 11.5,-6.38 -11.47,-10.25 -12.74,-6.15 -24.76,-0.89 1.77,3.76 -0.3,1.51 4.48,3.31 -0.29,0.36 -0.86,1.29 -0.98,0.98l-2.19 3.16c-0.02,0.09 0.08,0.5 0.07,0.57 -0.01,0.07 0.29,0.38 0.18,0.53zm46.24 2.58c8.89,4.88 10.17,2.14 19.37,-2.94 -5.01,-5.24 -15.33,-8.83 -22.06,-12.18 -8.19,-4.08 -17.21,-11.63 -24.27,-5.79l32.44 17.21 -5.48 3.7zm-62.44 -2.33c4.93,-5.44 4.24,-3.09 3.92,-5.23 -5.27,-3.79 -5.67,-2.29 -11.87,0.81 -5.16,2.57 -9.18,3.77 -12.64,7.4 12.67,6.33 19.74,14.81 32.2,2.82 -3.7,-3.23 -6.45,-4.47 -11.61,-5.8zm60.92 10.3l-10.22 -8.44c2.48,-4.05 8.38,-0.12 0.44,-4.65 -5.73,-3.26 -25.16,9.07 -30.35,12.28 2.65,2.02 16.98,9.24 19.39,9.48 5.51,0.56 15.15,-6.09 20.74,-8.67zm28.78 -7.02c-2.84,0.04 -7.52,3 -10.33,4.31l-8.13 4.55 10.34 7.9 -5.3 3.8c8.8,6.44 15.16,-2.05 33.06,-10.07 -3.26,-3.84 -14.24,-10.57 -19.64,-10.49zm-82.02 13.19c4.71,4.42 13.69,8.9 20.49,10.33l5.04 -3.27c-3.59,-2.92 -7.76,-4.34 -12.1,-6.56 -6.75,-3.45 -7.72,-5.53 -13.43,-0.5zm27.22 13.21c11.7,14.09 21.8,2.56 32.15,-1.33 -1.47,-4.36 -1.32,-2.47 -4.56,-5.64l5.27 -2.57c-9.71,-7.07 -12.01,0.55 -32.86,9.54zm-79.69 -35.54c1.21,-2.52 -2.32,-1.33 3.36,-2.42 4.65,4.22 10.23,7.71 16.51,5.39 5.73,-2.11 13.12,-6.36 16.47,-9.56l-11.82 -6.35 5.69 -3.11c6.87,3.62 16.28,11.2 24.43,8.41 3.48,-1.19 21.04,-10.25 23.39,-12.15l-19.46 -11.11 4.33 -1.36c2.69,4.75 44.92,24.12 53.66,28.55 13.13,6.65 43.37,24.06 55.66,27.53l-2.92 2.03c-9.9,-4.68 -7.44,-3.43 -17.53,1.77 -5.4,2.78 -10.64,5.2 -15.93,8.43l4.13 3.79c0.13,0.52 0.6,0.51 0.88,0.79l-7.74 3.17c-10.05,-11.07 -22.33,-5.9 -32.36,3.46l12.06 6.98 -3.88 1.71c-3.87,-4.8 -49.53,-26.26 -54.81,-28.92 -17.76,-8.97 -35.96,-18.87 -54.12,-27.03z"/>
    <path class="fil1" d="M19.9 48.56c6.37,5.8 43.79,22.95 54.8,28.5 14.71,7.43 43.65,20.1 54.84,28.09 -19.37,14.17 -23.14,8.72 -31.39,4.57 -17.88,-8.98 -91.67,-44.6 -98.15,-50.48l19.9 -10.68z"/>
    <path class="fil1" d="M91.04 13.6c17.99,-14.94 22.83,-8.55 31.03,-4.28l98.05 49.92 -20.62 10.62c-7.51,-6.29 -43.3,-22.31 -55.03,-28.24 -10.39,-5.27 -47.89,-22.69 -53.43,-28.02z"/>
    <path class="fil2" d="M54.58 31.53l28.36 -14.85 19.46 11.11c-2.35,1.9 -19.91,10.96 -23.39,12.15 -8.15,2.79 -17.56,-4.79 -24.43,-8.41z"/>
    <path class="fil2" d="M130.08 63.74c-5.59,2.58 -15.23,9.23 -20.74,8.67 -2.41,-0.24 -16.74,-7.46 -19.39,-9.48 5.19,-3.21 24.62,-15.54 30.35,-12.28 7.94,4.53 2.04,0.6 -0.44,4.65l10.22 8.44z"/>
    <path class="fil3" d="M87.27 15.32l3.77 -1.72c5.54,5.33 43.04,22.75 53.43,28.02 11.73,5.93 47.52,21.95 55.03,28.24l-2.91 1.54c-12.29,-3.47 -42.53,-20.88 -55.66,-27.53 -8.74,-4.43 -50.97,-23.8 -53.66,-28.55z"/>
    <path class="fil3" d="M19.9 48.56l4.47 -0.98c18.16,8.16 36.36,18.06 54.12,27.03 5.28,2.66 50.94,24.12 54.81,28.92l-3.76 1.62c-11.19,-7.99 -40.13,-20.66 -54.84,-28.09 -11.01,-5.55 -48.43,-22.7 -54.8,-28.5z"/>
    <path class="fil2" d="M145.44 77.28l5.3 -3.8 -10.34 -7.9 8.13 -4.55c2.81,-1.31 7.49,-4.27 10.33,-4.31 5.4,-0.08 16.38,6.65 19.64,10.49 -17.9,8.02 -24.26,16.51 -33.06,10.07z"/>
    <path class="fil2" d="M104.06 83.12c20.85,-8.99 23.15,-16.61 32.86,-9.54l-5.27 2.57c3.24,3.17 3.09,1.28 4.56,5.64 -10.35,3.89 -20.45,15.42 -32.15,1.33z"/>
    <path class="fil2" d="M69.16 53.44c5.16,1.33 7.91,2.57 11.61,5.8 -12.46,11.99 -19.53,3.51 -32.2,-2.82 3.46,-3.63 7.48,-4.83 12.64,-7.4 6.2,-3.1 6.6,-4.6 11.87,-0.81 0.32,2.14 1.01,-0.21 -3.92,5.23z"/>
    <path class="fil2" d="M128.91 40.65c6.73,3.35 17.05,6.94 22.06,12.18 -9.2,5.08 -10.48,7.82 -19.37,2.94l5.48 -3.7 -32.44 -17.21c7.06,-5.84 16.08,1.71 24.27,5.79z"/>
    <path class="fil2" d="M157.48 91.38l-20.3 10.44 -12.06 -6.98c10.03,-9.36 22.31,-14.53 32.36,-3.46z"/>
    <path class="fil2" d="M27.73 45.16l21.16 -10.52 11.82 6.35c-3.35,3.2 -10.74,7.45 -16.47,9.56 -6.28,2.32 -11.86,-1.17 -16.51,-5.39z"/>
    <path class="fil2" d="M97.06 51.91c-5.37,2.99 -6.7,5.33 -11.7,1.28 0.11,-0.15 -0.19,-0.46 -0.18,-0.53 0.01,-0.07 -0.09,-0.48 -0.07,-0.57l2.19 -3.16c0.12,0.31 0.69,-0.62 0.98,-0.98 -4.78,-1.8 -2.71,0.45 -4.48,-3.31 12.02,-5.26 13.29,-9.36 24.76,0.89 -3.27,2.59 -7.29,4.05 -11.5,6.38z"/>
    <path class="fil2" d="M193.67 73.43l-28.45 14.78c-0.28,-0.28 -0.75,-0.27 -0.88,-0.79l-4.13 -3.79c5.29,-3.23 10.53,-5.65 15.93,-8.43 10.09,-5.2 7.63,-6.45 17.53,-1.77z"/>
    <path class="fil2" d="M76.84 69.91c5.71,-5.03 6.68,-2.95 13.43,0.5 4.34,2.22 8.51,3.64 12.1,6.56l-5.04 3.27c-6.8,-1.43 -15.78,-5.91 -20.49,-10.33z"/>
   </g>
  </g>
 </g>
</svg>
