<?xml version="1.0" encoding="UTF-8"?>
<!DOCTYPE svg PUBLIC "-//W3C//DTD SVG 1.1//EN" "http://www.w3.org/Graphics/SVG/1.1/DTD/svg11.dtd">
<!-- Creator: CorelDRAW -->
<svg xmlns="http://www.w3.org/2000/svg" xml:space="preserve" width="117mm" height="160mm" version="1.1" style="shape-rendering:geometricPrecision; text-rendering:geometricPrecision; image-rendering:optimizeQuality; fill-rule:evenodd; clip-rule:evenodd"
viewBox="0 0 11700 16000"
 xmlns:xlink="http://www.w3.org/1999/xlink"
 xmlns:xodm="http://www.corel.com/coreldraw/odm/2003">
 <defs>
  <style type="text/css">
   <![CDATA[
    .fil3 {fill:#427C00}
    .fil1 {fill:#539A00}
    .fil5 {fill:#68400E}
    .fil4 {fill:#75AF33}
    .fil2 {fill:#825012}
    .fil6 {fill:#AD9A74}
    .fil0 {fill:#4B4B4D;fill-opacity:0.200000}
   ]]>
  </style>
 </defs>
 <g id="Camada_x0020_1">
  <metadata id="CorelCorpID_0Corel-Layer"/>
  <g id="_2201834606272">
   <path class="fil0" d="M8425.82 14159.68c-1691.89,-264.13 -3297.5,-251.66 -5175.05,3.06 -1587.98,116.18 -4204.21,580.7 -2897.11,1185.52 1893.47,876.17 9065.15,857.96 10948.54,19.51 1389.35,-618.5 -1179.08,-1069.28 -2876.38,-1208.09z"/>
   <path class="fil1" d="M4872.63 2837.89l-80.69 -361.44c121.76,34.8 129.82,72.63 217.51,121.09 184.72,102.08 490.17,-29.31 655.46,364.17 -347.48,-69.02 -377.81,-122.4 -792.28,-123.82zm-510.19 -1590.67c69.14,65.24 157.55,221.25 224.26,301.15 588.32,704.55 1348.37,427.03 1528.48,512.45 414.51,196.6 511.19,292.45 1059.23,208.09 192.98,-29.71 176.15,7.8 211.48,36.69 -300.06,138.41 -459.52,349.59 -945.95,199.69 -231.69,-71.41 -171.21,-118.36 -411.62,-39.76 -145.3,47.5 -315.06,78.86 -496.88,70.83 -692.94,-30.6 -1096.06,-530.54 -1202.49,-1137.63 -332.92,73.36 -472.24,345.29 -408.75,729.08 -268.04,86.53 -446.11,264.15 -542.08,541.98 -133.4,386.14 4.19,552.19 110.37,845.61 -468.16,86.34 -406.28,-113.42 -663.61,-288.28 -268.94,-182.73 -577.35,17.43 -727.22,163.67 -567.53,553.77 400.28,982.11 -273.83,1439.54 -34.85,327.32 51.07,381.41 362.95,291.4 345.09,-99.58 1039.28,-449.75 1363.97,-377.91 155.85,34.48 104.58,79.38 196.7,187.8 233.97,275.37 846.47,83.26 1193.31,57.31 608.51,-45.52 707.87,6.56 1260.38,-183.53 -112.63,-176.82 -134.31,-134.46 -179.69,-425.64 -525.61,8.26 -164.59,-360.47 -766.48,-415.84l-361.22 67.48 -59.16 45.23c-306.79,55.01 -531.73,98.63 -633.26,-221.66 -89.45,-76.99 -130.35,-132.81 -185.1,-227.79 468.32,-10.04 464.6,-151.62 711.62,-309.91 76.34,78.75 89.59,163.89 209.49,201.04 128.24,39.74 277.78,0.62 383.56,-42.43 400,-162.81 147.46,-36.52 610.32,57.56 261.95,53.25 533.84,13.84 743.55,-74.7 288.29,-121.71 336.14,-201.74 513.98,-358.06 391.88,28.14 506,169.37 958.84,-34.19 231.29,-103.98 480.8,-283.94 566.56,-522.24l11.45 116.4c241.19,-311.47 -253.98,-1029.19 -322.01,-1295.87 -204.09,-799.98 -874.83,-1243.11 -1809.62,-935.57 -747.21,-843.44 -2145.32,-372.97 -2231.53,818.01z"/>
   <path class="fil1" d="M1620.3 11084.06c-67.74,-147.79 -100.87,-222.58 -171.27,-345.37 193.43,1.15 173.18,47.08 301.55,80.97 106.53,28.13 155.53,-11.76 291.79,-7.38 278.93,8.96 298.31,135.82 441.92,227.95 -130.86,15.72 -289.18,-28.55 -441.73,-23.73 -153.32,4.84 -288.14,42.68 -422.26,67.56zm3783.48 -3400.09c-128.92,67.36 -142.41,95.53 -287.95,67.24 -303.63,208.9 -516.72,208.92 -933.57,171.01 -142.66,-12.98 -271.28,78.95 -434.3,105.45 -195.3,31.72 -347.28,-26.1 -466.66,-10.58 -100.82,13.1 -437.9,325.53 -882.97,138.53 -211,-88.65 -120.22,-148.32 -372.32,-91.31 -203.41,45.98 -304.64,-0.45 -461.62,-25.86 -64.63,123.7 -239.08,180.56 -337.41,252.86 -156.89,115.34 -204.42,172.6 -289.76,309.23 -167.63,268.4 -272.92,573.29 -216.98,929.34 128.72,59.46 189.87,160.48 308.2,264.25 720.64,631.99 1498.54,187.68 1696.09,236.39 900.46,222.04 631.78,79.12 1357.64,-102.58 -97.94,248.12 -427.68,491.09 -805.7,488.7 -276.45,-1.74 -282.53,-117.55 -474.81,27.57 -504.35,380.63 -1560.62,261.51 -1944.24,-551.1l-107.83 -232.7c-76.99,201.17 -200.88,131.48 -316.08,395.41 -101.53,232.57 -24.38,344.33 15.57,538.93 -383.66,286.55 -567.04,690 -368.79,1150.32 23.92,55.55 73.36,134.54 105.56,175.44 65.86,83.69 84.67,93.74 157.55,137.48 -81.28,-98.7 -31.2,-21.44 20.56,-51.86 300.68,194.44 839.21,73.23 1101.37,-262.8l136.59 -134.97c136.1,171.11 254.91,282.75 602.56,64.15 169.02,-106.27 82.7,-146.88 311.78,-111.42 692.61,107.18 1269.36,-171.15 1519.7,-716.76 391.58,32.22 705.66,-37.92 967.03,-206.24 100.74,-64.88 230.7,-184.82 309.6,-287.43 113.25,-147.28 123.31,-278.94 234.62,-379.16 -39.82,-245.66 -116.06,-444.83 -231.12,-621.11 -129.94,-199.12 -299.75,-264.91 -367.76,-458.69 61.53,-69.2 121.41,-81.82 228.27,-116.96l-3.43 -38.94c-319.05,84.76 -584.44,394.1 -880.3,233.13 -142.28,-77.41 -200.05,-235.6 -431.55,-166.64 -155.14,46.2 -927.61,484.12 -1426.15,331.51 -526.08,-161.03 50.04,-704.08 50.2,-704.36 109.36,100.55 30.8,123.29 121.23,288.48 263.5,42.71 828.82,-227.82 1096.57,-312.3 768.89,-242.6 386.59,238 1017.18,247.17 227.79,3.31 421.74,-43.85 634.23,-74.63 367.79,-53.29 835.92,29.63 1244.06,-165.18 199.16,-95.07 234.2,-161.32 235.22,-439.15l-402.97 11.55c-487.05,8.46 -115.92,-553.16 -1027.11,-301.41z"/>
   <path class="fil1" d="M3365.38 6420.51c60.93,-215.88 292.96,-292.1 437.64,-430.59 138.9,-132.98 318.35,-240.74 580.03,-220.69 -243.86,82.4 -463.1,348.71 -576.28,559.63l-441.39 91.65zm2338.64 -1018.98l256.88 101.66c-210.17,373.97 -197.1,446.59 -643.88,593.54 -147.18,-219.35 -381.04,-313.36 -718.26,-382.28 -119.55,-40.23 -126.8,-102.21 -210.47,-159.44 -72.05,-49.26 -174.54,-73.06 -283.26,-99.64 138.62,-69.12 -7.97,16.15 66.04,-67.38 -123.44,23.79 -203.88,52.55 -347.49,72.7 35.42,69.63 -34.44,48.85 34.21,58.08l-122.6 54.32c-277.61,-153.05 -50.48,-173.41 -652.14,-226.92 140.53,-40.15 174.89,-109.36 370.04,-90.81 -9.82,-8.6 8.21,-147.99 -286.99,-7.39 -231.6,110.3 -554.19,198.65 -628.91,286.81l285.45 -68.99c-58.89,68.63 -106.16,136.67 -179.9,209.95 -665.85,-26.53 -481.77,45.84 -792.46,158.46 -206.57,74.88 -883.12,3.43 -1126.67,770.8 -60.9,191.89 -83.75,447.98 -26.69,651.96 39.1,139.76 56.58,130.63 93.84,163.63 59.32,16.86 451.31,555.7 1170,374.93 100.22,-25.21 187.32,-87.02 295.31,-94.83 352.82,-25.48 172.27,127.06 683.51,-90.12 267.51,-113.65 506.84,374.9 1250.16,-49.8 288.55,-164.87 710.89,157.77 1221.62,-361.02 95.73,-97.24 70.84,-127.1 194.06,-212.27l3.8 -38.87 1.22 -222.76c130.57,-96.08 505.01,-244.84 669.09,-341.22 963.81,-566.11 1182.73,-234.1 1579.36,-207.33 313.11,21.13 528.53,-156.59 519.84,-456.39 -577.75,-311.75 -427.32,-83 -689.8,-609.4l-112.43 35.78 -61.89 -72.56c-67.3,-34.6 -238.42,-115.1 -323.12,-167.03l-238.47 -16.41c-471.49,152.51 -684.98,194.94 -931.22,535.08l-317.78 -24.84z"/>
   <path class="fil1" d="M8924.04 9494.21c89.96,-201.51 305.55,-185.1 491.4,-317.94 202.51,-144.74 378.36,-199.74 663.49,-136.4 -351.43,177.29 -324.9,45.82 -705.27,454.41 -234.65,-15.51 -197.4,-52.88 -449.62,-0.07zm-20.79 -1299.07c-42.45,157.01 -34.47,168.34 -230.03,188.84 -164.05,71.36 -171.74,76.59 -283.08,188.73 -195.28,-37.75 -278.49,-115.52 -532.65,-109 -254.03,6.51 -244.7,114.58 -518.8,79.2l52.91 -266.8 -32.51 -69.68 -26.87 -61.97c37.27,642.05 -430.7,886.79 -1052.17,845.71 -146.05,350.54 -259.9,436.31 -196,906.47 191.44,182.96 353.93,601.51 1034.34,638.08 160.1,8.61 246.03,-35.2 355.82,-36.85 195.98,-2.94 304.54,188.1 670.79,107.94 212.4,-46.49 137.04,-74.42 302.88,41.25 640.21,446.51 963.06,37.52 1288.69,153.51 454.41,161.87 1033.17,38.21 1233.39,-256.64l10.35 55.06c194.13,-201 120.03,-631.73 36.91,-857.66 -200.95,-546.21 -541.15,-472.34 -382.13,-568.44 -163.8,-118.13 -301.54,-32.54 -458.71,-237.65 -119.71,-156.21 -142.36,-223.13 -396.23,-279.94 42.4,-31.08 -11.73,0 75.84,-49.37 295.52,-166.59 608.62,-124.94 931.99,-34.45 550.99,154.19 628.99,-171.55 731.39,-361.25 -108.27,-177.43 -219.67,-88.54 -474.62,-276.7l-387.4 -369.1c-229.67,211.19 -270.25,368.67 -603.02,500.21 -390.99,154.55 -523.16,68.98 -902.58,8.72 -25.58,41.04 -52.55,105.6 -115.68,130.85 -187.68,75.04 -0.64,9.19 -79.19,0.47l-53.63 -9.54z"/>
   <path class="fil2" d="M5176.6 8774.74c-106.86,35.14 -166.74,47.76 -228.27,116.96 68.01,193.78 237.82,259.57 367.76,458.69 115.06,176.28 191.3,375.45 231.12,621.11 73.6,559.85 -108.05,861.39 -338.13,1184.95 80.57,60.76 15.35,-44.84 55.4,76.22 3.08,9.28 8.34,88.8 8.46,101.58 0.43,46.06 -8.71,126.16 -10.91,177.53 -5.14,120.52 -2.1,214.11 -28.94,331.96 -74.73,-131.1 -205.73,-246.53 -294.26,-393.46 -123.29,78.75 -286.37,172.6 -472.44,232.77l591.57 1034.09c165.18,268.25 112.44,291.39 96.24,645.33 -12.44,271.47 -24.37,529.51 -39.3,800.27 -8.62,210.76 -65.17,875.27 1.66,1011.27 218.45,444.55 1390.87,440.73 1628.13,20.01 90.7,-160.84 13.45,-803.25 6.43,-1034.34 -23.07,-312.4 -35.17,-626.06 -50.22,-935.4 -12.48,-256.39 -68.14,-751.57 -48.36,-980.69 17.01,-196.97 636.05,-1053.46 753.9,-1319.87l-27.96 -68.08 -472.39 -60.67c-74.53,173.14 -208.01,269.91 -305.98,420.3l-12.74 -422.98 -40.26 -155.46c-105.59,-136.98 -174.61,-142.08 -286.18,-302.15 -92.55,-132.81 -143.73,-263.65 -176.88,-438.04 -63.9,-470.16 49.95,-555.93 196,-906.47 -385.4,-99.43 -345.02,-310.06 -919.36,-277.41l-22.14 377.88 -161.95 -315.9z"/>
   <path class="fil1" d="M7588.96 6947.89c143.38,20.85 108.3,40.46 202.51,87 117.37,57.97 104.19,26.15 229.69,56.35 154.02,37.07 240.76,132.2 300.39,259.57 -280.15,-81.64 -334.36,-104.63 -655.14,-111.94l-77.45 -290.98zm-699.56 -359.24c-69.71,80.3 -47.35,40.3 -130.1,94.46 -53.32,34.9 -89.68,67.29 -136.17,110.72 -117.38,109.64 -143.94,170.57 -184.83,338.35 -46.11,73.96 -41.18,237.17 -2.23,309.47l141.58 305.09c3.45,3.89 13.67,12.11 16.56,15.08 2.86,2.94 11.33,9.49 17.12,14.08 265.5,36.32 517.32,216.19 929.83,-138.41l136.05 170.24c113.2,11.59 117.19,29.69 204.5,79.46l76.25 -44.76c26.17,-14.06 73.67,-38.19 98.22,-49.74 283.67,-133.41 245.81,84.06 683.94,71.85 346.51,-9.66 643.04,-188.18 758.11,-386.42 350.36,7.15 770.27,146.88 1177.48,-305.4 111.32,-123.64 23.38,-103.48 96.23,-62.14 5.04,-7.81 10.39,-30.09 11.73,-25.27 1.36,4.85 9.02,-19.56 10.65,-25.89l14.31 -55.81c58.21,-401.6 -251.77,-736.97 -286.37,-898.26 -84.45,-393.71 -244.59,-627.31 -545.2,-781.1l25.19 -79.01c-183.95,16.76 -38.12,13.15 -118.1,31.2 -209.23,47.21 -234.34,-6.05 -399.4,19.71 -176.06,27.49 -230.77,101.53 -302.5,227.6 -155.27,272.87 -240.1,380.97 -624.55,428.19 13.27,421.3 -133.46,454.66 -365.14,669.98 123.07,5.75 372.52,-28.95 430.79,-17.03 54.93,11.25 200.63,112.22 300.4,146.86 356.16,123.68 481.89,49.28 823.25,0.9 -132.33,204.54 -430.15,308.15 -719.51,247.82 -183.64,-38.28 -155.51,-108.11 -321.38,-66.96 -959.95,238.18 -859.47,-255.85 -1816.71,-344.86z"/>
   <path class="fil3" d="M6021.45 4379.76c45.38,291.18 67.06,248.82 179.69,425.64 -552.51,190.09 -651.87,138.01 -1260.38,183.53 -346.84,25.95 -959.34,218.06 -1193.31,-57.31 -92.12,-108.42 -40.85,-153.32 -196.7,-187.8 -324.69,-71.84 -1018.88,278.33 -1363.97,377.91 -311.88,90.01 -397.8,35.92 -362.95,-291.4 -171.1,89.7 -537.07,474.01 -244.23,713.86 189.93,155.57 769.99,91.49 957.59,-9.41 74.72,-88.16 397.31,-176.51 628.91,-286.81 295.2,-140.6 277.17,-1.21 286.99,7.39 68.59,74.58 263.8,214.99 370.49,205.33 143.61,-20.15 224.05,-48.91 347.49,-72.7l129.25 -33.35c148.08,-87.68 281.13,-139.6 455.94,-190.83 316.04,-54.31 557.45,27.95 772.89,166.07l174.87 71.65 317.78 24.84c246.24,-340.14 459.73,-382.57 931.22,-535.08l31.89 -116.08 129.93 -6.95 135.64 31.34c198.5,46.44 224.9,87.48 358.68,174.77l79.77 137.14c262.48,526.4 112.05,297.65 689.8,609.4 8.69,299.8 -206.73,477.52 -519.84,456.39 -396.63,-26.77 -615.55,-358.78 -1579.36,207.33 -164.08,96.38 -538.52,245.14 -669.09,341.22l-1.22 222.76c334.2,-89.29 627.2,-265.45 978.68,-391.12 157.66,-1.73 185.84,-41.55 301.5,31.16 957.24,89.01 856.76,583.04 1816.71,344.86 165.87,-41.15 137.74,28.68 321.38,66.96 289.36,60.33 587.18,-43.28 719.51,-247.82 -341.36,48.38 -467.09,122.78 -823.25,-0.9 -99.77,-34.64 -245.47,-135.61 -300.4,-146.86 -58.27,-11.92 -307.72,22.78 -430.79,17.03 231.68,-215.32 378.41,-248.68 365.14,-669.98 384.45,-47.22 469.28,-155.32 624.55,-428.19 71.73,-126.07 126.44,-200.11 302.5,-227.6 165.06,-25.76 190.17,27.5 399.4,-19.71 79.98,-18.05 -65.85,-14.44 118.1,-31.2 265.09,-5.63 390.32,-401.31 254.22,-625.35 -63.65,-43.93 -80.19,31.42 -52.72,-49.52 -13.28,243.16 -92.73,492.36 -303.95,519 -221.41,27.94 -350.95,-109.37 -711.13,-11.02 -468.88,128.04 -523.01,602.9 -975.49,73.14 -273.71,-320.45 -352.2,-648.48 -989.84,-592.46 -240.54,21.15 -485.5,50.76 -727.35,19.27 -349.73,-45.54 -283.03,-147.54 -466.56,-275.47l-7.98 76.93z"/>
   <path class="fil1" d="M7157.1 4023.55c70.68,-121.46 146.11,-165.46 299.6,-207.8 504.51,-139.18 547.45,-419.64 1124.19,-37.61 -155.28,11.27 -247.3,-27.62 -410.62,8.15 -168.43,36.88 -221.56,119.34 -300.18,146.19 -133.09,45.46 -349.24,-113.74 -712.99,91.07zm-996.93 35.14c-53.07,134.62 -79.18,91.12 -130.74,244.14 183.53,127.93 116.83,229.93 466.56,275.47 241.85,31.49 486.81,1.88 727.35,-19.27 637.64,-56.02 716.13,272.01 989.84,592.46 452.48,529.76 506.61,54.9 975.49,-73.14 360.18,-98.35 489.72,38.96 711.13,11.02 211.22,-26.64 290.67,-275.84 303.95,-519 -27.47,80.94 -10.93,5.59 52.72,49.52 -75.03,-352.46 -428.78,-735.61 -814.07,-754.3 -461.52,-22.4 -461.86,260.11 -783.38,-309.49 -77.91,-138.04 -120.03,-150.33 -162.87,-288.46 -169.18,54.57 -206.04,-21.26 -385.34,39.62 -370.84,125.92 -330.4,476.11 -865.98,220.19 -642.75,-307.11 -781.68,399.91 -1084.66,531.24z"/>
   <path class="fil3" d="M343.4 12057.99c69.98,196.46 529.51,304.17 815.4,257.45 360.75,-58.97 487.82,-255.51 667.46,-444.41 230.03,155.45 496.27,69.22 710.75,-7.17 289.32,355.85 999.15,387.57 1226.99,-144.83 302.79,24.64 418.2,32.44 702.39,-35.98 186.07,-60.17 349.15,-154.02 472.44,-232.77 100.44,-136.24 155.3,-133.54 270.25,-293.83 230.08,-323.56 411.73,-625.1 338.13,-1184.95 -111.31,100.22 -121.37,231.88 -234.62,379.16 -78.9,102.61 -208.86,222.55 -309.6,287.43 -261.37,168.32 -575.45,238.46 -967.03,206.24 -250.34,545.61 -827.09,823.94 -1519.7,716.76 -229.08,-35.46 -142.76,5.15 -311.78,111.42 -347.65,218.6 -466.46,106.96 -602.56,-64.15l-136.59 134.97c-262.16,336.03 -800.69,457.24 -1101.37,262.8 -51.76,30.42 -101.84,-46.84 -20.56,51.86z"/>
   <path class="fil3" d="M6611.33 7775.9c86.41,138.7 111.07,93.67 222.53,197.93 -1.02,277.83 -36.06,344.08 -235.22,439.15 -408.14,194.81 -876.27,111.89 -1244.06,165.18 -212.49,30.78 -406.44,77.94 -634.23,74.63 -630.59,-9.17 -248.29,-489.77 -1017.18,-247.17 -267.75,84.48 -833.07,355.01 -1096.57,312.3 -90.43,-165.19 -11.87,-187.93 -121.23,-288.48 -0.16,0.28 -576.28,543.33 -50.2,704.36 498.54,152.61 1271.01,-285.31 1426.15,-331.51 231.5,-68.96 289.27,89.23 431.55,166.64 295.86,160.97 561.25,-148.37 880.3,-233.13l187.52 -23.04c574.34,-32.65 533.96,177.98 919.36,277.41 621.47,41.08 1089.44,-203.66 1052.17,-845.71l-70.32 -109.69 265.75 -76.94 152.6 -120.11 -3.04 -29.99 -136.05 -170.24c-412.51,354.6 -664.33,174.73 -929.83,138.41z"/>
   <path class="fil3" d="M6547.11 10636.83l78.69 36.58c91.14,42.79 182.29,85.29 280.29,121.56l472.39 60.67 27.96 68.08c259.06,168.33 495.84,356.2 938.03,191.83 218.63,-81.26 206.38,2.47 431.27,47.47 237.58,47.52 384.55,-26.35 560.98,-8.07 159.24,16.5 475.24,265.87 1018.46,73.3 242.92,-86.11 603.82,-372.74 625.13,-629.26l-10.35 -55.06c-200.22,294.85 -778.98,418.51 -1233.39,256.64 -325.63,-115.99 -648.48,293 -1288.69,-153.51 -165.84,-115.67 -90.48,-87.74 -302.88,-41.25 -366.25,80.16 -474.81,-110.88 -670.79,-107.94 -109.79,1.65 -195.72,45.46 -355.82,36.85 -680.41,-36.57 -842.9,-455.12 -1034.34,-638.08 33.15,174.39 84.33,305.23 176.88,438.04 111.57,160.07 180.59,165.17 286.18,302.15z"/>
   <path class="fil3" d="M790.76 7420.59c27.41,244.19 457.14,618.76 773.63,617.86 156.98,25.41 258.21,71.84 461.62,25.86 252.1,-57.01 161.32,2.66 372.32,91.31 445.07,187 782.15,-125.43 882.97,-138.53 119.38,-15.52 271.36,42.3 466.66,10.58 163.02,-26.5 291.64,-118.43 434.3,-105.45 416.85,37.91 629.94,37.89 933.57,-171.01 56.95,-31.23 251.16,-221.13 298.32,-276.26l191.27 -487.47c-123.22,85.17 -98.33,115.03 -194.06,212.27 -510.73,518.79 -933.07,196.15 -1221.62,361.02 -743.32,424.7 -982.65,-63.85 -1250.16,49.8 -511.24,217.18 -330.69,64.64 -683.51,90.12 -107.99,7.81 -195.09,69.62 -295.31,94.83 -718.69,180.77 -1110.68,-358.07 -1170,-374.93z"/>
   <path class="fil3" d="M4201.33 3854.97c216.45,37.46 355.05,-26.65 511.3,-107.29l220.73 -162.3c56.47,40.16 140.34,84.56 201.9,135.04 240.93,25.47 281.64,3.09 504.46,-8.25 69.64,166.49 284.81,361.98 520.45,346.52 302.98,-131.33 441.91,-838.35 1084.66,-531.24 535.58,255.92 495.14,-94.27 865.98,-220.19 179.3,-60.88 216.16,14.95 385.34,-39.62 112.67,-52.67 250.43,-421.41 229.45,-606.99l-11.45 -116.4c-85.76,238.3 -335.27,418.26 -566.56,522.24 -452.84,203.56 -566.96,62.33 -958.84,34.19 -177.84,156.32 -225.69,236.35 -513.98,358.06 -209.71,88.54 -481.6,127.95 -743.55,74.7 -462.86,-94.08 -210.32,-220.37 -610.32,-57.56 -105.78,43.05 -255.32,82.17 -383.56,42.43 -119.9,-37.15 -133.15,-122.29 -209.49,-201.04 -247.02,158.29 -243.3,299.87 -711.62,309.91 54.75,94.98 95.65,150.8 185.1,227.79z"/>
   <path class="fil3" d="M749.59 9660.41l107.83 232.7c383.62,812.61 1439.89,931.73 1944.24,551.1 192.28,-145.12 198.36,-29.31 474.81,-27.57 378.02,2.39 707.76,-240.58 805.7,-488.7 -725.86,181.7 -457.18,324.62 -1357.64,102.58 -197.55,-48.71 -975.45,395.6 -1696.09,-236.39 -118.33,-103.77 -179.48,-204.79 -308.2,-264.25l29.35 130.53z"/>
   <path class="fil3" d="M4328.95 1398.73c106.43,607.09 509.55,1107.03 1202.49,1137.63 181.82,8.03 351.58,-23.33 496.88,-70.83 240.41,-78.6 179.93,-31.65 411.62,39.76 486.43,149.9 645.89,-61.28 945.95,-199.69 -35.33,-28.89 -18.5,-66.4 -211.48,-36.69 -548.04,84.36 -644.72,-11.49 -1059.23,-208.09 -180.11,-85.42 -940.16,192.1 -1528.48,-512.45 -66.71,-79.9 -155.12,-235.91 -224.26,-301.15 -6.21,82.29 -16.78,115.63 -33.49,151.51z"/>
   <path class="fil3" d="M7881.71 7887.19l51.1 40.65 344.37 -45.2c22.63,54.79 45.08,94.82 70.47,144.6 178.93,118.63 207.41,169.45 509.66,173.77l45.94 -5.87 53.63 9.54c78.55,8.72 -108.49,74.57 79.19,-0.47 63.13,-25.25 90.1,-89.81 115.68,-130.85 379.42,60.26 511.59,145.83 902.58,-8.72 332.77,-131.54 373.35,-289.02 603.02,-500.21 46.88,-154.18 144.41,-266.64 114.59,-453.85 -72.85,-41.34 15.09,-61.5 -96.23,62.14 -407.21,452.28 -827.12,312.55 -1177.48,305.4 -115.07,198.24 -411.6,376.76 -758.11,386.42 -438.13,12.21 -400.27,-205.26 -683.94,-71.85 -24.55,11.55 -72.05,35.68 -98.22,49.74l-76.25 44.76z"/>
   <path class="fil3" d="M10635.09 9172.89c1182.74,-2.72 1214.08,-858.7 884.28,-962.66 -102.4,189.7 -180.4,515.44 -731.39,361.25 -323.37,-90.49 -636.47,-132.14 -931.99,34.45 -87.57,49.37 -33.44,18.29 -75.84,49.37 253.87,56.81 276.52,123.73 396.23,279.94 157.17,205.11 294.91,119.52 458.71,237.65z"/>
   <path class="fil2" d="M5609.22 6948.61l-3.8 38.87 -191.27 487.47 -10.37 209.02c911.19,-251.75 540.06,309.87 1027.11,301.41l-19.66 -422.81c7.76,-145.07 -16.82,84.06 7.49,-64.11l17.35 -56.81c-38.95,-72.3 -43.88,-235.51 2.23,-309.47l-51.24 25.79c-5.58,-189.72 -35.22,-184.51 55.04,-332.12 68.44,-111.89 89.3,-148.39 145.8,-268.36 -351.48,125.67 -644.48,301.83 -978.68,391.12z"/>
   <path class="fil2" d="M4300.32 5354.64l298.44 359.81c337.22,68.92 571.08,162.93 718.26,382.28 446.78,-146.95 433.71,-219.57 643.88,-593.54l-256.88 -101.66 -174.87 -71.65 -36.38 662.38c-99.74,-91.97 -291.6,-307.59 -383.31,-420.79 -118.39,-146.14 -265.32,-243.73 -353.2,-407.66 -174.81,51.23 -307.86,103.15 -455.94,190.83z"/>
   <path class="fil2" d="M7527.65 7957.83l-101.42 209.36 -34.63 108.92 -52.91 266.8c274.1,35.38 264.77,-72.69 518.8,-79.2 254.16,-6.52 337.37,71.25 532.65,109 111.34,-112.14 119.03,-117.37 283.08,-188.73 20.6,-35.14 19.65,-49.05 45.3,-79.61 -270.62,-44.39 -253.82,-70.27 -447.69,-215.31l-49.17 -2.27c-102.17,83.37 -314.12,229.7 -450.24,286.52l153.92 -347.95 3.71 -41.26c-152.76,1.99 -186.45,-5.65 -248.8,-146.38l-152.6 120.11z"/>
   <path class="fil4" d="M7157.1 4023.55c363.75,-204.81 579.9,-45.61 712.99,-91.07 78.62,-26.85 131.75,-109.31 300.18,-146.19 163.32,-35.77 255.34,3.12 410.62,-8.15 -576.74,-382.03 -619.68,-101.57 -1124.19,37.61 -153.49,42.34 -228.92,86.34 -299.6,207.8z"/>
   <path class="fil4" d="M1620.3 11084.06c134.12,-24.88 268.94,-62.72 422.26,-67.56 152.55,-4.82 310.87,39.45 441.73,23.73 -143.61,-92.13 -162.99,-218.99 -441.92,-227.95 -136.26,-4.38 -185.26,35.51 -291.79,7.38 -128.37,-33.89 -108.12,-79.82 -301.55,-80.97 70.4,122.79 103.53,197.58 171.27,345.37z"/>
   <path class="fil4" d="M8924.04 9494.21c252.22,-52.81 214.97,-15.44 449.62,0.07 380.37,-408.59 353.84,-277.12 705.27,-454.41 -285.13,-63.34 -460.98,-8.34 -663.49,136.4 -185.85,132.84 -401.44,116.43 -491.4,317.94z"/>
   <path class="fil4" d="M3365.38 6420.51l441.39 -91.65c113.18,-210.92 332.42,-477.23 576.28,-559.63 -261.68,-20.05 -441.13,87.71 -580.03,220.69 -144.68,138.49 -376.71,214.71 -437.64,430.59z"/>
   <path class="fil4" d="M4872.63 2837.89c414.47,1.42 444.8,54.8 792.28,123.82 -165.29,-393.48 -470.74,-262.09 -655.46,-364.17 -87.69,-48.46 -95.75,-86.29 -217.51,-121.09l80.69 361.44z"/>
   <path class="fil2" d="M4712.63 3747.68c7.25,6.65 17.67,7.42 20.71,21 3,13.41 15.78,16.12 19.73,21.37 29.82,39.54 16.68,17.56 46.49,67.68 29.31,49.3 39.52,81.17 69.87,132.84l24.32 40.83 361.22 -67.48 -119.71 -243.5c-61.56,-50.48 -145.43,-94.88 -201.9,-135.04l-220.73 162.3z"/>
   <path class="fil4" d="M7666.41 7238.87c320.78,7.31 374.99,30.3 655.14,111.94 -59.63,-127.37 -146.37,-222.5 -300.39,-259.57 -125.5,-30.2 -112.32,1.62 -229.69,-56.35 -94.21,-46.54 -59.13,-66.15 -202.51,-87l77.45 290.98z"/>
   <path class="fil5" d="M8270.83 8089.06c193.87,145.04 177.07,170.92 447.69,215.31l138.79 -103.36c-302.25,-4.32 -330.73,-55.14 -509.66,-173.77 -145.71,39.53 -27.96,-10.04 -76.82,61.82z"/>
   <path class="fil2" d="M7215.51 4832.45l-24.02 75.25c84.7,51.93 255.82,132.43 323.12,167.03 34.49,-79.72 5.47,-55.78 94.55,-100.36 -133.78,-87.29 -160.18,-128.33 -358.68,-174.77l-34.97 32.85z"/>
   <path class="fil5" d="M7929.05 7984.1l3.76 -56.26 -51.1 -40.65c-87.31,-49.77 -91.3,-67.87 -204.5,-79.46l3.04 29.99c62.35,140.73 96.04,148.37 248.8,146.38z"/>
   <path class="fil6" d="M6587.37 10792.29c0.9,-12.22 8.28,-66.63 11.61,-74.65 2.43,-5.89 9.28,-19.77 11.86,-25.36 2.22,-4.8 9.69,-12.8 14.96,-18.87l-78.69 -36.58 40.26 155.46z"/>
  </g>
 </g>
</svg>
