<?xml version="1.0" encoding="UTF-8"?>
<!DOCTYPE svg PUBLIC "-//W3C//DTD SVG 1.1//EN" "http://www.w3.org/Graphics/SVG/1.1/DTD/svg11.dtd">
<!-- Creator: CorelDRAW -->
<svg xmlns="http://www.w3.org/2000/svg" xml:space="preserve" width="3.7252mm" height="6.3498mm" version="1.1" style="shape-rendering:geometricPrecision; text-rendering:geometricPrecision; image-rendering:optimizeQuality; fill-rule:evenodd; clip-rule:evenodd"
viewBox="0 0 372.52 634.98"
 xmlns:xlink="http://www.w3.org/1999/xlink"
 xmlns:xodm="http://www.corel.com/coreldraw/odm/2003">
 <defs>
  <style type="text/css">
   <![CDATA[
    .fil1 {fill:#427C00}
    .fil0 {fill:#539A00}
    .fil4 {fill:#6F440F}
    .fil3 {fill:#845317}
    .fil2 {fill:#4B4B4D;fill-opacity:0.200000}
   ]]>
  </style>
 </defs>
 <g id="Camada_x0020_1">
  <metadata id="CorelCorpID_0Corel-Layer"/>
  <g id="_2879461201648">
   <path class="fil0" d="M173.94 83.29c0.9,2.5 -0.83,0.66 3.23,2.46 6.59,2.92 3.01,2.27 7.57,7.23 0.12,0.13 0.33,0.31 0.44,0.44l0.8 0.97c4.46,5.72 2.88,1.67 6.56,5.46 0.13,0.13 0.28,0.38 0.41,0.51l5.06 4.34c5.36,5.29 9.79,11.65 12.86,18.4 0.08,0.18 0.2,0.42 0.28,0.6 3.2,6.53 3.88,2.41 5.74,9.15 -6.05,-3.55 -7.06,-3.89 -10.44,-8.9 -2.11,-3.12 -1.34,-2.01 -4.29,-4 -3.01,-2.03 -2.18,-1.96 -4.44,-3.9 -5.63,-4.8 -13.25,-9.1 -20.48,-13.65 -10.82,-6.81 -38.69,-16.34 -51,-15.83 -3.1,2.71 -1.39,7.5 -4.49,12.01l-2.15 -11.96 -2.55 17.38 -3.32 -17.71 -1.13 5.41 -1.64 -2.78c-0.21,-0.43 -0.61,-1.74 -1.04,-2.76l-16.97 2.26 -1.74 -2.76 -1.12 0.42c0.09,0.14 1.15,2.21 1.43,2.6l-9.94 2.48 -0.43 7.74 -4.24 -5.5c-0.05,-0.29 -0.2,-0.38 -0.29,-0.54l-0.41 15.33c-2.91,-3.59 -3.41,-9.13 -5.15,-14.14l-15.38 5.59 0.9 5.01c-3.54,-1.36 -1.6,0.07 -4.04,-2.64l1.63 7.06c-5.21,-3.47 -2.92,-3.75 -5.63,-5.8l-6.75 2.62c-2.51,1.05 -3.59,-1.64 -7.58,-2.69 0.6,3.41 0.94,3.05 2.62,5.92 -4.25,-1.47 -1.66,-1.49 -5.86,-2.74 -4.89,3.41 -15.65,13.94 -18.79,18.27 8.55,-0.75 21.79,-4.65 31.84,-6.35 22.11,-3.75 50.5,-5.75 72.99,-4.68 4.89,0.24 33.64,3.4 34.44,2.88 -6.62,0.94 -14.92,0.47 -21.72,1.23 -6.98,0.78 -18.58,1.88 -20.36,4.19 -0.61,1.54 -0.88,2.94 -1.32,4.72 -0.37,1.49 -0.35,1.76 -0.81,2.92 -0.77,1.91 0.73,-1.34 -0.66,1.35l-5.01 -7 1.52 17.41 -8.2 -17.09c-9.76,1.65 -39.87,12.07 -45.01,16.99l1.63 11.44c-0.25,-0.17 -0.51,-0.71 -0.59,-0.55l-1.41 -1.69c-2.1,-2.89 -1.81,-4.29 -4.66,-5.96 -1.75,3.31 1.79,11.93 1.29,16.55l-5.43 -9.47c-0.03,0.19 -0.5,0.23 -0.5,0.23 -2.4,-0.01 -1.51,-1.46 -4.95,-3.15l-35.27 21.98 1.56 3.02c1.76,-1.44 44.8,-6.1 51.06,-7.13 16.6,-2.73 32.54,-6.23 48.41,-9.79 15.19,-3.41 86.4,-23.21 98.21,-17.33 -0.45,2.99 -0.81,3.01 -3.72,4.61 -8.45,4.62 -21.17,3.14 -51.97,26.6l-1.1 0.74c-1.82,1.3 -1.05,0.42 -2.57,2.1l-4.47 4.69c-2.45,2.12 -1.98,2.34 -4.02,4.32 -2.22,2.16 -2.14,1.14 -4.35,3.92l-3.53 4.76c-0.16,0.21 -0.63,0.82 -0.79,1.03l-3.02 4.84c4.02,2.94 6.17,3.25 8.4,7.57l-10.25 -3.66 14.03 11.47 -17.14 -5.59c1.73,1.69 3.07,2.53 4.78,3.72l-5.64 -0.79c-5.11,7.64 -7.3,20.17 -10.75,26l5.98 5.69 -7.05 0.34c1.85,-0.04 10.67,6.05 12.83,7.61l-14.14 -2.78c-2.84,17.86 -4.68,15.67 1.12,18.02l-4.29 2.44 5.41 2.61c-1.31,0.48 -0.84,0.44 -2.48,0.77 -1.23,0.25 -2.91,0.12 -4.35,0.23 -0.3,3.22 0.03,5.03 -1.54,7.41l0.54 2.6c-1.95,0.51 -3.55,1.21 -5.72,1.53 3.1,3.3 -0.71,0.31 2.55,1.74 0.1,0.05 2.78,0.61 3.02,0.68 -1.77,2.19 -2.08,1.24 -4.24,3.7l6.53 23.91c0.92,-1.7 0.21,-0.05 1.03,-2.11 8.99,-22.82 7.17,-27.13 23.07,-58.22 7.94,-15.54 17.86,-33.08 27.82,-47.06 1.71,-2.39 3.31,-4.13 4.78,-6.43 5.71,1.88 10.7,5.62 15.5,8.06l-18.37 -2.4c-3.68,13.62 -9.17,26.35 -11.17,40.78l5.72 4.82c-1.14,0.27 -2.9,0.18 -3.71,0.37l-2.36 0.94c-0.2,0.09 -0.52,0.26 -0.74,0.44 4.8,1.86 13.19,7.05 17.11,9.86 -4.88,0.01 -15.8,-2.31 -19.2,-0.84l9.07 4.55 -9.88 0.64 -8.04 30.02c-1.55,6.28 0.18,4.82 2.5,8.73 -0.45,0.09 -1.84,0.11 -2.42,0.3 -0.22,0.07 -0.5,0.15 -0.73,0.24l-2.3 1.2 6.25 4.41 -9.25 0.14 -6.82 18.14c3.95,-0.2 2.09,0 3.42,-1.07 -3.68,-1.08 -1.28,0.02 8.09,-9.4 47.68,-47.96 62.06,-148.79 93.4,-185.12l19.32 -11.23c3.58,-1.6 5.58,-1 7.67,-3.05l17.57 -13.2c4,-2.83 14.33,-9.84 19.32,-11.45l-1.27 -5.88 4.7 1.85 -3.35 -7.1 6.91 4.1 0.44 -2.8c3.31,2.39 3.65,3.77 9.03,1.61 2.92,-1.18 7.68,-3.51 10.16,-2.06 5.66,-5.56 17.06,-0.75 23.1,1.28 -12.12,-11.97 -22.25,-23.79 -45.55,-25.61l-0.92 2.67 -6.31 -3.09 1.89 5.64c-8.3,-5.92 -4.21,-3.74 -8.7,-2.88 -0.17,0.04 -0.44,0.05 -0.61,0.08 -3.03,0.36 -1.78,-0.64 -5.41,0.76 -2.68,1.04 -6.16,3.41 -8.25,4.74 -5.91,3.79 -9.29,8.45 -14.46,11.45l2.6 3.62c-0.33,-0.06 -2.61,-0.27 -2.67,-0.27l-2.64 0.57c0.98,1.14 2.91,3.29 4.45,4.18l-7.14 -0.69 -6.38 6.24c-3,7.41 -3.42,6.05 -11.24,8.65 1.72,2 3.61,2.84 5.94,1.41 -0.74,2.77 -7.85,24.27 -8.69,25.77 -4.26,-35.96 -54.57,-89.94 -58.15,-127.22 -0.19,0.15 -0.47,0.16 -0.55,0.47l-1.95 1.95c-1.17,1.36 -1.13,1.45 -1.99,2.62 -10.08,13.61 -11.16,29.99 -4.01,45.35 3.34,7.17 3.47,5.83 12.87,5.83l-7.65 4.37 15.73 -0.92 -12.33 4.28c2.66,6.29 10.9,12.37 12.4,18.06z"/>
   <path class="fil1" d="M247.05 118.91c-2.09,2.05 -4.09,1.45 -7.67,3.05l-19.32 11.23c-31.34,36.33 -45.72,137.16 -93.4,185.12 -9.37,9.42 -11.77,8.32 -8.09,9.4 9.95,0.32 32.41,-15.74 38.7,-22.28 7,-7.28 8.71,-6.49 6.11,-10.66l2.1 -0.7c4.51,-1.11 -2.39,1.41 1.46,-0.23 -2.73,-3.07 -6.03,-5.62 -8.35,-8.13 4.56,0.69 8.4,2.75 12.98,2.64 1.76,-2.02 2.18,-2.65 3.7,-3.96 4.35,-6.8 19.38,-27.99 20.76,-36.8l-6.9 -8.86 8.47 0.85c-1.57,-2.07 -0.53,-1.08 -2.66,-2.45 -0.64,-0.42 -2.03,-1.09 -3.03,-1.57 -2.77,-1.34 -4.47,-1.78 -6.43,-3.89l17.47 3.46c5.04,-7.76 9.83,-33.9 12.54,-37.03l0.62 -5.81c0.08,-0.22 0.7,-2.25 0.71,-2.28l-0.05 -1.25c0,-0.21 -0.06,-0.48 -0.07,-0.71 0,-0.23 -0.05,-0.5 -0.04,-0.75 0.22,-7.85 -0.19,-0.36 1.87,-5.38 -3.52,-3.18 -2.08,-2.81 -2.58,-8.23 4.79,-0.12 3.32,1.24 4.25,-3.08l1.73 -21.33c6.47,3.73 11.59,23.47 13.35,29.69 2.63,9.33 5.93,26.69 6.13,36.25l-4.95 2.24c2.8,2.38 3.4,2.3 4.48,1.46 -2.46,2.56 -7.67,3.23 -11.57,5.09 4.22,1.49 9.02,0.89 13.5,0.89 -1.99,2.01 -0.71,0.31 -3.3,1.58l-4.04 3.4c9.82,0.38 8.1,-1.57 8.97,9.41 1.45,18.37 0.19,35.96 0.14,53.63l-7.09 1.52c0.16,0.14 0.45,0.17 0.57,0.59 1.09,3.81 0.5,0.68 1.18,1.25 0.77,0.64 0.51,0.47 1.83,1.25 1.13,0.67 2.72,1.31 3.68,1.86l-4.3 3c8.02,3 -1.93,20.41 2.38,25.96 10.21,-18.45 16.27,-52.25 18.94,-73.67l-4.24 -2.28c0.97,-2 0.83,-0.67 -1.08,-2.54l5.35 -1.4c0.02,-10.19 0.11,-19.41 -0.6,-29.54 -1.26,-18.15 -2.98,-10.29 6.27,-20.95l-5.45 13.86c8.02,3.77 16.99,12.12 30.74,16.73l5.24 -3.85 -0.45 5.9c3.53,-3.69 7.22,-8.59 12.12,-10.96l-4.49 13.38 6.36 -5.15 -1.94 7.68c4.68,2.38 9.21,5.04 14.84,7.96 4.96,2.57 9.16,7.46 14.49,5.53l2.01 4.78 3.49 -4.23c-0.11,-8.88 -35.52,-38.17 -42.39,-43.77l-48.96 -37.04c-13.7,-10.36 -6.06,-5.76 -14.34,-14.21 -8.5,-8.69 -6.85,-6.98 -16.48,-11.69 0.19,-4.62 -0.33,-5.93 4.05,-7.7 8.07,-3.24 19.85,-6 28.67,-7.15 22.14,-2.89 24.93,0.68 41.25,3.02l-0.44 8.74c1.47,-1.01 1.4,-0.17 3.61,-4.23 0.64,-1.16 0.7,-2.17 1.61,-2.81 -1.08,6.91 -3.81,10.76 -1.78,14.44 1.16,-3.16 4.18,-8.1 6.06,-11.46l1.54 4.26c1.03,-2.8 0.16,-1.79 2.43,-3.75 7.29,3.9 13.93,7.5 19.96,11.09l-1.82 5.98c3.1,-1.54 2.38,-2 5.14,-3.5 -1.34,4.67 -2.83,6.7 -3.86,11.82 6.56,-5.28 3.97,-6.83 7.47,-8.4 1.93,0.88 4.29,3.72 6.12,5.08 3.44,2.56 3.95,2.09 2.34,7.38 3.31,-0.56 2.48,0.88 2.78,-1.22 -2.15,1.76 -1.74,2.05 -2.98,4.72l5.62 -2.32c3.71,2.01 1.63,4.57 5.55,2.85l3.7 -4.17c-1.51,-4.77 -5.13,-9.08 -7.43,-13.32l-5.99 2.18c0.66,-2.22 2.09,-3.44 3.44,-5.8 -2.56,-6.13 -8.45,-10.6 -12.4,-14.93l-4 2.74 1.84 -5.55c-4.19,1.44 -6.84,5.1 -9.63,8.04l4.86 -12.02c-3.98,1.04 -1.78,0.6 -7.09,3.84l2.17 -6.17c-7.3,-3.19 -16.07,-10.88 -31.4,-12.23l-2.53 5.69c-0.11,-0.52 -0.59,-2.96 -0.72,-3.26 -1.19,-2.83 0.06,-0.91 -1.97,-2.77 -0.55,2.55 -1.11,4.02 -2.1,6.26l-3.13 5.73 0 -11.51c-13.86,-1.97 -24.89,4.06 -36.21,6.43z"/>
   <path class="fil2" d="M259.4 568.84l2.7 13.04c5.23,10.25 -0.36,19.39 -7.52,23.47 -20,11.41 -59.88,11.48 -76.35,-5.46 -1.73,-3.18 -2.5,-4.46 -2.34,-9.41l-0.13 -32.93 -0.35 -0.28 0.23 12.56c-16.17,2.54 -43.87,15.62 -43.76,33.84 0.26,42.89 136.73,53.19 169.46,14.19 23.29,-27.75 -25.67,-47.65 -41.94,-49.02z"/>
   <path class="fil1" d="M1.55 173.62c10.9,7 22.77,12.94 37.52,16.03 14.18,2.97 37.01,2.69 50.18,-1.11l0.13 -9.11c3.54,4.72 2.07,5.68 5.55,7.99l-1.95 -17.46 8.8 16.12c-3.99,6.01 -9.94,17.17 -11.74,26.36l6.86 4.88 -8.79 1.37c0.57,2.81 -1.94,1.47 6.51,5.09 2.21,0.94 4.96,2.22 7.25,3.02l-14.91 -0.29c1.87,2.23 1.36,1.75 4.45,2.74l-4.73 1.52 -0.99 22.94 8.69 2.86 -7.56 3.08c0.28,5.48 0.08,12.76 2.43,17.64l5.36 0.75c1.57,-2.38 1.24,-4.19 1.54,-7.41 1.44,-0.11 3.12,0.02 4.35,-0.23 1.64,-0.33 1.17,-0.29 2.48,-0.77l-5.41 -2.61 4.29 -2.44c-5.8,-2.35 -3.96,-0.16 -1.12,-18.02l14.14 2.78c-2.16,-1.56 -10.98,-7.65 -12.83,-7.61l7.05 -0.34 -5.98 -5.69c3.45,-5.83 5.64,-18.36 10.75,-26l5.64 0.79c-1.71,-1.19 -3.05,-2.03 -4.78,-3.72l17.14 5.59 -14.03 -11.47 10.25 3.66c-2.23,-4.32 -4.38,-4.63 -8.4,-7.57l3.02 -4.84c0.16,-0.21 0.63,-0.82 0.79,-1.03l3.53 -4.76c2.21,-2.78 2.13,-1.76 4.35,-3.92 2.04,-1.98 1.57,-2.2 4.02,-4.32l4.47 -4.69c1.52,-1.68 0.75,-0.8 2.57,-2.1l1.1 -0.74c30.8,-23.46 43.52,-21.98 51.97,-26.6 2.91,-1.6 3.27,-1.62 3.72,-4.61 -11.81,-5.88 -83.02,13.92 -98.21,17.33 -15.87,3.56 -31.81,7.06 -48.41,9.79 -6.26,1.03 -49.3,5.69 -51.06,7.13z"/>
   <path class="fil0" d="M344.49 249.6l-0.7 6.3c2.31,2.53 10.79,8.42 13.47,9.25 0.86,-15 -10.56,-43.58 -15.86,-45.67 -3.99,-1.57 -2.42,3.25 -2.98,-2.06 -2.19,1.49 -4.8,3.24 -7.64,4.38l5.09 -10.1c-5.48,-8.46 -20.7,-23.92 -28.33,-28.85l-9.02 4.18 2.48 -7.04c-3.99,3.42 -6.64,7.87 -9.31,9.68l7.34 -14.47c-5.28,-2.55 -20.95,-14.57 -31.76,-18.83 -4.93,-1.94 -4.85,1.87 -9.8,4.5 0.45,-1.98 0.86,-2.52 1.18,-3.92l-0.14 -4.04c-0.97,0.68 -7.91,7.91 -8.9,9.24 1.25,-4.95 3.98,-7.41 2,-8.79 -0.03,-0.02 -0.23,-0.05 -0.33,-0.12l0.23 -5.31 -16.03 -5.37c37.1,-1.85 96.03,23.21 128.3,45.08 3.75,2.53 3.21,3.24 8.75,4.32 -0.87,-4.56 -6.91,-16.1 -8.84,-19.16l-5.65 0.65c3.06,-2.92 2.24,-0.3 4.64,-4.85l-7.04 1.13c-3.92,1.72 -1.84,-0.84 -5.55,-2.85l-5.62 2.32c1.24,-2.67 0.83,-2.96 2.98,-4.72 -0.3,2.1 0.53,0.66 -2.78,1.22 1.61,-5.29 1.1,-4.82 -2.34,-7.38 -1.83,-1.36 -4.19,-4.2 -6.12,-5.08 -3.5,1.57 -0.91,3.12 -7.47,8.4 1.03,-5.12 2.52,-7.15 3.86,-11.82 -2.76,1.5 -2.04,1.96 -5.14,3.5l1.82 -5.98c-6.03,-3.59 -12.67,-7.19 -19.96,-11.09 -2.27,1.96 -1.4,0.95 -2.43,3.75l-1.54 -4.26c-1.88,3.36 -4.9,8.3 -6.06,11.46 -2.03,-3.68 0.7,-7.53 1.78,-14.44 -0.91,0.64 -0.97,1.65 -1.61,2.81 -2.21,4.06 -2.14,3.22 -3.61,4.23l0.44 -8.74c-16.32,-2.34 -19.11,-5.91 -41.25,-3.02 -8.82,1.15 -20.6,3.91 -28.67,7.15 -4.38,1.77 -3.86,3.08 -4.05,7.7 9.63,4.71 7.98,3 16.48,11.69 8.28,8.45 0.64,3.85 14.34,14.21l48.96 37.04c6.87,5.6 42.28,34.89 42.39,43.77z"/>
   <path class="fil3" d="M171.44 378.83c1.06,29.25 0.13,59.73 0.98,88.92 12.1,2.25 16.65,2.22 28.15,-0.68 4.5,-1.13 8.9,-2.4 12.91,-3.74 2.09,-0.7 4.2,-1.45 6.13,-2.24 3.19,-1.31 3.04,-2.07 6.22,-0.76 -2.2,-13.97 -7.06,-30.06 -9.12,-44.29 -2.22,-15.26 -3.97,-30.22 -5.9,-45.75 -7.77,0.68 -15.46,1.26 -22.84,1.96 -12.12,1.14 -8.71,1.13 -16.53,6.58z"/>
   <path class="fil3" d="M175.27 284.39l-2.93 53.3c15.67,0.25 13.97,0.79 27.51,-2.63 0.87,-0.22 4.01,-0.88 4.8,-0.9l3.77 1.3c-0.99,-44.88 -0.17,-93.82 7.07,-137.36 -2.71,3.13 -7.5,29.27 -12.54,37.03l-17.47 -3.46c1.96,2.11 3.66,2.55 6.43,3.89 1,0.48 2.39,1.15 3.03,1.57 2.13,1.37 1.09,0.38 2.66,2.45l-8.47 -0.85 6.9 8.86c-1.38,8.81 -16.41,30 -20.76,36.8z"/>
   <path class="fil3" d="M173.53 501.05l1.41 41.44c9.36,4.63 9.94,13.46 35.21,11.73 10.72,-0.74 36.88,-5.28 43.15,-5.23 -1.45,-4.92 -3.5,-8.86 -4.86,-13.88 -1.06,-3.9 -2.81,-9.97 -4.43,-13.29 -9.89,3.22 -18.73,7.53 -30.03,10.6 -15.37,4.18 -22.21,1.44 -37.79,2.57l-1.57 -11.25c11.47,2.89 11.47,9.68 34.78,0.27 6.75,-2.73 24.94,-12.2 31.6,-11.54 -1.24,-4.41 -2.31,-11.01 -5.05,-13.98 -1.12,2.51 -3.16,1.6 -7,1.8l-23.17 1.9c-8.89,0.49 -24.25,2.41 -32.25,-1.14z"/>
   <path class="fil1" d="M233.56 92.67c-1.8,-6.2 -3.18,-11.73 -5.45,-17.27 -4.3,-10.53 -4.03,-6.1 -14.06,-9.16l6.98 -3.28 -14.35 1.56c1.57,-0.99 4.27,-1.96 6.66,-2.74 2.66,-0.87 5.21,-1.35 7.15,-3.04 -2.75,-2.53 -7.18,-9.83 -10.17,-13.62 -3.84,-4.88 -7.53,-8.76 -10.97,-12.95l-11.31 0.78 6.76 -3.32c-2.97,-2.17 -6.97,0.16 -13.6,0.69l5.93 -3.76c0.01,-0.05 0.03,-0.26 0.05,-0.31 0.01,-0.06 0.05,-0.29 0.07,-0.36l1.89 -3.2c-4.05,-2.82 -8.38,-7.37 -12.99,-10.94 -4.99,-3.85 -9.5,-7.82 -14.73,-10.47 3.58,37.28 53.89,91.26 58.15,127.22 0.84,-1.5 7.95,-23 8.69,-25.77 -2.33,1.43 -4.22,0.59 -5.94,-1.41 7.82,-2.6 8.24,-1.24 11.24,-8.65z"/>
   <path class="fil0" d="M216.11 192.29c2.28,3.63 4.43,28.68 5.54,35.69l19.03 99.53c1.03,1.86 1.67,0.94 1.67,0.93 0.05,-0.17 0.39,0.02 0.54,-0.09 -4.31,-5.55 5.64,-22.96 -2.38,-25.96l4.3 -3c-0.96,-0.55 -2.55,-1.19 -3.68,-1.86 -1.32,-0.78 -1.06,-0.61 -1.83,-1.25 -0.68,-0.57 -0.09,2.56 -1.18,-1.25 -0.12,-0.42 -0.41,-0.45 -0.57,-0.59l7.09 -1.52c0.05,-17.67 1.31,-35.26 -0.14,-53.63 -0.87,-10.98 0.85,-9.03 -8.97,-9.41l4.04 -3.4c2.59,-1.27 1.31,0.43 3.3,-1.58 -4.48,0 -9.28,0.6 -13.5,-0.89 3.9,-1.86 9.11,-2.53 11.57,-5.09 -1.08,0.84 -1.68,0.92 -4.48,-1.46l4.95 -2.24c-0.2,-9.56 -3.5,-26.92 -6.13,-36.25 -1.76,-6.22 -6.88,-25.96 -13.35,-29.69l-1.73 21.33c-0.93,4.32 0.54,2.96 -4.25,3.08 0.5,5.42 -0.94,5.05 2.58,8.23 -2.06,5.02 -1.65,-2.47 -1.87,5.38 -0.01,0.25 0.04,0.52 0.04,0.75 0.01,0.23 0.07,0.5 0.07,0.71l0.05 1.25c-0.01,0.03 -0.63,2.06 -0.71,2.28z"/>
   <path class="fil1" d="M91.21 85.66l1.74 2.76 16.97 -2.26c0.43,1.02 0.83,2.33 1.04,2.76l1.64 2.78 1.13 -5.41 3.32 17.71 2.55 -17.38 2.15 11.96c3.1,-4.51 1.39,-9.3 4.49,-12.01 12.31,-0.51 40.18,9.02 51,15.83 7.23,4.55 14.85,8.85 20.48,13.65 2.26,1.94 1.43,1.87 4.44,3.9 2.95,1.99 2.18,0.88 4.29,4 3.38,5.01 4.39,5.35 10.44,8.9 -1.86,-6.74 -2.54,-2.62 -5.74,-9.15 -0.08,-0.18 -0.2,-0.42 -0.28,-0.6 -3.07,-6.75 -7.5,-13.11 -12.86,-18.4l-5.06 -4.34c-0.13,-0.13 -0.28,-0.38 -0.41,-0.51 -3.68,-3.79 -2.1,0.26 -6.56,-5.46l-0.8 -0.97c-0.11,-0.13 -0.32,-0.31 -0.44,-0.44 -4.56,-4.96 -0.98,-4.31 -7.57,-7.23 -4.06,-1.8 -2.33,0.04 -3.23,-2.46 -8.41,-5.52 -13.91,-8.41 -24.22,-12.95 -2.09,2.81 -2.7,6.76 -4.14,9.74l-2.11 3.34 -0.77 -15.16c-1.9,1.07 -3.81,5.48 -3.76,6.61l-0.15 -7.76c-19.84,-1.94 -22.43,-1.18 -41.22,1.96l-0.13 8.96c-2.85,-2.53 -3.77,-5.93 -6.79,-6.63 -1.51,4.09 0.17,9.79 0.56,14.26z"/>
   <path class="fil3" d="M175.89 590.48c26.85,0.04 42.51,-3.82 65.73,-12.98 8.73,-3.45 17.36,-8.51 17.78,-8.66 -0.47,-2.08 -0.91,-3.94 -1.54,-6.03 -0.81,-2.65 -0.86,-3.47 -2.4,-5.25 -0.16,2.39 0.35,0.74 -0.65,1.97 -7.2,-0.06 -12.71,1.68 -19.51,2.54 -17.41,2.2 -43.68,0.74 -59.54,-4.52l0.13 32.93z"/>
   <path class="fil3" d="M178.23 599.89c16.47,16.94 56.35,16.87 76.35,5.46 7.16,-4.08 12.75,-13.22 7.52,-23.47 -8.87,6.14 -70.54,20.85 -83.87,18.01z"/>
   <path class="fil3" d="M172.56 476.99l0.41 10.92c3.16,1.47 2.68,1.99 5.83,4 1.95,1.24 3.92,2.12 6.41,2.77 15.54,4.12 32.74,-5.69 47.56,-8.26 -0.24,-1.97 -3.8,-14.71 -4.45,-16.21 -8.2,1.36 -16.71,5.69 -25.35,6.73 -5.33,0.65 -26.72,1.29 -30.41,0.05z"/>
   <path class="fil4" d="M175.89 590.48c-0.16,4.95 0.61,6.23 2.34,9.41 13.33,2.84 75,-11.87 83.87,-18.01l-2.7 -13.04c-0.42,0.15 -9.05,5.21 -17.78,8.66 -23.22,9.16 -38.88,13.02 -65.73,12.98z"/>
   <path class="fil4" d="M175.41 557.27l0.35 0.28c15.86,5.26 42.13,6.72 59.54,4.52 6.8,-0.86 12.31,-2.6 19.51,-2.54 1,-1.23 0.49,0.42 0.65,-1.97l-2.16 -8.57c-6.27,-0.05 -32.43,4.49 -43.15,5.23 -25.27,1.73 -25.85,-7.1 -35.21,-11.73l0.47 14.78z"/>
   <path class="fil1" d="M41.79 105.89l6.75 -2.62c2.71,2.05 0.42,2.33 5.63,5.8l-1.63 -7.06c2.44,2.71 0.5,1.28 4.04,2.64l-0.9 -5.01 15.38 -5.59c1.74,5.01 2.24,10.55 5.15,14.14l0.41 -15.33c0.09,0.16 0.24,0.25 0.29,0.54l4.24 5.5 0.43 -7.74 9.94 -2.48c-0.28,-0.39 -1.34,-2.46 -1.43,-2.6 -0.9,-3.91 -2.99,-8.9 -5.47,-11.83l-1.97 5.5c-2.07,-2.3 -1.17,-2.11 -3.58,-4.31 -7.26,1.48 -15.11,7.88 -20.45,9.88l2.38 9.28c-2.38,-1.09 -5.31,-4.36 -7.25,-5.76 -5.24,3.1 -10.18,6.61 -14.53,10.75l2.57 6.3z"/>
   <path class="fil3" d="M172 349.7l-0.41 20.61c0.24,-0.14 0.61,-0.61 0.74,-0.39l17.15 -6.42c5.58,-1.8 14.42,-4.7 20.31,-4.86l-0.79 -12.02c-7.84,-0.2 -12.68,-2.68 -19.85,-2.98 -10.77,-0.45 -10.85,3.44 -17.15,6.06z"/>
   <path class="fil4" d="M244.01 521.82l-3.01 -9.35c-6.66,-0.66 -24.85,8.81 -31.6,11.54 -23.31,9.41 -23.31,2.62 -34.78,-0.27l1.57 11.25c15.58,-1.13 22.42,1.61 37.79,-2.57 11.3,-3.07 20.14,-7.38 30.03,-10.6z"/>
   <path class="fil4" d="M172.97 487.91l0.56 13.14c8,3.55 23.36,1.63 32.25,1.14l23.17 -1.9c3.84,-0.2 5.88,0.71 7,-1.8 0.02,-3.72 -1.51,-8.82 -3.18,-12.07 -14.82,2.57 -32.02,12.38 -47.56,8.26 -2.49,-0.65 -4.46,-1.53 -6.41,-2.77 -3.15,-2.01 -2.67,-2.53 -5.83,-4z"/>
   <path class="fil4" d="M172.42 467.75l0.14 9.24c3.69,1.24 25.08,0.6 30.41,-0.05 8.64,-1.04 17.15,-5.37 25.35,-6.73l-2.49 -9.88c-3.18,-1.31 -3.03,-0.55 -6.22,0.76 -1.93,0.79 -4.04,1.54 -6.13,2.24 -4.01,1.34 -8.41,2.61 -12.91,3.74 -11.5,2.9 -16.05,2.93 -28.15,0.68z"/>
   <path class="fil1" d="M310.56 83.98c14.14,6.36 5.22,11.39 17.96,13.02l-3.79 2.01c0.09,0.35 0.21,0.44 0.22,0.65 0.01,0.21 0.11,0.39 0.13,0.46l0.96 11.79c3.5,-1.88 7.97,-6.57 9.85,-10.85 3.12,-7.09 0.89,-10.76 -2.23,-15.8 -6.04,-2.03 -17.44,-6.84 -23.1,-1.28z"/>
   <path class="fil4" d="M171.59 370.31l-0.15 8.52c7.82,-5.45 4.41,-5.44 16.53,-6.58 7.38,-0.7 15.07,-1.28 22.84,-1.96l-1.02 -11.65c-5.89,0.16 -14.73,3.06 -20.31,4.86l-17.15 6.42c-0.13,-0.22 -0.5,0.25 -0.74,0.39z"/>
   <path class="fil4" d="M172.34 337.69l-0.34 12.01c6.3,-2.62 6.38,-6.51 17.15,-6.06 7.17,0.3 12.01,2.78 19.85,2.98l-0.58 -11.16 -3.77 -1.3c-0.79,0.02 -3.93,0.68 -4.8,0.9 -13.54,3.42 -11.84,2.88 -27.51,2.63z"/>
  </g>
 </g>
</svg>
