<?xml version="1.0" encoding="UTF-8"?>
<!DOCTYPE svg PUBLIC "-//W3C//DTD SVG 1.1//EN" "http://www.w3.org/Graphics/SVG/1.1/DTD/svg11.dtd">
<!-- Creator: CorelDRAW -->
<svg xmlns="http://www.w3.org/2000/svg" xml:space="preserve" width="56.3032mm" height="33.0198mm" version="1.1" style="shape-rendering:geometricPrecision; text-rendering:geometricPrecision; image-rendering:optimizeQuality; fill-rule:evenodd; clip-rule:evenodd"
viewBox="0 0 5630.32 3301.98"
 xmlns:xlink="http://www.w3.org/1999/xlink"
 xmlns:xodm="http://www.corel.com/coreldraw/odm/2003">
 <defs>
  <style type="text/css">
   <![CDATA[
    .fil8 {fill:#246C91}
    .fil7 {fill:#2C87B4}
    .fil13 {fill:#32576A}
    .fil10 {fill:#387696}
    .fil12 {fill:#3D6C83}
    .fil14 {fill:#402708}
    .fil9 {fill:#4894BB}
    .fil2 {fill:#531F04}
    .fil11 {fill:#5B380C}
    .fil1 {fill:#672707}
    .fil6 {fill:#9C7563}
    .fil4 {fill:#B0A690}
    .fil5 {fill:#B58772}
    .fil3 {fill:#DACFB2}
    .fil0 {fill:#373435;fill-opacity:0.200000}
   ]]>
  </style>
 </defs>
 <g id="Camada_x0020_1">
  <metadata id="CorelCorpID_0Corel-Layer"/>
  <g id="_3134794880912">
   <polygon class="fil0" points="2206.26,3246.04 3692.54,2502.24 4262.65,2799.06 5300.2,2287.11 5269.44,2205.05 5626.1,2282.85 4260.99,2945.68 3684.27,2620.81 2372.25,3301.99 "/>
   <g>
    <path class="fil1" d="M138.48 1329.91l519.69 256.39c171.58,85.82 342.95,171.47 514.81,257.42 170.62,85.35 339.76,172.21 512.81,258.73 83.56,41.77 472.67,243.22 524.37,258.45l-221.77 -1987.39c45.21,-27.44 87.64,-42.69 133.23,-68.38l277.81 -140.83c45.69,-22.18 43.7,-12.16 147.05,32.94l434.23 185c73.79,29.47 62.06,46.83 89.92,117.95 78.37,200.03 156.12,394.61 233,595.56 38.3,100.09 77.03,196.84 115.23,295.07 34.46,88.59 92.77,215.86 115.46,302.18l-449.49 223.6c-25.62,12.81 -47.44,23.75 -75.08,37.55l-53.43 26.78c-2.32,1.36 -9.69,6.08 -11.79,7.45l-12.51 8.84c2.24,1.37 5.29,1 6.5,4.43l65.29 37.75c45.09,22.22 191.53,90.51 213.42,111.72 19.33,5.85 29.22,11.7 40.66,20.12 35.48,6.27 27.26,9.28 52.12,26.86 27.94,-33.22 552.07,-286.6 599.01,-308.29 41.68,-1.58 305.56,144.78 365.08,174.87 14.66,-61.65 5.16,-905 5.16,-1044.49 94.23,16.47 995.45,407.88 1092.87,417.44 -25.73,-27.96 -303.5,-158.45 -336.62,-175.06l-1008.57 -504.27c-451.89,-226.08 -894.6,-448.28 -1345.23,-673.72 -22.69,-11.36 -157.81,-82.35 -171,-84.38 -27.19,-4.17 -128.28,56.98 -165.79,75.75l-1678.34 839.42c-224.47,112.63 -448.43,233 -670.82,333.6 33.79,37.19 102.75,50.47 142.72,80.94z"/>
    <path class="fil2" d="M2210.16 2360.9l721.86 -363.68 12.51 -8.84c2.1,-1.37 9.47,-6.09 11.79,-7.45l53.43 -26.78c27.64,-13.8 49.46,-24.74 75.08,-37.55l449.49 -223.6c-22.69,-86.32 -81,-213.59 -115.46,-302.18 -38.2,-98.23 -76.93,-194.98 -115.23,-295.07 -76.88,-200.95 -154.63,-395.53 -233,-595.56 -27.86,-71.12 -16.13,-88.48 -89.92,-117.95l-434.23 -185c-103.35,-45.1 -101.36,-55.12 -147.05,-32.94l-277.81 140.83c-45.59,25.69 -88.02,40.94 -133.23,68.38l221.77 1987.39z"/>
    <path class="fil3" d="M1344.09 2666.54c-0.13,-79.11 -10.7,-457.37 7.06,-502.04 31.71,3.65 219.05,103.7 261.68,125.19 60.24,30.38 209.65,113.99 265.59,127.65l-2.91 511.88c-35.41,4.78 -515.75,-238.86 -531.42,-262.68zm-886.97 -925.26c0,-46.96 97.06,19.08 125.74,33.42l407.52 202.88c0.51,618.24 38.17,540.31 -127.39,457.5 -48.15,-24.08 -91.28,-46.04 -139.12,-69.95 -38.13,-19.07 -266.75,-117.79 -266.75,-149.15l0 -474.7zm1749.14 1504.76l3.9 -885.14c-51.7,-15.23 -440.81,-216.68 -524.37,-258.45 -173.05,-86.52 -342.19,-173.38 -512.81,-258.73 -171.86,-85.95 -343.23,-171.6 -514.81,-257.42l-519.69 -256.39 -0.31 887.74c74.12,22.1 1418.42,704.33 1554.05,772.18 169.62,84.83 343.69,179.92 514.04,256.21z"/>
    <path class="fil2" d="M4274.1 2064.68l1033.55 -510.71 146.35 -78.2c-20.36,-18.8 -56.37,-36.53 -81.87,-38.14 -97.42,-9.56 -998.64,-400.97 -1092.87,-417.44 0,139.49 9.5,982.84 -5.16,1044.49z"/>
    <path class="fil4" d="M2550.02 2932.91l-0.42 -491.65c0,-30.03 -2.33,-11.5 24.73,-28.86l230.86 -115.03c50.24,-25.18 227.51,-125.55 268.9,-127.83l0.19 488.96c0.01,37.94 -208.1,123.75 -248.22,143.82 -63.72,31.88 -217.35,116.38 -276.04,130.59zm-339.86 -572.01l-3.9 885.14c151.31,-54.26 943.57,-495.53 1009.15,-491.44l1.82 -603.48c-21.89,-21.21 -168.33,-89.5 -213.42,-111.72l-65.29 -37.75c-1.21,-3.43 -4.26,-3.06 -6.5,-4.43l-721.86 363.68z"/>
    <path class="fil4" d="M4545.15 2564.13l-0.16 -510.54c109.1,-38.94 462.96,-245.77 524.97,-255.43l0 507.73c-42.23,32.05 -480.17,251.6 -524.81,258.24zm-271.05 -499.45c13.9,65.57 3.45,506.07 5.12,642.1 0.58,47.73 7.51,72.35 -16.57,92.28 34.65,9.73 220.31,-94.59 268.06,-118.48 127.29,-63.71 701.94,-357.84 782.26,-389.69 0,-111.25 14.03,-685.73 -5.32,-736.92l-1033.55 510.71z"/>
    <path class="fil3" d="M3687.23 2012.33c-3.66,76.56 -13.01,452.95 8.36,499.58l567.06 287.15c24.08,-19.93 17.15,-44.55 16.57,-92.28 -1.67,-136.03 8.78,-576.53 -5.12,-642.1 -59.52,-30.09 -323.4,-176.45 -365.08,-174.87 -9.52,19.94 6.8,8.21 -52.04,36.55l-169.75 85.97z"/>
    <path class="fil2" d="M3281.65 2675.28l-1.19 -113.34 228 -117.16 1.12 116.75 -227.93 113.75zm-23.76 -504.04c-0.36,36.37 -0.08,72.73 -0.2,109.11 -0.12,40.93 -8.29,87.87 13.79,105.44 14.47,-26.95 8.04,-65.16 8.24,-108.14l229.91 -112.12 0 114.54 -201.83 107.78 -2.45 10.61c68.69,-10.85 136.04,-69.4 204.28,-93.21 0,141.14 37.52,102.56 -227.08,227.84l-3.92 -76.47c-32.06,5.76 -21.07,8.54 -20.86,145.56l7.48 132.95 291.05 -142.06c-0.42,-93.49 -0.09,-187.04 -0.09,-280.54 0,-48.28 0.17,-96.59 -0.02,-144.87 -0.25,-65.69 -16.82,-85.61 35.78,-106.18l95.26 -49.15 169.75 -85.97c58.84,-28.34 42.52,-16.61 52.04,-36.55 -46.94,21.69 -571.07,275.07 -599.01,308.29 -24.86,-17.58 -16.64,-20.59 -52.12,-26.86z"/>
    <path class="fil5" d="M492.04 2199.89l0.17 -433.91 459.4 226.02 0.17 446.93c-75.81,-30.45 -255.01,-126.66 -346.67,-172.48l-113.07 -66.56zm-34.92 -458.61l0 474.7c0,31.36 228.62,130.08 266.75,149.15 47.84,23.91 90.97,45.87 139.12,69.95 165.56,82.81 127.9,160.74 127.39,-457.5l-407.52 -202.88c-28.68,-14.34 -125.74,-80.38 -125.74,-33.42z"/>
    <path class="fil5" d="M1378.32 2642.41l0.09 -433.93 458.86 226.62 1.87 449.12c-109.21,-46.67 -284.13,-144.69 -409.56,-203.62 -19.18,-9 -51.26,-17.25 -51.26,-38.19zm-34.23 24.13c15.67,23.82 496.01,267.46 531.42,262.68l2.91 -511.88c-55.94,-13.66 -205.35,-97.27 -265.59,-127.65 -42.63,-21.49 -229.97,-121.54 -261.68,-125.19 -17.76,44.67 -7.19,422.93 -7.06,502.04z"/>
    <path class="fil6" d="M4572.9 2079.2c14.26,-34.15 76.41,-50.71 109.81,-67.41l347.84 -172.48 -1.17 447.5 -456.48 226.3 0 -433.91zm-27.75 484.93c44.64,-6.64 482.58,-226.19 524.81,-258.24l0 -507.73c-62.01,9.66 -415.87,216.49 -524.97,255.43l0.16 510.54z"/>
    <path class="fil6" d="M3034.15 2207.14l0.41 24.93 -0.12 209.19 -1.16 214.46 -455.97 227.95 1.55 -449.13 455.29 -227.4zm-484.13 725.77c58.69,-14.21 212.32,-98.71 276.04,-130.59 40.12,-20.07 248.23,-105.88 248.22,-143.82l-0.19 -488.96c-41.39,2.28 -218.66,102.65 -268.9,127.83l-230.86 115.03c-27.06,17.36 -24.73,-1.17 -24.73,28.86l0.42 491.65z"/>
    <path class="fil7" d="M1591.25 2618.21l-157.04 16.47 158.01 -76.37 -3.31 -231.92 -159.26 -78.6c-18.37,17.47 -2.64,-6.67 -9.86,17.73l-1.85 360.79c6.51,30.46 147.46,87.04 173.85,97l-0.54 -105.1z"/>
    <path class="fil8" d="M2829.41 2327.95l-2.33 229.58c19.5,6.22 139.97,59.86 156.08,78.82l-155.1 -18.08 0.4 105.21c26.73,-12.86 163.65,-66.1 170.38,-97.17l0.83 -338.52c-2.05,-44.1 -5.19,-31.29 -11.77,-38.59l-158.49 78.75z"/>
    <path class="fil8" d="M4826.25 1959.63l-1.29 227.49 149.16 80 -148.21 -19.26 0.88 106.01 165.99 -83 2.38 -345.15c-0.33,-34.05 6.05,-30.41 -11.48,-45.57l-157.43 79.48z"/>
    <polygon class="fil7" points="698.98,2173.75 547.11,2192.66 699.59,2112.77 698.05,1885 532.63,1795.62 531.78,2193.65 697.23,2280.29 "/>
    <path class="fil8" d="M2592.91 2444.88l174.29 84.82 4.57 78.56 -178.89 -22.79c0.13,58.97 -7.93,225.3 5.62,269.12l184.87 -95.31 0.29 -409.51c-32.33,23.18 -147.74,69.03 -190.75,95.11z"/>
    <path class="fil8" d="M4588.84 2075.16l174.98 81.91 3.65 81.28 -178.85 -23.21 0.81 269.55 188.87 -95.5 0.51 -409.72c-29.03,22.57 -148.87,70.67 -189.97,95.69z"/>
    <path class="fil7" d="M937.14 2140.16l-175.59 23.77 1.67 -81.28c48.17,-28.09 127.1,-49.8 165.65,-85.59 -43.56,-29.92 -154.21,-67.67 -179.73,-89.99l-2.08 410.55 187.36 91.58 2.72 -269.04z"/>
    <path class="fil2" d="M4588.62 2215.14l0.22 -139.98c41.1,-25.02 160.94,-73.12 189.97,-95.69l-0.51 409.72 -188.87 95.5 -0.81 -269.55zm237.63 -255.51l157.43 -79.48c8.28,-7.95 -8.03,-6.74 26.8,-15.01l-2.28 414.26 -191.3 88.73 0.73 -391.99c5.7,-24.2 -4.8,-1.1 8.62,-16.51zm-253.35 119.57l0 433.91 456.48 -226.3 1.17 -447.5 -347.84 172.48c-33.4,16.7 -95.55,33.26 -109.81,67.41z"/>
    <path class="fil1" d="M928.87 1997.06l8.67 33.55c0.84,9.51 -0.02,30.02 -0.13,40.56 -0.25,22.99 -0.14,45.99 -0.27,68.99l-2.72 269.04 -187.36 -91.58 2.08 -410.55c25.52,22.32 136.17,60.07 179.73,89.99zm-396.24 -201.44l165.42 89.38c11.88,14.5 7.8,3.05 11.77,25.24 0.14,0.77 0.36,21.66 0.36,23.79l-1.48 359.68c-32.93,-3.46 -72.08,-29.56 -102.73,-44.52 -19.58,-9.55 -84.89,-36.22 -90.42,-57.35l0.06 -305.74c-0.21,-87.64 -6.32,-79.56 17.02,-90.48zm72.48 470.83c91.66,45.82 270.86,142.03 346.67,172.48l-0.17 -446.93 -459.4 -226.02 -0.17 433.91 113.07 66.56z"/>
    <path class="fil1" d="M1654.47 2361.84l169.73 83.61 0.05 140.02 -0.61 254.16c-12.39,20.98 3.82,11.87 -21.77,8.18 -3.74,-0.54 -21.35,-10.63 -27,-13.72 -17.6,-9.62 -30.43,-15.65 -48.09,-24.45 -34.13,-17.01 -62.77,-30.23 -94.91,-49.4l-0.43 -408.7c41.86,3.05 10.59,0.86 23.03,10.3zm-224.82 -114.05l159.26 78.6 5.3 12.33c9.99,36.97 -2.63,-27.14 3.12,13.97l0.14 72.48c-0.21,90 4.24,240.13 -3.14,317.95l-191.28 -93.96 2.04 -416.03 24.56 14.66zm-51.33 394.62c0,20.94 32.08,29.19 51.26,38.19 125.43,58.93 300.35,156.95 409.56,203.62l-1.87 -449.12 -458.86 -226.62 -0.09 433.93z"/>
    <path class="fil2" d="M2592.88 2585.47l0.03 -140.59c43.01,-26.08 158.42,-71.93 190.75,-95.11l-0.29 409.51 -184.87 95.31c-13.55,-43.82 -5.49,-210.15 -5.62,-269.12zm236.53 -257.52l158.49 -78.75 26.5 -14.7 -2.03 414.33 -191.03 90.48c-1.65,-27.39 -11.36,-384.03 8.07,-411.36zm-250.55 106.59l-1.55 449.13 455.97 -227.95 1.16 -214.46 0.12 -209.19 -0.41 -24.93 -455.29 227.4z"/>
    <path class="fil4" d="M3591.97 2061.48l0.25 493.06c40.11,-16.14 58.44,-34.3 103.37,-42.63 -21.37,-46.63 -12.02,-423.02 -8.36,-499.58l-95.26 49.15z"/>
    <polygon class="fil7" points="1647.5,2606.05 1647.11,2753.92 1823.64,2839.63 1824.25,2585.47 "/>
    <path class="fil6" d="M3215.41 2754.6c21.35,-6 33.22,-16.27 49.84,-19.47l-7.48 -132.95c-0.21,-137.02 -11.2,-139.8 20.86,-145.56l0.03 -46.96 26.69 -11.2 2.45 -10.61c-6.18,2.85 -14.92,7.27 -22.23,6.46 -0.76,-0.09 -3.14,-0.92 -3.8,-1.09l-10.29 -7.43c-22.08,-17.57 -13.91,-64.51 -13.79,-105.44 0.12,-36.38 -0.16,-72.74 0.2,-109.11 -11.44,-8.42 -21.33,-14.27 -40.66,-20.12l-1.82 603.48z"/>
    <path class="fil9" d="M1647.15 2531.18l0.35 74.87 176.75 -20.58 -0.05 -140.02c-48.1,14.76 -137.05,62.19 -177.05,85.73z"/>
    <polygon class="fil10" points="4588.62,2215.14 4767.47,2238.35 4763.82,2157.07 4588.84,2075.16 "/>
    <path class="fil9" d="M937.14 2140.16c0.13,-23 0.02,-46 0.27,-68.99 0.11,-10.54 0.97,-31.05 0.13,-40.56l-8.67 -33.55c-38.55,35.79 -117.48,57.5 -165.65,85.59l-1.67 81.28 175.59 -23.77z"/>
    <polygon class="fil10" points="2592.88,2585.47 2771.77,2608.26 2767.2,2529.7 2592.91,2444.88 "/>
    <path class="fil11" d="M3295.02 2370.11c38.73,-10.89 73.55,-32.71 110.52,-50.81 83.53,-40.9 97.07,-18.19 87.1,-133.14 -226.2,90.05 -197.62,100.96 -197.62,183.95z"/>
    <path class="fil6" d="M3556.3 2593.07c19.42,-28.19 22.43,5.17 35.92,-38.53l-0.25 -493.06c-52.6,20.57 -36.03,40.49 -35.78,106.18 0.19,48.28 0.02,96.59 0.02,144.87 0,93.5 -0.33,187.05 0.09,280.54z"/>
    <path class="fil11" d="M3495.17 2555.71l-2.53 -87.95c-37.47,14.92 -183.44,77.82 -197.62,110.28l1.2 76.06 198.95 -98.39z"/>
    <path class="fil11" d="M3295.37 2425.27l0.24 85.84c32.15,-10.61 68.98,-31.96 100.64,-48.06 31.51,-16.01 84.11,-30 98.54,-62.02l0 -74.56 -199.42 98.8z"/>
    <path class="fil7" d="M1647.15 2531.18c40,-23.54 128.95,-70.97 177.05,-85.73l-169.73 -83.61c-20.96,36.21 -6.83,122.16 -7.32,169.34z"/>
    <path class="fil12" d="M698.05 1885l1.54 227.77 -0.61 60.98 -1.75 106.54 -165.45 -86.64 0.85 -398.03c-23.34,10.92 -17.23,2.84 -17.02,90.48l-0.06 305.74c5.53,21.13 70.84,47.8 90.42,57.35 30.65,14.96 69.8,41.06 102.73,44.52l1.48 -359.68c0,-2.13 -0.22,-23.02 -0.36,-23.79 -3.97,-22.19 0.11,-10.74 -11.77,-25.24z"/>
    <path class="fil13" d="M4825.91 2247.86l-0.95 -60.74 1.29 -227.49c-13.42,15.41 -2.92,-7.69 -8.62,16.51l-0.73 391.99 191.3 -88.73 2.28 -414.26c-34.83,8.27 -18.52,7.06 -26.8,15.01 17.53,15.16 11.15,11.52 11.48,45.57l-2.38 345.15 -165.99 83 -0.88 -106.01z"/>
    <path class="fil13" d="M2987.9 2249.2c6.58,7.3 9.72,-5.51 11.77,38.59l-0.83 338.52c-6.73,31.07 -143.65,84.31 -170.38,97.17l-0.4 -105.21 -0.98 -60.74 2.33 -229.58c-19.43,27.33 -9.72,383.97 -8.07,411.36l191.03 -90.48 2.03 -414.33 -26.5 14.7z"/>
    <path class="fil12" d="M1588.91 2326.39l3.31 231.92 -0.97 59.9 0.54 105.1c-26.39,-9.96 -167.34,-66.54 -173.85,-97l1.85 -360.79c7.22,-24.4 -8.51,-0.26 9.86,-17.73l-24.56 -14.66 -2.04 416.03 191.28 93.96c7.38,-77.82 2.93,-227.95 3.14,-317.95l-0.14 -72.48c-5.75,-41.11 6.87,23 -3.12,-13.97l-5.3 -12.33z"/>
    <path class="fil14" d="M3494.79 2326.47l0 74.56c-14.43,32.02 -67.03,46.01 -98.54,62.02 -31.66,16.1 -68.49,37.45 -100.64,48.06l-0.24 -85.84 199.42 -98.8zm-189.44 71.99l-26.69 11.2 -0.03 46.96 3.92 76.47c264.6,-125.28 227.08,-86.7 227.08,-227.84 -68.24,23.81 -135.59,82.36 -204.28,93.21z"/>
    <path class="fil12" d="M1823.64 2839.63l-176.53 -85.71 0.39 -147.87 -0.35 -74.87c0.49,-47.18 -13.64,-133.13 7.32,-169.34 -12.44,-9.44 18.83,-7.25 -23.03,-10.3l0.43 408.7c32.14,19.17 60.78,32.39 94.91,49.4 17.66,8.8 30.49,14.83 48.09,24.45 5.65,3.09 23.26,13.18 27,13.72 25.59,3.69 9.38,12.8 21.77,-8.18z"/>
    <path class="fil14" d="M3295.02 2370.11c0,-82.99 -28.58,-93.9 197.62,-183.95 9.97,114.95 -3.57,92.24 -87.1,133.14 -36.97,18.1 -71.79,39.92 -110.52,50.81zm-23.54 15.68l10.29 7.43c0.66,0.17 3.04,1 3.8,1.09 7.31,0.81 16.05,-3.61 22.23,-6.46l201.83 -107.78 0 -114.54 -229.91 112.12c-0.2,42.98 6.23,81.19 -8.24,108.14z"/>
    <path class="fil14" d="M3296.22 2654.1l-1.2 -76.06c14.18,-32.46 160.15,-95.36 197.62,-110.28l2.53 87.95 -198.95 98.39zm213.36 -92.57l-1.12 -116.75 -228 117.16 1.19 113.34 227.93 -113.75z"/>
    <path class="fil10" d="M2828.06 2618.27l155.1 18.08c-16.11,-18.96 -136.58,-72.6 -156.08,-78.82l0.98 60.74z"/>
    <polygon class="fil9" points="1591.25,2618.21 1592.22,2558.31 1434.21,2634.68 "/>
    <polygon class="fil9" points="698.98,2173.75 699.59,2112.77 547.11,2192.66 "/>
    <polygon class="fil10" points="4825.91,2247.86 4974.12,2267.12 4824.96,2187.12 "/>
   </g>
  </g>
 </g>
</svg>
