<?xml version="1.0" encoding="UTF-8"?>
<!DOCTYPE svg PUBLIC "-//W3C//DTD SVG 1.1//EN" "http://www.w3.org/Graphics/SVG/1.1/DTD/svg11.dtd">
<!-- Creator: CorelDRAW -->
<svg xmlns="http://www.w3.org/2000/svg" xml:space="preserve" width="49.9532mm" height="33.0198mm" version="1.1" style="shape-rendering:geometricPrecision; text-rendering:geometricPrecision; image-rendering:optimizeQuality; fill-rule:evenodd; clip-rule:evenodd"
viewBox="0 0 4995.32 3301.98"
 xmlns:xlink="http://www.w3.org/1999/xlink"
 xmlns:xodm="http://www.corel.com/coreldraw/odm/2003">
 <defs>
  <style type="text/css">
   <![CDATA[
    .fil0 {fill:#206D57}
    .fil1 {fill:#27886C}
    .fil11 {fill:#2E2C2A}
    .fil8 {fill:#3A2307}
    .fil10 {fill:#3D3D3D}
    .fil5 {fill:#51320A}
    .fil9 {fill:#5B5B5B}
    .fil7 {fill:#71655A}
    .fil2 {fill:#837668}
    .fil3 {fill:#A49382}
    .fil4 {fill:#BAA694}
    .fil12 {fill:#BAA694}
    .fil6 {fill:#CBCBCA}
    .fil13 {fill:#4B4B4D;fill-opacity:0.200000}
   ]]>
  </style>
 </defs>
 <g id="Camada_x0020_1">
  <metadata id="CorelCorpID_0Corel-Layer"/>
  <g id="_3099367861296">
   <g>
    <path class="fil0" d="M910.08 457.2l1315.57 657.96c62.03,31.59 136.59,63.53 192.45,94.29 122.78,67.63 250.52,126.45 376.04,190.05 128.79,65.27 250.31,125.27 376.6,189.36 51.21,25.98 733.17,357.55 755.19,386.01 -70.36,-13.92 -234.3,-5.06 -314.94,-5.06 -156.24,0 -128.25,4.25 -248.57,-56.08 -138.47,-69.44 -276.73,-138.77 -415.19,-208.2 -276.2,-138.5 -548.67,-273.98 -826.59,-413.47l-1444.97 -725.65c-39.11,-20.11 -187.08,-85.95 -209.31,-110.19 -23.87,8.94 -349.46,342.43 -419.37,411.88 -86.49,85.93 -39.63,75.85 28.57,119.95l10.42 1.19 1196.87 602.52 148.8 71.34 17.48 14.01 28.54 13.45 34.48 15.94c14.32,6.56 24.86,12.15 39.73,19.68 17.16,8.69 29.77,12.87 39.8,26.5 40.74,1.82 524.94,256.37 604.52,296.27 101.96,51.13 199.08,99.72 300.94,150.55 81.88,40.86 230.71,104.91 298.52,151.32l35.56 16.04 22.13 15.05 90.44 42.43 24.17 14.71 22.02 6.43 35.5 16.47 113.44 -106.23 34.4 -37.41c19.13,-26.82 53.79,-61.63 80.73,-79.83 17.29,-22.95 55.83,-60.35 85.3,-85.85l45.38 -37.87 48.57 -54.24 44.37 -42.1c18.37,-16.06 39.02,-8.01 83.19,-7.52l292.31 -0.91c87.08,-2.09 65.64,14.55 115.38,-37.61 21.52,-22.57 52.13,-58.56 77.56,-71.72 9.5,-21.1 10.73,-20.22 29.23,-35l71.06 -74.41c13.56,-13.17 0.83,-1.83 12.8,-11.77l83.73 -79.59c22.66,-17.31 14.05,-25.97 45.1,-43.48 15,-26.79 2.77,-6.84 25.6,-27.26 73.53,-65.78 -3.32,-74.99 176.11,-73.94l123.52 0.45 153.61 0.07 34.94 -1.01 39.36 -0.98 0.18 -26.06c-5.58,-19.5 5.14,-8.98 -12.91,-11.96 -104,2.64 -210.6,0.01 -315.49,0.01 -154.2,0 -131.76,-0.39 -250.33,-59.84l-2682.75 -1344.35c-49.36,-24.75 -172.84,-75.49 -203.07,-109.07l440.3 2.47c-25.26,-8.53 -281.85,-2.85 -332.17,-2.85 -85.49,0 -111.89,-12.22 -145.83,22.32 -72.7,73.99 -403.42,396.48 -429.02,432.79z"/>
    <path class="fil1" d="M910.08 457.2l-443.72 -0.98c22.23,24.24 170.2,90.08 209.31,110.19l1444.97 725.65c277.92,139.49 550.39,274.97 826.59,413.47 138.46,69.43 276.72,138.76 415.19,208.2 120.32,60.33 92.33,56.08 248.57,56.08 80.64,0 244.58,-8.86 314.94,5.06 -22.02,-28.46 -703.98,-360.03 -755.19,-386.01 -126.29,-64.09 -247.81,-124.09 -376.6,-189.36 -125.52,-63.6 -253.26,-122.42 -376.04,-190.05 -55.86,-30.76 -130.42,-62.7 -192.45,-94.29l-1315.57 -657.96z"/>
    <path class="fil1" d="M4828.44 1515.72l-2819.39 -1417.96c-56.05,-27.99 -134.95,-73.69 -191.95,-92.82l-440.3 -2.47c30.23,33.58 153.71,84.32 203.07,109.07l2682.75 1344.35c118.57,59.45 96.13,59.84 250.33,59.84 104.89,0 211.49,2.63 315.49,-0.01z"/>
    <path class="fil2" d="M4790.84 2295.34l-409.64 205.27c-130.81,66.86 -280.92,149.56 -411.36,206.87l0.04 -224.45 34.97 -14.2 41.32 -24.65c0.96,-0.68 2.96,-2.15 4.26,-3.42 -12.41,-56.55 -4.3,-200.63 -4.21,-266.96 0.12,-90.99 0.2,-182.1 -0.11,-273.14 -25.43,13.16 -56.04,49.15 -77.56,71.72 -49.74,52.16 -28.3,35.52 -115.38,37.61l1.38 6.1 40.53 0.57c-0.1,112.56 -12.41,672.14 4.24,728.1l-14.23 0.04c-13.9,16.16 -769.25,393.13 -822.06,415.35l0 -218.19 46.42 -22.85 30.77 -18.72 -0.42 -206.73 -74.49 33.3c7.86,-31.82 45.61,-42.01 73.71,-52.51l0.67 -94.79 -74.38 33.33c9.42,-29.83 47.35,-41.62 73.87,-51.95l0.3 -94.63 -74.26 34.47c10.55,-33.06 45.6,-41.78 74.03,-54.12l-0.33 -91.04 -113.44 106.23 0.67 728.49 -40.06 -25.34 -166.99 -82.75c-9.3,-6.62 -7.78,-5.74 -13.18,-11.16l180.64 -93.33 0.47 -98c-30.66,19.58 -61.04,32.5 -91.71,47.94 -16.08,8.1 -30.82,15.21 -47.65,24.01 -25.5,13.34 -30.74,20.14 -50.21,11.69 24.87,-24.17 158.82,-89.67 189.7,-96.54l0.18 -100.38c-28.31,13.13 -166.96,89.68 -188.27,90.93l-3.58 96.65 -1204.99 -597.55 0.96 14.31 1200.92 599.24 3.34 100.68 -1280.88 -642.52 73.8 57.46c59.38,13.91 237.28,113.33 304.36,146.88l904.31 450.62 0.31 59.85 5.2 6.04 -6.15 -58.48c84.02,20.91 148.07,82 230.61,108.33l-3.86 58.92c68.23,-26.28 161.19,-77.07 230.2,-114.27 73.73,-39.74 148.9,-74.48 224.69,-111.96l908.65 -453.16c77.7,-38.11 150.84,-75.22 230.12,-114.02 70.98,-34.73 156.11,-84.55 224.36,-112.28l-0.27 -798.51 -39.36 0.98 0 719.59c5.32,39.14 4.45,7.62 -10.97,21.03z"/>
    <path class="fil3" d="M1816.11 2009.48l6.11 -16.37 258.36 127.6 -2.22 416.83c-44.23,-18.85 -90.96,-44.63 -136.79,-67.61 -110.83,-55.57 -125.23,-42.41 -125.62,-104.73l-225.13 -107.84 -0.32 99.25 1204.99 597.55 3.58 -96.65 -225.82 -107.23 -1.24 33.4 -264.08 -128.03 -0.32 -46.9c-26.41,-3.86 -134.37,-63.52 -173.09,-81.95 -26.36,-12.55 -40.57,-11.73 -46.71,-36.32 65.84,27.43 160.99,77.64 219.51,111.08l0.34 -107.52c-25.8,-3.66 -89.51,-40.11 -115.96,-53.22 -25.57,-12.67 -95.13,-38.32 -104.03,-64.2l219.39 111.31 -0.22 -105.32c-34.07,-10.03 -82.76,-38.52 -116.54,-55.48 -24.87,-12.49 -95.4,-39 -102.2,-64.99l218.91 111.08 0.03 -104.42c-23.58,-4.55 -91.49,-42.5 -117.52,-55.57 -20.64,-10.36 -36.69,-18.62 -57.7,-28.6 -23.38,-11.1 -39.82,-11.59 -43.41,-35.77l218.26 111.05c2,-35.41 -1.94,-13.86 10.96,-21.11 30.62,24.04 90.7,49.01 129.72,68.32 72.74,35.98 121.24,44.58 125.33,85.54l223.13 107.69 2.37 -99.08 -905.18 -450.62c-67.39,-33.72 -244.34,-132.7 -302.9,-146.87 -1.44,100.11 -8.05,88.24 22.25,106.94l203.76 98.76z"/>
    <path class="fil2" d="M1287.15 2209.7c10.05,-19.8 15.87,-18.73 44.25,-32.28l142.11 -68.67c-12.13,33.67 -167.46,105.74 -186.36,100.95zm265.89 -127.78c9.27,-27.55 4.26,-18.11 31.09,-30.6 -7.62,28.21 -2.57,20.92 -31.09,30.6zm0.95 -229.66c2.62,-21.74 10.61,-19.41 32.9,-27.32 -6.05,18.76 0.77,11.41 -13.87,22.03 -9.89,7.18 -11.91,4.72 -19.03,5.29zm-268.05 12.84c19.84,-20.38 153.98,-85.42 188.01,-97.84 -11.28,31.02 -34.94,34.01 -89.53,61.72l-98.48 36.12zm-1202.21 -253.35l1201.98 601.75 -1.14 101.63 -1201.33 -601.08 0.49 -102.3zm976.92 24.74l0.07 13.16 223.43 107.2 -2.14 101.07 -221.73 -107.86 0.63 13.74 223.31 107.83 -0.89 102.12 -223.05 -108.82 0.97 12.53 223.1 107.67 -0.74 101.7 -222.09 -110.32 0.11 14.73 222.66 107.43 2.25 102.41 -1204.07 -603.75 0.73 -98.86 220.8 110.33 0.71 -15.54 -221.83 -107.66 0.32 -102 220.8 110.34 0.39 -14.25 -222.01 -107.68 0.59 -101.28 221.33 109.88 0.12 -15.79 -222.1 -107.68 0.97 -99.87 221.51 109.7 -0.49 -15.79 -222.8 -107.69 4.36 -99.53 1199.32 601.14 -2 100.69 -222.54 -109.3zm-974.94 147.64l-4.39 -57.65 1207.01 602.41c1.04,6.06 2.28,23.51 0.74,31.07 -4.55,22.34 1.58,9.89 -10.78,22.84l11.95 7.93 -4.53 -56.49 207.82 97.53c24.01,14.91 21.47,0.63 20.28,67.76 27.65,-10.35 47.88,-28.65 77.56,-29.8l-1.24 -81.14 -38.7 13.87 0.29 -219.83 31.88 -15.09 6.74 -23.73 225.79 107.26 -1.04 -15.05 -226.46 -107.86 2.63 -101.76 225.05 110.38 -0.03 -13.16c-40.53,-12.76 -79.18,-36.6 -117.45,-55.73 -133.91,-66.97 -111.77,-31.79 -106.59,-153.7l224.58 109.02 -0.71 -13.73 -203.76 -98.76c-30.3,-18.7 -23.69,-6.83 -22.25,-106.94 58.56,14.17 235.51,113.15 302.9,146.87l905.18 450.62 -2.37 99.08 -223.13 -107.69 -0.14 15.79 225.64 107.67c10.08,-24.44 -0.65,-13 24.73,-26.88 13.3,-7.27 29.56,-14.17 43.71,-21.08 25.24,-12.33 59.48,-24.33 77.17,-43.82l-90.44 -42.43 -54.9 22.81c13.73,-34.9 11.26,-11.26 32.77,-37.86l-35.56 -16.04 2.46 36.27c-52.69,-12.18 -790.86,-391.66 -905.61,-449.2l-302.37 -149.76 1.54 -35.45c-10.03,-13.63 -22.64,-17.81 -39.8,-26.5 -14.87,-7.53 -25.41,-13.12 -39.73,-19.68l2.69 721.82 -34.25 -13.51c-10.71,-7.33 -5.23,-4.13 -12.18,-11.76l-177.55 -85.41c18.29,-17.74 147.02,-81.98 178.3,-93.2 22.3,-55.77 -0.95,-431.08 8.51,-533.88l-28.54 -13.45 -141.55 75.48c-41.91,9.71 -5.22,3.97 -21.27,-2.36l9.14 -8.55c32.94,-25.16 115.73,-47.16 136.2,-78.58l-148.8 -71.34 1.91 39.02 -909.84 -453.88c-50.81,-25.47 -273.93,-122.06 -293.85,-159.05l4.91 -28.61 -10.42 -1.19c8.91,106.09 -15.04,764.37 10.15,796.08z"/>
    <path class="fil3" d="M304.31 1251.18l4.18 -16.41 258.71 130.24 2.84 25.97c17.46,4.7 211.9,92.9 219.65,119.75 -36.21,-16.22 -71.21,-34.76 -108.73,-53.58l-111.15 -57.18 0 104.65 169.9 81.73c23.05,11.36 45.57,13.11 48.85,38.35l-218.52 -111.08 -0.23 105.87 226.51 116.16 0.71 -254.17 209.52 102.56c35.16,17.29 52.61,13.76 54.1,52.45l222.54 109.3 2 -100.69 -1199.32 -601.14 -4.36 99.53 222.8 107.69z"/>
    <path class="fil4" d="M3446.52 2743.72l2.5 3.52c41.39,31.35 107.03,42.73 140.02,80.24 -71.22,39.22 -159.96,80.46 -238.38,119.87 -38.38,19.29 -83.03,57.71 -125.64,38.2 -37.37,-17.12 -89.01,-39.05 -115.57,-66.44l-46.42 22.85 0 218.19c52.81,-22.22 808.16,-399.19 822.06,-415.35 -35.25,-24.01 -17.64,-0.28 -29.26,-33.66l-3.91 -29.18c8.3,-23.28 14.12,-114.17 -6.15,-135.26l-399.25 197.02z"/>
    <polygon class="fil3" points="83.24,1714.05 1284.57,2315.13 1285.71,2213.5 83.73,1611.75 "/>
    <path class="fil5" d="M4158.6 1956.12l-0.01 106.85 -73.72 37.19 -2.41 -109.04 76.14 -35zm84.33 -256.23l-83.73 79.59 -0.7 132.79 -70.53 37.46c-5.34,-25.78 2.07,-63.52 -12.63,-84.07 -18.5,14.78 -19.73,13.9 -29.23,35 0.31,91.04 0.23,182.15 0.11,273.14 -0.09,66.33 -8.2,210.41 4.21,266.96l40.14 -15.21 -2.39 -39.1 184.06 -89.44 -1.43 -282.77 -74.91 32.24 0.58 -19.21 -0.02 -83.2c8.67,-19.77 7.52,-16.22 30.65,-27.55 16.75,-8.21 24.9,-10.84 42.42,-16.63l-0.47 -39.04 -71.6 30.99 0.96 -120.11c14,-19.47 12.34,-16.87 36.12,-28.19 13.69,-6.51 23.88,-10.57 40.15,-15.34l31.18 -13.9 -0.47 596.39 41.76 -21.05 -0.27 -319.92 0.37 -18.91 -1.53 -298.96 -102.8 48.04z"/>
    <path class="fil5" d="M3176.65 2540.07l1.19 -95.74 74.29 -34.75 0.17 93.27 -1.57 20.28 -70.56 32.79 -3.52 -15.85zm162.7 -387.44c-29.47,25.5 -68.01,62.9 -85.3,85.85l-1.83 113.86 -2.75 18.86 -69.32 32.87 -3.35 -15.62 -3.48 -70.14 -34.4 37.41 0.33 91.04 0.23 19.65 -0.3 94.63 0.51 18.62 -0.67 94.79 0.78 19.21 0.42 206.73 37.64 -21.39c7.85,-60.03 24.9,-50.1 78.65,-77.05 36.92,-18.52 76.05,-37.35 108.43,-55.46l-0.17 -280.43 -73.4 35.03 -1.83 -18.51 0.31 -93.5 75.39 -34.22 -0.47 -39.56 -73.49 35.03 -1.73 -20.28 -0.72 -111.72 76.15 -36.9 31.99 -12.98 4.96 595.33 36.1 -15.46c4.23,-106.27 0.58,-216.41 1.35,-323.25 0.18,-25.82 8.77,-294.01 -9.96,-315.48l-90.07 43.04z"/>
    <path class="fil3" d="M1061.63 1991.24l-0.58 33.39c-33.59,-7.99 -101.37,-47.06 -135.98,-64.41 -33.31,-16.71 -111.59,-44.28 -128.43,-73.59l-0.75 -150.72c-22.63,-0.73 -200.05,-95.42 -226.65,-110.94l0.28 108.08c23.81,3.39 208.86,88.16 220.26,117.86 -58.43,-21.18 -170,-81.59 -220.54,-111.08l-0.56 42.85 -263.79 -132.74 -0.89 -41.14 -220.8 -110.33 -0.73 98.86 1204.07 603.75 -2.25 -102.41 -222.66 -107.43z"/>
    <polygon class="fil3" points="1590.13,2388.59 1591.37,2469.73 2795.72,3070.84 2792.38,2970.16 1591.46,2370.92 "/>
    <path class="fil4" d="M4358.01 2289.03c10.59,17.04 107.54,61 134.98,78.61l-122.18 66.52c-41.38,20.75 -78.42,39.32 -119.31,59.83 -47.57,23.85 -77.68,55.32 -123.73,31.6 -35.41,-18.25 -85,-48.95 -122.92,-56.76l-34.97 14.2 -0.04 224.45c130.44,-57.31 280.55,-140.01 411.36,-206.87l409.64 -205.27 -6.51 -6.78c-1.17,-1.19 -5.56,-5.17 -6.86,-6.64 -23.27,-26.32 -6.33,-22.58 -23.32,-50.53l-140.89 -69.5 -255.25 127.14z"/>
    <polygon class="fil2" points="4346.89,1969.72 4347.16,2289.64 4358.01,2289.03 4613.26,2161.89 4613.28,1840.16 "/>
    <path class="fil2" d="M4288.03 1656.41c-31.05,17.51 -22.44,26.17 -45.1,43.48l102.8 -48.04 1.53 298.96 265.91 -128.13 0.09 -267.02 -123.52 -0.45c-20.05,19.42 -170.75,92.64 -201.71,101.2z"/>
    <path class="fil3" d="M2797.62 3143.13l-0.31 -59.85 -904.31 -450.62c-67.08,-33.55 -244.98,-132.97 -304.36,-146.88l1.44 56.05 1207.54 601.3z"/>
    <path class="fil3" d="M85.71 1784.13l1192.58 598.67c12.36,-12.95 6.23,-0.5 10.78,-22.84 1.54,-7.56 0.3,-25.01 -0.74,-31.07l-1207.01 -602.41 4.39 57.65z"/>
    <path class="fil6" d="M456.05 1540.91l76.87 33.97 -1.33 147.25 -76.29 -34.75 0.75 -146.47zm-113.13 -58.86c23.38,10.74 63.5,19.26 75.51,45.63l0 139.71 -75.1 -34.9 -0.41 -150.44zm113.63 -134.64l75.86 35.81 -0.72 153.7 -75.56 -38.94 -0.55 -85.17 0.97 -65.4zm-113.37 -53.04c25.97,5.28 47.25,22.58 75.79,30.97l-2.14 154.47 -74.06 -41.69 0.41 -143.75zm-38.87 -43.19l0.49 15.79 -0.38 97.85 -0.12 15.79 0.09 99.08 -0.39 14.25 0.71 99.32 -0.71 15.54 0.89 41.14 263.79 132.74 0.56 -42.85 0.28 -6.78 -0.28 -108.08 0.57 -5.48 0.23 -105.87 -0.23 -9 0 -104.65 0.23 -8.99 -2.84 -25.97 -258.71 -130.24 -4.18 16.41z"/>
    <path class="fil6" d="M2458.5 2676.34l1.14 -134.87 74.71 35.39 -0.29 148.17c-12.45,-0.77 -75.55,-14.47 -75.56,-48.69zm-113.32 -57.44l0 -107.68 1.22 -25.85c23.6,9.84 63.75,21.83 74.48,47.39l0 137.27c-27.02,-7.67 -75.7,-24.33 -75.7,-51.13zm113.07 -266.43c26.16,10.52 55.87,26.21 76.5,38.64l-0.78 149.13 -75.52 -36.22 -0.2 -151.55zm-112.35 -56.58l75.34 37.15 -1.21 149.65 -74.82 -37.13 0.69 -149.67zm-39.23 -35.98l0.37 8.89 -0.03 104.42 -0.17 9.39 0.22 105.32 0.6 6.11 -0.34 107.52 0.29 7.19 0.32 46.9 264.08 128.03 1.24 -33.4 -1.02 -15.54 0.87 -99.32 -0.71 -14.26 0.43 -99.07 -0.43 -15.79 0.15 -97.85 0.14 -15.79c-4.09,-40.96 -52.59,-49.56 -125.33,-85.54 -39.02,-19.31 -99.1,-44.28 -129.72,-68.32 -12.9,7.25 -8.96,-14.3 -10.96,21.11z"/>
    <path class="fil6" d="M947.83 1783.39l75.18 38.63 -0.6 148.67 -75.01 -33.69 0.43 -153.61zm-113.91 -55.57c25.41,8.51 75.64,22.94 75.65,51.13l0.05 107.69 -1.19 27.73 -74.42 -35.38 -0.09 -151.17zm116.11 -131.9l73.53 31.71 0.26 152.32c-25.87,-8.46 -62.8,-22.18 -77.24,-44.08l3.45 -139.95zm-115.45 -58.3l75.1 40.31 -0.12 142.48c-22.09,-2 -64.46,-21.89 -75.64,-41.97l0.66 -140.82zm-38.26 198.03l-0.43 0.26 0.75 150.72c16.84,29.31 95.12,56.88 128.43,73.59 34.61,17.35 102.39,56.42 135.98,64.41l0.58 -33.39 -0.11 -14.73 -0.27 -99.05 -0.97 -12.53 0.63 -101.13 -0.63 -13.74 0.44 -100.41 -0.07 -13.16c-1.49,-38.69 -18.94,-35.16 -54.1,-52.45l-209.52 -102.56 -0.71 254.17z"/>
    <path class="fil6" d="M1967.42 2317.38l-0.05 -19.21 75.78 32.32 -0.49 151.8 -76.31 -35.93 1.07 -128.98zm-113.48 -77.08c95.3,30.41 77.75,19.94 75.41,184.88l-74.79 -33.81 -0.62 -151.07zm115.02 -133.02l75.08 33.67 -3.63 152.11 -73.15 -40.29 1.7 -145.49zm-114.7 -55.76c98.43,33.99 76.06,33.71 75.5,183.08 -25.88,-7.74 -63.26,-21.94 -75.86,-46.44l0.36 -136.64zm-38.15 -42.04l0.71 13.73 -0.54 100.41 0.03 13.16 -1.22 99.24 1.04 15.05 -0.76 98.51 0.58 15.62c0.39,62.32 14.79,49.16 125.62,104.73 45.83,22.98 92.56,48.76 136.79,67.61l2.22 -416.83 -258.36 -127.6 -6.11 16.37z"/>
    <path class="fil2" d="M2798.18 2516.12l-2.52 97.87 -223.27 -107.69 0.43 15.79 222.46 108.18 0.72 98.58 -223.61 -107.69 0.71 14.26 222.93 107.79 2.39 101.7 188.55 -91.79 0.52 -100.83c-57.94,28.45 -122.94,64.62 -184.94,92.06 -0.76,-26.4 23.46,-27 82.7,-56.69 28.75,-14.4 73.43,-41.4 103.11,-47.93l-0.43 -100.66c-38.55,22.05 -147.72,80.86 -188.59,92.46 5.39,-30.29 28.86,-29.62 86.4,-58.37 27.46,-13.73 73.8,-41.11 102.43,-47.58l1.81 -80.1 -22.02 -6.43c-45.66,13.7 -135.52,74.13 -169.78,77.07z"/>
    <path class="fil3" d="M3401.93 2763.78l-224.07 115.22 -37.64 21.39 -30.77 18.72c26.56,27.39 78.2,49.32 115.57,66.44 42.61,19.51 87.26,-18.91 125.64,-38.2 78.42,-39.41 167.16,-80.65 238.38,-119.87 -32.99,-37.51 -98.63,-48.89 -140.02,-80.24l-10.99 1.08 -36.1 15.46z"/>
    <path class="fil3" d="M2795.66 2350.82c-67.81,-46.41 -216.64,-110.46 -298.52,-151.32 -101.86,-50.83 -198.98,-99.42 -300.94,-150.55 -79.58,-39.9 -563.78,-294.45 -604.52,-296.27l-1.54 35.45 302.37 149.76c114.75,57.54 852.92,437.02 905.61,449.2l-2.46 -36.27z"/>
    <path class="fil3" d="M4305.4 2310.69c-18.5,31.92 -179.21,79.03 -214.83,114.86l-40.14 15.21c-1.3,1.27 -3.3,2.74 -4.26,3.42l-41.32 24.65c37.92,7.81 87.51,38.51 122.92,56.76 46.05,23.72 76.16,-7.75 123.73,-31.6 40.89,-20.51 77.93,-39.08 119.31,-59.83l122.18 -66.52c-27.44,-17.61 -124.39,-61.57 -134.98,-78.61l-10.85 0.61 -41.76 21.05z"/>
    <path class="fil3" d="M1282.85 1591.76l-1196.87 -602.52 -4.91 28.61c19.92,36.99 243.04,133.58 293.85,159.05l909.84 453.88 -1.91 -39.02z"/>
    <path class="fil7" d="M3433.3 2060.52l-48.57 54.24c138.99,-81.28 187.67,-111.37 379.45,-95.32l-318.73 156.56 0 -59.63c-18.85,-40.39 -15.85,-6.88 -16.03,-6.78 18.73,21.47 10.14,289.66 9.96,315.48 -0.77,106.84 2.88,216.98 -1.35,323.25l10.99 -1.08 -2.5 -3.52 -1.22 -81.74c18.09,-26.15 368.45,-199.69 411.43,-212.9l0.75 -19.74c-41.51,11.74 -365.1,178.16 -408.69,200.58l-2.76 -89.98c28,-20.31 377.63,-194.71 410.97,-204.86l0.09 -19.43 -204.71 100.44c-60.44,30.17 -145.6,79.25 -205.48,100.7l-1.51 -94.78 409.83 -201.02 1.63 -19.64c-80.23,28.54 -334.38,176.5 -411.39,201.32l1.9 -93.92c130.4,-46.02 277.02,-153.23 408.28,-201.02l0.56 -18.93c-48.72,13.25 -338.53,169.91 -411.09,200.29l3.09 -94.49c95.48,-34.48 318.63,-184.21 406.35,-178.51l-1.38 -6.1 -292.31 0.91c-44.17,-0.49 -64.82,-8.54 -83.19,7.52l56.31 -2.43 -79.39 44.81c-31.16,11.7 -15.56,8.35 -21.29,-0.28z"/>
    <path class="fil2" d="M3857.09 2315.65l-1.87 -94.66 -409.83 201.02 1.51 94.78c59.88,-21.45 145.04,-70.53 205.48,-100.7l204.71 -100.44z"/>
    <path class="fil2" d="M3446.52 2743.72l399.25 -197.02c16.96,-24.62 9.21,-57.81 10.96,-97.62 -42.98,13.21 -393.34,186.75 -411.43,212.9l1.22 81.74z"/>
    <path class="fil2" d="M3857.48 2429.34l-0.48 -94.26c-33.34,10.15 -382.97,184.55 -410.97,204.86l2.76 89.98c43.59,-22.42 367.18,-188.84 408.69,-200.58z"/>
    <path class="fil2" d="M3856.85 2201.35l-1.21 -93.62c-131.26,47.79 -277.88,155 -408.28,201.02l-1.9 93.92c77.01,-24.82 331.16,-172.78 411.39,-201.32z"/>
    <path class="fil2" d="M3856.2 2088.8l-1.65 -72.71c-87.72,-5.7 -310.87,144.03 -406.35,178.51l-3.09 94.49c72.56,-30.38 362.37,-187.04 411.09,-200.29z"/>
    <path class="fil3" d="M4754.15 2231.39c16.99,27.95 0.05,24.21 23.32,50.53 1.3,1.47 5.69,5.45 6.86,6.64l6.51 6.78c15.42,-13.41 16.29,18.11 10.97,-21.03l0 -719.59 -34.94 1.01c-9.76,49.83 -4.95,487.75 -3.67,603.78l-6.32 66.87c-0.31,-0.98 -1.55,3.52 -2.73,5.01z"/>
    <polygon class="fil3" points="2988.17,2525.58 2987.93,2539.07 2988.36,2639.73 2987.49,2652.29 2986.97,2753.12 2987.34,2766.58 2987.16,2866.96 2987.03,2879.86 2986.56,2977.86 2986.09,3165.1 3026.15,3190.44 3025.48,2461.95 2989.98,2445.48 "/>
    <path class="fil8" d="M3364.98 2181.43l0.95 111.26 -1.16 22.61 0.47 39.56 0.69 88.59 -1.16 22.61 0.17 280.43c-32.38,18.11 -71.51,36.94 -108.43,55.46 -53.75,26.95 -70.8,17.02 -78.65,77.05l224.07 -115.22 -4.96 -595.33 -31.99 12.98z"/>
    <path class="fil8" d="M4274.69 1728.2l-5.63 132.65 0.47 39.04 3.2 94.5 -1.92 19.85 1.43 282.77 -184.06 89.44 2.39 39.1c35.62,-35.83 196.33,-82.94 214.83,-114.86l0.47 -596.39 -31.18 13.9z"/>
    <path class="fil3" d="M1469.16 2224.44c1,1.5 1.9,3.75 2.29,4.91l3.73 10.67c0.43,1.96 0.81,3.86 1.14,6.03 0.58,3.78 0.85,16.26 0.92,20.54 0.23,16.4 -0.58,34.12 -0.54,50.8 0.06,32.11 5.28,67.28 -8.29,85.66 6.95,7.63 1.47,4.43 12.18,11.76l34.25 13.51 -2.69 -721.82 -34.48 -15.94c-9.46,102.8 13.79,478.11 -8.51,533.88z"/>
    <path class="fil3" d="M3856.2 2088.8l-0.56 18.93 1.21 93.62 -1.63 19.64 1.87 94.66 -0.09 19.43 0.48 94.26 -0.75 19.74c-1.75,39.81 6,73 -10.96,97.62 20.27,21.09 14.45,111.98 6.15,135.26l3.91 29.18c11.62,33.38 -5.99,9.65 29.26,33.66l14.23 -0.04c-16.65,-55.96 -4.34,-615.54 -4.24,-728.1l-40.53 -0.57 1.65 72.71z"/>
    <path class="fil3" d="M1816.28 2123.62l0.54 -100.41 -224.58 -109.02c-5.18,121.91 -27.32,86.73 106.59,153.7 38.27,19.13 76.92,42.97 117.45,55.73z"/>
    <path class="fil2" d="M3384.73 2114.76l-45.38 37.87 90.07 -43.04c0.18,-0.1 -2.82,-33.61 16.03,6.78l0 59.63 318.73 -156.56c-191.78,-16.05 -240.46,14.04 -379.45,95.32z"/>
    <polygon class="fil3" points="1815.09,2236.02 1816.31,2136.78 1591.26,2026.4 1588.63,2128.16 "/>
    <polygon class="fil3" points="1060.28,1864.93 1283.33,1973.75 1284.22,1871.63 1060.91,1763.8 "/>
    <polygon class="fil3" points="1060.28,1750.06 1282.01,1857.92 1284.15,1756.85 1060.72,1649.65 "/>
    <polygon class="fil3" points="2572.23,2734.74 2798.42,2844.91 2796.03,2743.21 2573.1,2635.42 "/>
    <polygon class="fil3" points="1061.52,1976.51 1283.61,2086.83 1284.35,1985.13 1061.25,1877.46 "/>
    <path class="fil3" d="M1583.6 2167.54c10.82,18.22 6.23,47.18 6.9,74.21l224.87 107.83 0.76 -98.51 -225.79 -107.26 -6.74 23.73z"/>
    <polygon class="fil3" points="304.71,1593.26 304,1493.94 83.2,1383.6 82.88,1485.6 "/>
    <polygon class="fil3" points="304.39,1479.69 304.3,1380.61 82.97,1270.73 82.38,1372.01 "/>
    <polygon class="fil3" points="2572.39,2506.3 2795.66,2613.99 2798.18,2516.12 2572.54,2408.45 "/>
    <polygon class="fil3" points="2572.39,2621.16 2796,2728.85 2795.28,2630.27 2572.82,2522.09 "/>
    <polygon class="fil3" points="304.42,1364.82 304.8,1266.97 83.29,1157.27 82.32,1257.14 "/>
    <path class="fil4" d="M1468.41 2403.05c13.57,-18.38 8.35,-53.55 8.29,-85.66 -0.04,-16.68 0.77,-34.4 0.54,-50.8 -0.07,-4.28 -0.34,-16.76 -0.92,-20.54 -0.33,-2.17 -0.71,-4.07 -1.14,-6.03l-3.73 -10.67c-0.39,-1.16 -1.29,-3.41 -2.29,-4.91 -31.28,11.22 -160.01,75.46 -178.3,93.2l177.55 85.41z"/>
    <path class="fil4" d="M2986.09 3165.1l0.47 -187.24 -180.64 93.33c5.4,5.42 3.88,4.54 13.18,11.16l166.99 82.75z"/>
    <path class="fil3" d="M1278.29 2382.8c38.08,17.79 290.09,159.97 311.79,159.03l41.91 -40.64 -343.66 -172.3 -10.04 53.91z"/>
    <path class="fil3" d="M2802.82 3149.17l220.6 108.77 3.86 -58.92c-82.54,-26.33 -146.59,-87.42 -230.61,-108.33l6.15 58.48z"/>
    <path class="fil9" d="M1854.56 2391.37l74.79 33.81c2.34,-164.94 19.89,-154.47 -75.41,-184.88l0.62 151.07z"/>
    <polygon class="fil9" points="455.58,1412.81 456.13,1497.98 531.69,1536.92 532.41,1383.22 456.55,1347.41 "/>
    <path class="fil9" d="M834.01 1878.99l74.42 35.38 1.19 -27.73 -0.05 -107.69c-0.01,-28.19 -50.24,-42.62 -75.65,-51.13l0.09 151.17z"/>
    <path class="fil9" d="M2458.5 2676.34c0.01,34.22 63.11,47.92 75.56,48.69l0.29 -148.17 -74.71 -35.39 -1.14 134.87z"/>
    <path class="fil9" d="M2458.45 2504.02l75.52 36.22 0.78 -149.13c-20.63,-12.43 -50.34,-28.12 -76.5,-38.64l0.2 151.55z"/>
    <path class="fil9" d="M1853.9 2188.16c12.6,24.5 49.98,38.7 75.86,46.44 0.56,-149.37 22.93,-149.09 -75.5,-183.08l-0.36 136.64z"/>
    <path class="fil9" d="M946.58 1735.87c14.44,21.9 51.37,35.62 77.24,44.08l-0.26 -152.32 -73.53 -31.71 -3.45 139.95z"/>
    <path class="fil9" d="M2345.18 2618.9c0,26.8 48.68,43.46 75.7,51.13l0 -137.27c-10.73,-25.56 -50.88,-37.55 -74.48,-47.39l-1.22 25.85 0 107.68z"/>
    <polygon class="fil9" points="1966.35,2446.36 2042.66,2482.29 2043.15,2330.49 1967.37,2298.17 1967.42,2317.38 "/>
    <polygon class="fil9" points="947.4,1937 1022.41,1970.69 1023.01,1822.02 947.83,1783.39 "/>
    <path class="fil9" d="M343.33 1632.49l75.1 34.9 0 -139.71c-12.01,-26.37 -52.13,-34.89 -75.51,-45.63l0.41 150.44z"/>
    <polygon class="fil9" points="455.3,1687.38 531.59,1722.13 532.92,1574.88 456.05,1540.91 "/>
    <polygon class="fil9" points="2345.21,2445.56 2420.03,2482.69 2421.24,2333.04 2345.9,2295.89 "/>
    <path class="fil9" d="M342.77 1438.12l74.06 41.69 2.14 -154.47c-28.54,-8.39 -49.82,-25.69 -75.79,-30.97l-0.41 143.75z"/>
    <path class="fil9" d="M833.92 1678.44c11.18,20.08 53.55,39.97 75.64,41.97l0.12 -142.48 -75.1 -40.31 -0.66 140.82z"/>
    <polygon class="fil9" points="1967.26,2252.77 2040.41,2293.06 2044.04,2140.95 1968.96,2107.28 "/>
    <path class="fil10" d="M4269.06 1860.85l5.63 -132.65c-16.27,4.77 -26.46,8.83 -40.15,15.34 -23.78,11.32 -22.12,8.72 -36.12,28.19l-0.96 120.11 71.6 -30.99z"/>
    <path class="fil4" d="M1590.19 2392.47l1.27 -21.55 -0.96 -14.31 0.32 -99.25 -0.32 -15.61c-0.67,-27.03 3.92,-55.99 -6.9,-74.21l-31.88 15.09 -0.27 228.27 38.74 -18.43z"/>
    <path class="fil10" d="M4075.34 1865.66c14.7,20.55 7.29,58.29 12.63,84.07l70.53 -37.46 0.7 -132.79c-11.97,9.94 0.76,-1.4 -12.8,11.77l-71.06 74.41z"/>
    <polygon class="fil10" points="3289.55,2330.05 3365.93,2292.69 3364.98,2181.43 3288.83,2218.33 "/>
    <polygon class="fil10" points="4082.46,1991.12 4084.87,2100.16 4158.59,2062.97 4158.6,1956.12 "/>
    <path class="fil10" d="M3173.32 2318.31l3.48 70.14 75.42 -36.11 1.83 -113.86c-26.94,18.2 -61.6,53.01 -80.73,79.83z"/>
    <path class="fil10" d="M4196.48 2027.27l76.25 -32.88 -3.2 -94.5c-17.52,5.79 -25.67,8.42 -42.42,16.63 -23.13,11.33 -21.98,7.78 -30.65,27.55l0.02 83.2z"/>
    <polygon class="fil10" points="3176.65,2540.07 3252.3,2502.85 3252.13,2409.58 3177.84,2444.33 "/>
    <polygon class="fil10" points="3289.54,2482.58 3365.93,2443.45 3365.24,2354.86 3289.85,2389.08 "/>
    <path class="fil7" d="M4288.03 1656.41c30.96,-8.56 181.66,-81.78 201.71,-101.2 -179.43,-1.05 -102.58,8.16 -176.11,73.94 -22.83,20.42 -10.6,0.47 -25.6,27.26z"/>
    <polygon class="fil7" points="4347.26,1950.81 4346.89,1969.72 4613.28,1840.16 4613.17,1822.68 "/>
    <path class="fil7" d="M2987.93 2539.07l0.24 -13.49c-28.63,6.47 -74.97,33.85 -102.43,47.58 -57.54,28.75 -81.01,28.08 -86.4,58.37 40.87,-11.6 150.04,-70.41 188.59,-92.46z"/>
    <path class="fil7" d="M2987.03 2879.86l0.13 -12.9c-30.88,6.87 -164.83,72.37 -189.7,96.54 19.47,8.45 24.71,1.65 50.21,-11.69 16.83,-8.8 31.57,-15.91 47.65,-24.01 30.67,-15.44 61.05,-28.36 91.71,-47.94z"/>
    <path class="fil2" d="M569.24 1739.83c50.54,29.49 162.11,89.9 220.54,111.08 -11.4,-29.7 -196.45,-114.47 -220.26,-117.86l-0.28 6.78z"/>
    <polygon class="fil2" points="1590.82,2257.36 1815.95,2365.2 1815.37,2349.58 1590.5,2241.75 "/>
    <path class="fil2" d="M2307.61 2608.75l-0.29 -7.19c-58.52,-33.44 -153.67,-83.65 -219.51,-111.08 6.14,24.59 20.35,23.77 46.71,36.32 38.72,18.43 146.68,78.09 173.09,81.95z"/>
    <path class="fil7" d="M1287.15 2209.7c18.9,4.79 174.23,-67.28 186.36,-100.95l-142.11 68.67c-28.38,13.55 -34.2,12.48 -44.25,32.28z"/>
    <path class="fil7" d="M2987.49 2652.29l0.87 -12.56c-29.68,6.53 -74.36,33.53 -103.11,47.93 -59.24,29.69 -83.46,30.29 -82.7,56.69 62,-27.44 127,-63.61 184.94,-92.06z"/>
    <polygon class="fil2" points="2573.25,2750.28 2799.07,2857.51 2798.42,2844.91 2572.23,2734.74 "/>
    <path class="fil7" d="M2798.18 2516.12c34.26,-2.94 124.12,-63.37 169.78,-77.07l-24.17 -14.71c-17.69,19.49 -51.93,31.49 -77.17,43.82 -14.15,6.91 -30.41,13.81 -43.71,21.08 -25.38,13.88 -14.65,2.44 -24.73,26.88z"/>
    <path class="fil7" d="M2798.42 2844.91l0.65 12.6c21.31,-1.25 159.96,-77.8 188.27,-90.93l-0.37 -13.46 -188.55 91.79z"/>
    <path class="fil2" d="M569.81 1399.97l111.15 57.18c37.52,18.82 72.52,37.36 108.73,53.58 -7.75,-26.85 -202.19,-115.05 -219.65,-119.75l-0.23 8.99z"/>
    <path class="fil7" d="M1285.94 1865.1l98.48 -36.12c54.59,-27.71 78.25,-30.7 89.53,-61.72 -34.03,12.42 -168.17,77.46 -188.01,97.84z"/>
    <path class="fil2" d="M2306.84 2382.61l0.17 -9.39 -218.91 -111.08c6.8,25.99 77.33,52.5 102.2,64.99 33.78,16.96 82.47,45.45 116.54,55.48z"/>
    <path class="fil2" d="M2307.04 2268.8l-0.37 -8.89 -218.26 -111.05c3.59,24.18 20.03,24.67 43.41,35.77 21.01,9.98 37.06,18.24 57.7,28.6 26.03,13.07 93.94,51.02 117.52,55.57z"/>
    <path class="fil2" d="M570.04 1513.62l218.52 111.08c-3.28,-25.24 -25.8,-26.99 -48.85,-38.35l-169.9 -81.73 0.23 9z"/>
    <path class="fil7" d="M1449.13 1677.11l-17.48 -14.01c-20.47,31.42 -103.26,53.42 -136.2,78.58l-9.14 8.55c16.05,6.33 -20.64,12.07 21.27,2.36l141.55 -75.48z"/>
    <path class="fil2" d="M2307.66 2494.04l-0.6 -6.11 -219.39 -111.31c8.9,25.88 78.46,51.53 104.03,64.2 26.45,13.11 90.16,49.56 115.96,53.22z"/>
    <path class="fil2" d="M3433.3 2060.52c5.73,8.63 -9.87,11.98 21.29,0.28l79.39 -44.81 -56.31 2.43 -44.37 42.1z"/>
    <polygon class="fil11" points="3289.55,2330.05 3291.28,2350.33 3364.77,2315.3 3365.93,2292.69 "/>
    <polygon class="fil11" points="3289.54,2482.58 3291.37,2501.09 3364.77,2466.06 3365.93,2443.45 "/>
    <path class="fil2" d="M569.24 1624.97c26.6,15.52 204.02,110.21 226.65,110.94l0.43 -0.26 -226.51 -116.16 -0.57 5.48z"/>
    <polygon class="fil11" points="4196.48,2027.27 4195.9,2046.48 4270.81,2014.24 4272.73,1994.39 "/>
    <path class="fil7" d="M3139.8 2693.66l-0.78 -19.21c-28.1,10.5 -65.85,20.69 -73.71,52.51l74.49 -33.3z"/>
    <path class="fil7" d="M3139.48 2466.41l-0.23 -19.65c-28.43,12.34 -63.48,21.06 -74.03,54.12l74.26 -34.47z"/>
    <polygon class="fil11" points="3176.65,2540.07 3180.17,2555.92 3250.73,2523.13 3252.3,2502.85 "/>
    <path class="fil7" d="M3139.69 2579.66l-0.51 -18.62c-26.52,10.33 -64.45,22.12 -73.87,51.95l74.38 -33.33z"/>
    <polygon class="fil11" points="3176.8,2388.45 3180.15,2404.07 3249.47,2371.2 3252.22,2352.34 "/>
    <path class="fil7" d="M2853.35 2381.91l-22.13 -15.05c-21.51,26.6 -19.04,2.96 -32.77,37.86l54.9 -22.81z"/>
    <path class="fil7" d="M1553.99 1852.26c7.12,-0.57 9.14,1.89 19.03,-5.29 14.64,-10.62 7.82,-3.27 13.87,-22.03 -22.29,7.91 -30.28,5.58 -32.9,27.32z"/>
    <path class="fil7" d="M1553.04 2081.92c28.52,-9.68 23.47,-2.39 31.09,-30.6 -26.83,12.49 -21.82,3.05 -31.09,30.6z"/>
    <polygon class="fil12" points="1590.19,2392.47 1514.84,2428.32 1591.37,2469.73 1591.37,2469.73 "/>
   </g>
   <polygon class="fil13" points="3248.08,3301.99 4995.32,2387.75 4841.44,2352.25 3023.42,3257.94 "/>
  </g>
 </g>
</svg>
