<?xml version="1.0" encoding="UTF-8"?>
<!DOCTYPE svg PUBLIC "-//W3C//DTD SVG 1.1//EN" "http://www.w3.org/Graphics/SVG/1.1/DTD/svg11.dtd">
<!-- Creator: CorelDRAW -->
<svg xmlns="http://www.w3.org/2000/svg" xml:space="preserve" width="41.0632mm" height="33.4432mm" version="1.1" style="shape-rendering:geometricPrecision; text-rendering:geometricPrecision; image-rendering:optimizeQuality; fill-rule:evenodd; clip-rule:evenodd"
viewBox="0 0 4106.32 3344.32"
 xmlns:xlink="http://www.w3.org/1999/xlink"
 xmlns:xodm="http://www.corel.com/coreldraw/odm/2003">
 <defs>
  <style type="text/css">
   <![CDATA[
    .str0 {stroke:#4B4B4D;stroke-width:20;stroke-miterlimit:22.9256}
    .fil6 {fill:#4B4B4D}
    .fil7 {fill:#272C2E}
    .fil4 {fill:#3A1502}
    .fil0 {fill:#531F04}
    .fil2 {fill:#913609}
    .fil1 {fill:#B4B4B4}
    .fil3 {fill:#E0E0E0}
    .fil5 {fill:#4B4B4D;fill-opacity:0.200000}
   ]]>
  </style>
 </defs>
 <g id="Camada_x0020_1">
  <metadata id="CorelCorpID_0Corel-Layer"/>
  <g id="_3134804379440">
   <path class="fil0" d="M2923.95 1588.73c52.48,-29.72 119.4,-61.59 172.89,-88.51 29.02,-14.61 54.46,-27.02 88.02,-43.62 29.56,-14.61 55.99,-32.18 91.62,-43.42l-0.05 343.55c-5.61,19.7 -327.98,177.1 -352.94,184.12l0.46 -352.12zm-600.41 1653.92l6.55 -5.9 -0.22 -141.99 163.66 -84.39c1.99,-0.62 4.13,-0.99 6.12,-1.59 30.71,-9.31 58.5,-26.05 88.53,-40.98 58.09,-28.9 56.71,-40.72 88.39,-50.01l0.32 -707.46 845.45 -424.42 -1.78 849.05 10.04 -0.73 4.01 -150.33c3.41,-1.09 6.39,-4.47 7.37,-2.72l17.38 -6.9c10.38,-3.84 9.78,-2.77 21.19,-7.8 12.64,-5.57 26.02,-13.24 40.45,-20.53 70.62,-35.67 194.19,-107.38 255.43,-124.75 -0.42,-221.44 -1.75,-443.85 0.21,-665.2 0.6,-67.73 -0.89,-50.66 -45.91,-118.79 -33,-49.96 -190.46,-296.66 -204.97,-302.74l-197.47 -7.21c-9.56,-0.22 -19.18,-0.09 -28.51,-0.27l-303.65 -11.72 -440.2 459.15c-9.37,9.92 -13.1,14.93 -21.57,24.24 -100.69,110.58 -98.35,143.92 -164.88,322.14l-138.34 347.96c-17.05,47.03 -7.63,115.64 -7.63,169.28 0,233.26 -5.11,472.09 0.03,704.61z"/>
   <path class="fil1" d="M2242.73 2421.54c19.72,58.23 7.7,343.62 7.7,425.93l0.52 379.51c-4.03,47.47 -4.86,34.38 -16.85,41.08 29.72,12.81 60.49,-8.85 89.44,-25.41 -5.14,-232.52 -0.03,-471.35 -0.03,-704.61 0,-53.64 -9.42,-122.25 7.63,-169.28l138.34 -347.96c66.53,-178.22 64.19,-211.56 164.88,-322.14 8.47,-9.31 12.2,-14.32 21.57,-24.24l440.2 -459.15 303.65 11.72c9.33,0.18 18.95,0.05 28.51,0.27l197.47 7.21c14.51,6.08 171.97,252.78 204.97,302.74 45.02,68.13 46.51,51.06 45.91,118.79 -1.96,221.35 -0.63,443.76 -0.21,665.2l0.28 139.29c26.35,-13.12 49.66,-20.06 71.11,-39.8 0,-262.36 -2.06,-525.76 0.3,-787.99 0.75,-82.44 -18.54,-88.21 -54.72,-142.78l-153.76 -231.93c-22.03,-32.84 -51.29,-91.86 -82.74,-112.87l-505.21 -0.27c-41.5,-0.37 -42.15,-5.92 -68.02,16.46l-544.08 550.97c-20.38,30.85 -167.13,413.09 -193.22,478.53l-72.34 182.35c-2.3,6.19 -7.96,23.16 -10.67,27.86 -12.73,22.1 1,10.77 -20.63,20.52z"/>
   <path class="fil1" d="M2745.18 2992.84c41.64,-79.62 109.21,-170.66 159.95,-247.3 26.93,-40.69 51.94,-78.46 79.87,-120.69l79.38 -114.32 1.41 320.35c-51.89,33.61 -262.05,141.38 -320.61,161.96zm391.75 -522.68c60.75,22.05 267.15,127.45 321.12,163.78l-322.91 161.06 1.79 -324.84zm-425.22 -213.73c40.8,12.06 333.95,158.81 352.43,181.05 -8.64,36.46 -247.17,385.5 -304.02,471.64l-48.18 63.69 -0.23 -716.38zm425.22 157.84c3.86,-42.22 139.33,-228.31 171.1,-276.3l180.07 -265.37 -1.17 721.29 -350 -179.62zm-397.89 -198.77c72.94,-42.21 253.89,-137.6 325.57,-161.42l-1.99 326.18 -323.58 -164.76zm714.95 -356.13l-318.35 474.72 0.42 -319.8 317.93 -154.92zm-777.42 1058.42l1.02 147.28c64.61,-38.29 146.87,-73.89 214.82,-108.14 70.2,-35.38 139.19,-69.46 210.42,-105.35 72.18,-36.37 138.18,-71.79 208.07,-106.72 44.78,-22.39 179.77,-82.6 209.66,-109.9l1.78 -849.05 -845.45 424.42 -0.32 707.46z"/>
   <path class="fil0" d="M2711.94 2972.81l48.18 -63.69c56.85,-86.14 295.38,-435.18 304.02,-471.64 -18.48,-22.24 -311.63,-168.99 -352.43,-181.05l0.23 716.38z"/>
   <path class="fil0" d="M3136.93 2414.27l350 179.62 1.17 -721.29 -180.07 265.37c-31.77,47.99 -167.24,234.08 -171.1,276.3z"/>
   <path class="fil2" d="M173.38 2087.62l138.97 67.11 -0.08 -708.87 -141.11 -69.53c-8.08,87.83 -11.96,645.52 2.22,711.29z"/>
   <path class="fil2" d="M1939.41 2977.86l138.16 65.78 -0.41 -708.19 -140.97 -70.09c-6.84,86.41 -11.02,654.76 3.22,712.5z"/>
   <path class="fil2" d="M696.29 1845.99c14.7,17.41 16.45,15.95 38.98,23.46l0.11 356.18 -41.3 -13.76 4.39 143.74c34.69,5.36 109.68,47.91 143.46,68.26l0.23 -709.38 -140.56 -68.91 -5.31 200.41z"/>
   <path class="fil2" d="M1404.88 2711.72c36.07,4.87 109.02,46.53 143.02,68l0.41 -102.6c3.73,-37.04 -3.61,-12.47 9.36,-31.56l-45.98 -30.16 0.34 -346.66 42.29 13.88c-13.89,-52.74 -5.71,-153.62 -5.66,-212.3l-140.44 -69.02 -3.34 710.42z"/>
   <path class="fil2" d="M879.87 2443.62l138.63 66.56 0.9 -138 -71.07 -36.84 -1.12 -352.19 70.76 30.61 0.94 -212.27 -141.73 -69.6c-7.5,80.48 -10.59,656.62 2.69,711.73z"/>
   <polygon class="fil2" points="1230.55,2121.03 1299.98,2156.8 1299.52,2510.89 1231.01,2480.57 1233.01,2621.72 1371.5,2687.95 1371.94,1979.49 1230.11,1909.75 "/>
   <path class="fil3" d="M561.64 1990.54c33.83,53.15 81.2,115.74 108.42,168.1 -36.91,-13.76 -77.38,-37.66 -112.48,-55.35l-110.85 -59.78 114.91 -52.97zm138.26 -69.65l-2.46 227.42 -111.19 -173.79 113.65 -53.63zm-278.91 -139.23l109.99 170.21 -113.01 56.9 3.02 -227.11zm135.69 153.48l-107.25 -169.72 218.46 115.08c-27.73,22.56 -80.02,48.61 -111.21,54.64zm-59.47 178.34l27.42 11.24 141.37 69.79 28.08 17.36 41.3 13.76 -0.11 -356.18c-22.53,-7.51 -24.28,-6.05 -38.98,-23.46l-30.51 -10.97 -141.99 -69.16 -29.5 -17.21 -111.67 -48.84 -0.41 348.34c16.92,10.17 39.67,22.05 60.05,32.08 10.4,5.11 20.95,9.48 30.83,15.28l24.12 17.97z"/>
   <path class="fil1" d="M3099.82 1704.19l112.57 58.36 -224.52 110.25 111.95 -168.61zm-137.84 -68.01c27.32,13.79 88.86,39.93 109.22,58.66 -18.42,33.4 -34.24,54.57 -55.49,87.09l-39.86 60.66c-1.08,1.34 -2.77,3.28 -3.8,4.47l-13.68 12.99 3.61 -223.87zm278.66 -144.89l-1.37 229.74 -112.32 -58.38 113.69 -171.36zm-30.67 -5.49l-111.65 164.1c-35.38,-12.3 -84.82,-33 -107.84,-57.49l219.49 -106.61zm-286.02 102.93l-0.46 352.12c24.96,-7.02 347.33,-164.42 352.94,-184.12l0.05 -343.55c-35.63,11.24 -62.06,28.81 -91.62,43.42 -33.56,16.6 -59,29.01 -88.02,43.62 -53.49,26.92 -120.41,58.79 -172.89,88.51z"/>
   <path class="fil3" d="M1578.83 2616.73l114 -60.98c18.59,53.21 78.92,118.77 105.44,172.31l-219.44 -111.33zm138.62 -70.95l110.96 -57.4 0.86 227.37c-25.05,-31.46 -97.49,-135.48 -111.82,-169.97zm-167.01 -198.67l108.99 167.72c-23.5,25.63 -76.65,42.77 -112.18,59.09l3.19 -226.81zm142.1 157.45c-20.86,-19.75 -98.83,-137.95 -112.76,-169.98l221.15 110.45c-26.68,25.99 -74.59,40.39 -108.39,59.53zm-134.87 141l26.88 12.67 141.11 69.99 28.45 17.44 109.62 49.49 0.83 -357.3c-36.97,-13.58 -86.64,-32.11 -108.67,-57.96l-30.68 -10.91 -141.94 -69.13 -28.95 -17.23 -42.29 -13.88 -0.34 346.66 45.98 30.16z"/>
   <path class="fil3" d="M1012.58 2331.5c20.16,-16.45 82.4,-48.29 111.62,-55.05 20.24,24.61 97.68,139.91 104.98,165.28l-216.6 -110.23zm137.97 -69.73c25.3,-16.51 80.84,-44.04 114.21,-56.57l-5.08 223.68 -109.13 -167.11zm-168.42 -192.65l62.94 84.57c16.35,24.74 40.64,55.48 50.51,82.41l-113.23 51.88 -0.22 -218.86zm32.18 -19.03l222.93 114.83 -114.99 54.7 -107.94 -169.53zm5.09 322.09l28.02 17.61c50.14,14.76 121.18,46.05 156.49,79.07l27.1 11.71 68.51 30.32 0.46 -354.09 -69.43 -35.77 -29.57 -17.21c-30.75,-10.29 -55.3,-24.27 -83.71,-38.29 -12.14,-5.99 -23.43,-10.91 -36.29,-17.47 -22.12,-11.28 -19.27,-7.79 -33.15,-23.69l-29.86 -10.61 -70.76 -30.61 1.12 352.19 71.07 36.84z"/>
   <path class="fil2" d="M1755.89 2379.89c22.03,25.85 71.7,44.38 108.67,57.96l-0.83 357.3 -109.62 -49.49 3.77 144.3c34.31,3.85 110.37,46.15 143.03,67.53l1.16 -709.45 -140.47 -69.04 -5.71 200.89z"/>
   <path class="fil2" d="M345.19 2177.65c35.79,6.08 108.71,47.79 143.7,68.45 1.2,-38.48 -10,-103.33 8.32,-132.62l-24.12 -17.97c-9.88,-5.8 -20.43,-10.17 -30.83,-15.28 -20.38,-10.03 -43.13,-21.91 -60.05,-32.08l0.41 -348.34 111.67 48.84 -5.49 -211.97 -140.54 -68.97 -3.07 709.94z"/>
   <polygon class="fil3" points="64.17,2175.78 64.61,2038.84 64.71,1323.23 -4.21,1290.78 -4.23,2141.95 "/>
   <path class="fil3" d="M2182.29 3241.96l51.81 26.1c11.99,-6.7 12.82,6.39 16.85,-41.08l-0.52 -379.51c0,-82.31 12.02,-367.7 -7.7,-425.93l-58.97 -30.94 -1.47 851.36z"/>
   <path class="fil0" d="M2745.18 2992.84c58.56,-20.58 268.72,-128.35 320.61,-161.96l-1.41 -320.35 -79.38 114.32c-27.93,42.23 -52.94,80 -79.87,120.69 -50.74,76.64 -118.31,167.68 -159.95,247.3z"/>
   <path class="fil0" d="M2739.04 2215.5l323.58 164.76 1.99 -326.18c-71.68,23.82 -252.63,119.21 -325.57,161.42z"/>
   <path class="fil0" d="M3135.14 2795l322.91 -161.06c-53.97,-36.33 -260.37,-141.73 -321.12,-163.78l-1.79 324.84z"/>
   <polygon class="fil0" points="3136.06,2014.29 3135.64,2334.09 3453.99,1859.37 "/>
   <path class="fil2" d="M64.61 2038.84c25.82,0.4 48.26,16.05 71.35,29.34l-0.16 -709.51 -71.09 -35.44 -0.1 715.61z"/>
   <path class="fil2" d="M2113.59 3070.64l2.22 -6.53c38.34,11.62 54.11,10.11 56.67,53.11 2.38,39.86 -1.56,79.42 1.81,120.63l8 4.11 1.47 -851.36 -69.15 -33.46 -1.02 713.5z"/>
   <path class="fil4" d="M2330.09 3236.75l347.5 -171.68 -1.02 -147.28c-31.68,9.29 -30.3,21.11 -88.39,50.01 -30.03,14.93 -57.82,31.67 -88.53,40.98 -1.99,0.6 -4.13,0.97 -6.12,1.59l-163.66 84.39 0.22 141.99z"/>
   <path class="fil4" d="M3530.6 2634.23l346.11 -173.74 -0.28 -139.29c-61.24,17.37 -184.81,89.08 -255.43,124.75 -14.43,7.29 -27.81,14.96 -40.45,20.53 -11.41,5.03 -10.81,3.96 -21.19,7.8l-17.38 6.9c-0.98,-1.75 -3.96,1.63 -7.37,2.72l-4.01 150.33z"/>
   <path class="fil0" d="M1939.41 2977.86l-0.23 124.89c-8.83,8.63 12.02,11.47 -13.52,5.88 35.72,35.41 103.14,59.33 150.18,80.68l-1.69 -135.18 39.44 16.51 1.02 -713.5 -37.45 -21.69 0.41 708.19 -138.16 -65.78z"/>
   <path class="fil0" d="M1233.01 2621.72l-0.2 117.45c-5.95,19.86 6.2,11.32 -13.84,13.3 20.73,21.39 117.72,66.79 151.91,79.96l-2.99 -134.07c18.39,4.4 2.42,0.14 15.67,5.04 21.06,7.8 -2.38,0.13 21.32,8.32l3.34 -710.42 -36.28 -21.81 -0.44 708.46 -138.49 -66.23z"/>
   <path class="fil0" d="M173.38 2087.62c-0.38,23.88 -0.41,47.62 0.01,71.54 0.11,6.46 0.42,33.77 -0.49,38.51 -5.64,29.43 10.1,10.07 -12.01,25.41l150.04 76.45 -2.44 -134.44c16.53,3.98 22.11,8.02 36.7,12.56l3.07 -709.94 -35.99 -21.85 0.08 708.87 -138.97 -67.11z"/>
   <path class="fil0" d="M698.47 2355.61l2.15 139.33 137.15 70.52 0.63 -136.11c19.42,6.63 24.69,10.83 41.47,14.27 -13.28,-55.11 -10.19,-631.25 -2.69,-711.73l-35.02 -17.4 -0.23 709.38c-33.78,-20.35 -108.77,-62.9 -143.46,-68.26z"/>
   <path class="fil0" d="M1757.88 2889.96c8.89,32.19 14.26,107.47 -1.77,132.95 23.76,25.52 113.51,64.83 150.87,78.29 -18.09,-39.22 -9.23,-95.02 -9.23,-139.35 22.56,8.62 22.25,11.28 41.66,16.01 -14.24,-57.74 -10.06,-626.09 -3.22,-712.5l-34.12 -17.32 -1.16 709.45c-32.66,-21.38 -108.72,-63.68 -143.03,-67.53z"/>
   <path class="fil0" d="M64.61 2038.84l-0.44 136.94 67.65 33.16 0.4 -134.36c18.04,5.63 24.97,10.05 41.16,13.04 -14.18,-65.77 -10.3,-623.46 -2.22,-711.29l-35.36 -17.66 0.16 709.51c-23.09,-13.29 -45.53,-28.94 -71.35,-29.34z"/>
   <path class="fil2" d="M1047.83 2024.37c13.88,15.9 11.03,12.41 33.15,23.69 12.86,6.56 24.15,11.48 36.29,17.47 28.41,14.02 52.96,28 83.71,38.29 -13.01,-50.95 -5.03,-153.84 -5.66,-211.4l-140.33 -69.04 -7.16 200.99z"/>
   <polygon class="fil2" points="523.79,1765.86 665.78,1835.02 665.67,1623.66 524.08,1554.16 "/>
   <polygon class="fil2" points="1583.27,2299.85 1725.21,2368.98 1724.35,2157.39 1583.45,2087.64 "/>
   <path class="fil0" d="M345.19 2177.65l2.44 139.08 137.15 70.5 0.53 -134.99c18.38,5.91 25.09,10.36 41.39,13.28l-2.07 -140.8 -27.42 -11.24c-18.32,29.29 -7.12,94.14 -8.32,132.62 -34.99,-20.66 -107.91,-62.37 -143.7,-68.45z"/>
   <path class="fil0" d="M1404.88 2711.72c8.22,32.71 14.04,107.23 -1.8,133.08 23.23,25.18 113.42,64.95 150.4,78.51 -17.41,-39.62 -8.82,-94.78 -8.82,-139.12 20.4,7.81 24.02,11.69 41.69,15.46l-1.8 -141.42 -26.88 -12.67c-12.97,19.09 -5.63,-5.48 -9.36,31.56l-0.41 102.6c-34,-21.47 -106.95,-63.13 -143.02,-68z"/>
   <path class="fil0" d="M1051.68 2533.67c7.99,32.47 14.29,106.31 -1.51,132.72 21.91,24.8 114.4,65.76 150.81,78.72 -18.17,-38.64 -9.29,-94.21 -9.29,-138.1 22.78,8.06 20.85,10.35 41.32,14.71l-2 -141.15 -27.1 -11.71c-18.76,28.45 -7.72,94.11 -8.94,132.94 -32.95,-20.26 -109.34,-63.22 -143.29,-68.13z"/>
   <path class="fil0" d="M879.87 2443.62l-0.35 125.36c-9.22,8.41 12.5,13.45 -13.28,5.09 21.41,28.05 116.87,70.82 152.28,79.94l-3.68 -133.39c17.21,4 22.39,8.15 36.84,13.05l-4.26 -143.88 -28.02 -17.61 -0.9 138 -138.63 -66.56z"/>
   <path class="fil0" d="M526.7 2265.52l-0.26 125.54c-9.48,8.08 13.05,14.22 -13.23,4.64 19.25,26.25 116.82,68.18 150.87,82.02l-2.29 -135.02c16.85,3.98 22,8.07 36.68,12.91l-4.39 -143.74 -28.08 -17.36 -0.6 137.87 -138.7 -66.86z"/>
   <path class="fil0" d="M1586.35 2799.65l-0.25 125.18c-9.04,9.57 12.5,13.05 -14.22,6.24l152.2 79.41 -2.9 -134.46c18.05,4.57 2.66,0.26 15.67,5.29 1.27,0.5 3.71,1.51 5.08,2.06l15.95 6.59 -3.77 -144.3 -28.45 -17.44 -0.84 137.64 -138.47 -66.21z"/>
   <path class="fil2" d="M1051.68 2533.67c33.95,4.91 110.34,47.87 143.29,68.13 1.22,-38.83 -9.82,-104.49 8.94,-132.94 -35.31,-33.02 -106.35,-64.31 -156.49,-79.07l4.26 143.88z"/>
   <polygon class="fil2" points="1586.35,2799.65 1724.82,2865.86 1725.66,2728.22 1584.55,2658.23 "/>
   <polygon class="fil2" points="526.7,2265.52 665.4,2332.38 666,2194.51 524.63,2124.72 "/>
   <path class="fil2" d="M1692.54 2504.56c33.8,-19.14 81.71,-33.54 108.39,-59.53l-221.15 -110.45c13.93,32.03 91.9,150.23 112.76,169.98z"/>
   <path class="fil2" d="M1717.45 2545.78c14.33,34.49 86.77,138.51 111.82,169.97l-0.86 -227.37 -110.96 57.4z"/>
   <path class="fil2" d="M446.73 2043.51l110.85 59.78c35.1,17.69 75.57,41.59 112.48,55.35 -27.22,-52.36 -74.59,-114.95 -108.42,-168.1l-114.91 52.97z"/>
   <path class="fil0" d="M2958.37 1860.05l13.68 -12.99c1.03,-1.19 2.72,-3.13 3.8,-4.47l39.86 -60.66c21.25,-32.52 37.07,-53.69 55.49,-87.09 -20.36,-18.73 -81.9,-44.87 -109.22,-58.66l-3.61 223.87z"/>
   <path class="fil2" d="M1012.58 2331.5l216.6 110.23c-7.3,-25.37 -84.74,-140.67 -104.98,-165.28 -29.22,6.76 -91.46,38.6 -111.62,55.05z"/>
   <path class="fil2" d="M1547.25 2573.92c35.53,-16.32 88.68,-33.46 112.18,-59.09l-108.99 -167.72 -3.19 226.81z"/>
   <path class="fil2" d="M982.35 2287.98l113.23 -51.88c-9.87,-26.93 -34.16,-57.67 -50.51,-82.41l-62.94 -84.57 0.22 218.86z"/>
   <polygon class="fil0" points="3126.95,1662.65 3239.27,1721.03 3240.64,1491.29 "/>
   <path class="fil2" d="M556.68 1935.14c31.19,-6.03 83.48,-32.08 111.21,-54.64l-218.46 -115.08 107.25 169.72z"/>
   <path class="fil2" d="M1150.55 2261.77l109.13 167.11 5.08 -223.68c-33.37,12.53 -88.91,40.06 -114.21,56.57z"/>
   <polygon class="fil2" points="586.25,1974.52 697.44,2148.31 699.9,1920.89 "/>
   <polygon class="fil0" points="2987.87,1872.8 3212.39,1762.55 3099.82,1704.19 "/>
   <polygon class="fil2" points="417.97,2008.77 530.98,1951.87 420.99,1781.66 "/>
   <polygon class="fil2" points="1122.25,2219.62 1237.24,2164.92 1014.31,2050.09 "/>
   <path class="fil2" d="M1798.27 2728.06c-26.52,-53.54 -86.85,-119.1 -105.44,-172.31l-114 60.98 219.44 111.33z"/>
   <path class="fil0" d="M2990.48 1592.41c23.02,24.49 72.46,45.19 107.84,57.49l111.65 -164.1 -219.49 106.61z"/>
   <path class="fil0" d="M2114 3206.33l60.29 31.52c-3.37,-41.21 0.57,-80.77 -1.81,-120.63 -2.56,-43 -18.33,-41.49 -56.67,-53.11l-1.81 142.22z"/>
   <path class="fil0" d="M1554.32 2282.62l28.95 17.23 0.18 -212.21 -34.79 -17.32c-0.05,58.68 -8.23,159.56 5.66,212.3z"/>
   <path class="fil0" d="M1200.98 2103.82l29.57 17.21 -0.44 -211.28 -34.79 -17.33c0.63,57.56 -7.35,160.45 5.66,211.4z"/>
   <polygon class="fil0" points="1725.21,2368.98 1755.89,2379.89 1761.6,2179 1724.35,2157.39 "/>
   <polygon class="fil0" points="665.78,1835.02 696.29,1845.99 701.6,1645.58 665.67,1623.66 "/>
   <polygon class="fil0" points="1017.97,2013.76 1047.83,2024.37 1054.99,1823.38 1018.91,1801.49 "/>
   <polygon class="fil0" points="494.29,1748.65 523.79,1765.86 524.08,1554.16 488.8,1536.68 "/>
   <path class="fil4" d="M1553.48 2923.31l18.4 7.76c26.72,6.81 5.18,3.33 14.22,-6.24l0.25 -125.18c-17.67,-3.77 -21.29,-7.65 -41.69,-15.46 0,44.34 -8.59,99.5 8.82,139.12z"/>
   <path class="fil4" d="M484.78 2387.23c26.85,17.33 1.07,5.53 28.43,8.47 26.28,9.58 3.75,3.44 13.23,-4.64l0.26 -125.54c-16.3,-2.92 -23.01,-7.37 -41.39,-13.28l-0.53 134.99z"/>
   <path class="fil4" d="M1906.98 3101.2l18.68 7.43c25.54,5.59 4.69,2.75 13.52,-5.88l0.23 -124.89c-19.41,-4.73 -19.1,-7.39 -41.66,-16.01 0,44.33 -8.86,100.13 9.23,139.35z"/>
   <path class="fil4" d="M837.77 2565.46l28.47 8.61c25.78,8.36 4.06,3.32 13.28,-5.09l0.35 -125.36c-16.78,-3.44 -22.05,-7.64 -41.47,-14.27l-0.63 136.11z"/>
   <path class="fil4" d="M131.82 2208.94l29.07 14.14c22.11,-15.34 6.37,4.02 12.01,-25.41 0.91,-4.74 0.6,-32.05 0.49,-38.51 -0.42,-23.92 -0.39,-47.66 -0.01,-71.54 -16.19,-2.99 -23.12,-7.41 -41.16,-13.04l-0.4 134.36z"/>
   <path class="fil4" d="M1200.98 2745.11l17.99 7.36c20.04,-1.98 7.89,6.56 13.84,-13.3l0.2 -117.45c-20.47,-4.36 -18.54,-6.65 -41.32,-14.71 0,43.89 -8.88,99.46 9.29,138.1z"/>
   <path class="fil4" d="M1724.08 3010.48l32.03 12.43c16.03,-25.48 10.66,-100.76 1.77,-132.95l-15.95 -6.59c-1.37,-0.55 -3.81,-1.56 -5.08,-2.06 -13.01,-5.03 2.38,-0.72 -15.67,-5.29l2.9 134.46z"/>
   <path class="fil4" d="M1370.88 2832.43l32.2 12.37c15.84,-25.85 10.02,-100.37 1.8,-133.08 -23.7,-8.19 -0.26,-0.52 -21.32,-8.32 -13.25,-4.9 2.72,-0.64 -15.67,-5.04l2.99 134.07z"/>
   <path class="fil4" d="M1018.52 2654.01l31.65 12.38c15.8,-26.41 9.5,-100.25 1.51,-132.72 -14.45,-4.9 -19.63,-9.05 -36.84,-13.05l3.68 133.39z"/>
   <polygon class="fil4" points="2075.84,3189.31 2114,3206.33 2115.81,3064.11 2113.59,3070.64 2074.15,3054.13 "/>
   <path class="fil4" d="M664.08 2477.72l36.54 17.22 -2.15 -139.33c-14.68,-4.84 -19.83,-8.93 -36.68,-12.91l2.29 135.02z"/>
   <path class="fil4" d="M310.93 2299.53l36.7 17.2 -2.44 -139.08c-14.59,-4.54 -20.17,-8.58 -36.7,-12.56l2.44 134.44z"/>
   <polygon class="fil5" points="890.77,2687.95 2234.1,3268.06 3947.83,2420.68 4102.1,2477.16 2425.51,3348.56 2234.1,3268.06 "/>
   <path class="fil6 str0" d="M-4.21 1290.78l68.92 32.45 71.09 35.44 35.36 17.66 141.11 69.53 35.99 21.85 140.54 68.97 35.28 17.48 141.59 69.5 35.93 21.92 140.56 68.91 35.02 17.4 141.73 69.6 36.08 21.89 140.33 69.04 34.79 17.33 141.83 69.74 36.28 21.81 140.44 69.02 34.79 17.32 140.9 69.75 37.25 21.61 140.47 69.04 34.12 17.32 140.97 70.09 37.45 21.69 69.15 33.46 58.97 30.94c21.63,-9.75 7.9,1.58 20.63,-20.52 2.71,-4.7 8.37,-21.67 10.67,-27.86l72.34 -182.35c26.09,-65.44 172.84,-447.68 193.22,-478.53l561.97 -564.28 -2280.54 -1120.08 0 0c-32.82,31.33 -62.69,64.51 -95.18,97.67 -63.91,65.24 -122.42,126.29 -187.24,190.45 -77.21,76.44 -243.23,210.88 -278.17,300.11l-160.44 403.04c-23.5,58.91 -97.2,223.51 -104.2,271.59z"/>
   <path class="fil7" d="M3101.56 1148c37.1,-4.04 8.63,-3.52 50.13,-3.15l505.21 0.27c-36.78,-28.34 -932.57,-472.16 -1008.97,-512 -331.07,-172.64 -673.12,-339.04 -1008.82,-508.7 -63.35,-32.02 -197.85,-116.89 -268.7,-118.02 -124.68,-1.97 -251.81,0.4 -376.79,0.4 -90.03,0 -136.38,-13.45 -172.6,21.12l2280.54 1120.08z"/>
  </g>
 </g>
</svg>
