<?xml version="1.0" encoding="UTF-8"?>
<!DOCTYPE svg PUBLIC "-//W3C//DTD SVG 1.1//EN" "http://www.w3.org/Graphics/SVG/1.1/DTD/svg11.dtd">
<!-- Creator: CorelDRAW -->
<svg xmlns="http://www.w3.org/2000/svg" xml:space="preserve" width="41.2326mm" height="37.5072mm" version="1.1" style="shape-rendering:geometricPrecision; text-rendering:geometricPrecision; image-rendering:optimizeQuality; fill-rule:evenodd; clip-rule:evenodd"
viewBox="0 0 4123.26 3750.72"
 xmlns:xlink="http://www.w3.org/1999/xlink"
 xmlns:xodm="http://www.corel.com/coreldraw/odm/2003">
 <defs>
  <style type="text/css">
   <![CDATA[
    .fil20 {fill:none}
    .fil18 {fill:#1A506A}
    .fil19 {fill:#1E4150}
    .fil16 {fill:#1E5D7B}
    .fil17 {fill:#287AA4}
    .fil14 {fill:#2D3134}
    .fil15 {fill:#3090C0}
    .fil13 {fill:#3E3E3E}
    .fil2 {fill:#481B04}
    .fil11 {fill:#50310B}
    .fil6 {fill:#656565}
    .fil4 {fill:#6D2907}
    .fil7 {fill:#6D4935}
    .fil9 {fill:#794B11}
    .fil12 {fill:#8C5439}
    .fil5 {fill:#98907B}
    .fil10 {fill:#9B9B9A}
    .fil21 {fill:#9B9B9A}
    .fil3 {fill:#E9DDBF}
    .fil8 {fill:#F0F0F0}
    .fil22 {fill:#F0F0F0}
    .fil0 {fill:#4B4B4D;fill-opacity:0.200000}
    .fil1 {fill:#4B4B4D;fill-opacity:0.200000}
    .fil24 {fill:#E9E6E4;fill-opacity:0.200000}
    .fil23 {fill:#FEFEFE;fill-opacity:0.200000}
   ]]>
  </style>
     <clipPath id="id0">
      <path d="M1106.3 1221.53l117.79 59 -116.75 54.93 -118.82 -54.93 117.78 -59z"/>
     </clipPath>
 </defs>
 <g id="Camada_x0020_1">
  <metadata id="CorelCorpID_0Corel-Layer"/>
  <g id="_2430616410976">
   <polygon class="fil0" points="2490.11,3398.96 2740.47,3528.39 3615.7,3097.76 3343.19,2976.84 "/>
   <polygon class="fil1" points="-4.24,2927.35 1541.65,3699 3868.83,2541.69 4119.03,2599.47 1778.69,3754.95 1541.65,3699 "/>
   <g>
    <path class="fil2" d="M828.88 1648.73l600.66 903.68c5.61,8.4 8.39,12.57 12.16,18.01l46.53 68.5c16.04,24.08 48.5,66.75 56.25,93.13l98.24 -46.18 669.86 -336.77c-31.27,-35.26 -22.03,-0.4 -29.48,-109.36l-60.95 -893.3c8.63,-17.93 -6.32,-4.42 10.07,-11.69l860.3 431.91 -21.62 36.98c-8,25.23 -37.41,70.25 -51.02,95.01l-229.04 411.51c-8.63,15.16 -15.18,26.07 -24.22,42.39l-17.68 35.81c-0.67,1.25 -1.55,2.76 -2.24,3.99 -0.69,1.22 -1.59,2.73 -2.28,3.94 -0.69,1.21 -1.61,2.7 -2.29,3.89 -8.02,14.05 -14.42,28.33 -24.36,42.59l-52.02 81.41c18.72,-7.47 3.46,-7.9 29.03,-8.15 30.21,-59.05 64.27,-113.77 97.97,-173.28 20.45,-36.13 283.82,-507.88 302.59,-525.15 37.57,28.08 365.71,286.56 395.61,299.04 -26.19,41.98 10.77,-7.97 -7.86,13.51 0.74,29.07 13.24,242.14 -3.98,269.3 -33.23,6.33 -63.63,27.85 -96.3,43.69 -2.51,7.29 -1.65,5.84 -15.72,12.67 -15.25,7.41 -14.55,6.86 -32.02,10.62l-9.95 2.53 -85.11 44.42c-0.16,5.99 -1.24,17.96 -0.68,23.2 1.46,13.48 -1.37,-1.42 1.73,10.37 4.54,17.22 -2.41,2.99 6.13,12.79l281.04 -140.65 -0.13 -532.21c-1.97,0.56 -37.04,17.61 -47.6,23.49l-0.29 47.99 1.82 107.34 -10.85 -6.27c-16.17,-10.8 -23.12,-18.2 -37.31,-29.86 -21.62,-9.22 -18.17,-14.83 -36.8,-22.21 -24.05,-6.07 -0.4,1.76 -14.5,-4.67 -1.7,-0.77 -10.46,-5.62 -11.87,-6.95 -17.83,-16.71 -7.79,1.17 -13.58,-24.45 -11.06,-8.97 -21.18,-16.15 -31.55,-26.29 -20.07,-12.13 -24.08,-16.86 -42.96,-31.66l-30.3 -24.81 518.08 -268.26 97.07 -49.63c-17.8,-13.09 -317.51,-472.95 -359.37,-535.92 -61.21,-92.07 -120.83,-181.29 -181.38,-272.16 -60.35,-90.56 -119.76,-184.59 -181.25,-270.66l-2316.58 1156.83z"/>
    <path class="fil3" d="M482.9 2298.67l578.3 292.01 0.01 626.35c-90.42,-49.41 -192.79,-96.51 -286.4,-143.33 -61.99,-31.01 -240.6,-130.18 -294.08,-143.44l2.17 -631.59zm-389.05 -362.9l0 915.01c0.08,46.42 -5.5,79.5 -4.42,122.41l6.03 4.56 0.6 -47.51 677.98 338.01c112.86,56.46 225.71,112.9 338.57,169.36 56.43,28.23 112.86,56.45 169.29,84.68l145.94 71.8c20.05,12.12 18.19,0.86 18.43,56.3l10.56 4.41c-21.12,-126.31 -5.97,-700.56 -8.8,-919.01 -0.32,-24.6 -4.2,-46.85 8.97,-60.17l-343.05 -528.29c-78.93,-117.96 -178.14,-283.27 -257.22,-395.96 -26.5,-37.77 -62.85,-89.8 -83.34,-132.25l-679.54 316.65z"/>
    <path class="fil4" d="M2312.58 2349.1c44.92,13.93 118.68,64.94 163.22,87.61l31.98 21.36 6.88 3.3 79.05 42.59c19.55,5.78 18.89,8.34 37.67,18.92 9.4,8.76 15.05,12.35 24.27,17.18 16.51,-5.15 3.59,3.61 10.1,-15.88l52.02 -81.41c9.94,-14.26 16.34,-28.54 24.36,-42.59 0.68,-1.19 1.6,-2.68 2.29,-3.89 0.69,-1.21 1.59,-2.72 2.28,-3.94 0.69,-1.23 1.57,-2.74 2.24,-3.99l17.68 -35.81c9.04,-16.32 15.59,-27.23 24.22,-42.39l229.04 -411.51c13.61,-24.76 43.02,-69.78 51.02,-95.01 -141.26,-66.12 -290.26,-145.86 -433.99,-217.75l-326.49 -163.31c-129.82,-64.96 -45.54,-31.54 -88.27,-76.14l60.95 893.3c7.45,108.96 -1.79,74.1 29.48,109.36z"/>
    <path class="fil5" d="M1834.46 2693.5c8.88,-17.46 3.63,-10.85 24,-21.81 96.35,-51.84 358.98,-170.13 412.37,-204.74l0.1 629.69 -436.47 215.53 0 -618.67zm-191.74 -7.63l-0.93 914.8 822.17 -410.68c-5.5,-123.1 -0.72,-257.24 -0.72,-381.57l-0.93 -332.96c1.22,-43.24 6.77,-34.84 13.49,-38.75 -44.54,-22.67 -118.3,-73.68 -163.22,-87.61l-669.86 336.77z"/>
    <path class="fil5" d="M2947.26 2290.91c13.94,-43.48 54.17,-104.39 76.03,-146.97 11.93,-23.24 57.54,-122.53 80.48,-136.55 -5.35,-11.31 -2.85,-9.99 9.71,-23.67 29.26,20.8 59.35,49.21 90.11,75.16 29.7,25.05 64.55,51.34 91.94,80.45l-362.84 178.56c5.24,-11.2 11.27,-18.78 14.57,-26.98zm-252.48 225.12c21.42,35.15 7.17,435.97 8.11,511.36l-0.9 45.22 0.76 190.28c-1.97,9.73 -4.25,5.78 -2.16,17.35 2.35,13.03 2.54,8.34 6.28,13.93l2.05 -780.94 42.44 -18.15 22.99 -14.63c8.99,-4.66 14.01,-6.79 22.34,-11 1.7,90 -4,721.36 6.7,750.7l0 -5.38 1.43 -196.6 -0.39 -45.21 -0.07 -497.2c10.04,-18.25 29.56,-23.47 48.43,-31.9l30.97 -18.67c9.06,-9.78 -15.53,-9.06 20.17,-7.2l44.68 -24.05 -0.89 553.89c52.29,-15.02 133.23,-63.56 185.95,-89.89l0.82 192.72c1.31,12.61 -1.16,-1.06 1.75,11.17 3.01,12.62 1.95,8.7 5.95,14.6l-1.51 -770.03c11.88,-20.23 24.45,-20.43 44.65,-28.52l24.28 -15.29c9.39,-4.7 14.98,-7.04 23.97,-10.89l0.55 308.74c24.39,14.65 5.88,2.99 13.06,-0.7 -8.54,-9.8 -1.59,4.43 -6.13,-12.79 -3.1,-11.79 -0.27,3.11 -1.73,-10.37 -0.56,-5.24 0.52,-17.21 0.68,-23.2l-0.52 -105.71 0.32 -136.38 3.05 -23.04 240.23 -118.1c18.63,-21.48 -18.33,28.47 7.86,-13.51 -29.9,-12.48 -358.04,-270.96 -395.61,-299.04 -18.77,17.27 -282.14,489.02 -302.59,525.15 -33.7,59.51 -67.76,114.23 -97.97,173.28z"/>
    <path class="fil6" d="M2897.89 2975.27c42.14,17.76 166.26,74.81 192.33,98.08l-286.83 141.42 0 5.38 1.13 71.41 -48.14 21.27 -49.51 -18.66c-3.74,-5.59 -3.93,-0.9 -6.28,-13.93 -2.09,-11.57 0.19,-7.62 2.16,-17.35l-189.49 -98.95 1.55 -45.82 -0.15 -656.75 -6.88 -3.3 -1.46 713.09 -42.36 18.83 -822.17 410.68 1.18 49.4c34.67,-10.38 97.78,-47.07 135.75,-66.06 45.65,-22.83 87.03,-43.53 133.02,-66.53l400.73 -198.76c39.16,-6.47 368.22,192.92 394.71,186.7 -3.24,-65.51 -4.28,-44.93 91.19,-92.7l483.68 -241.94c46.59,-23.3 155.45,-84.54 195.68,-95.51l0 47.78 3.76 -42.44c-10.06,-22.52 -88.81,-52.3 -114.96,-65.38 -38.5,-19.26 -88.39,-49.56 -126.81,-60.83l0.11 119.42 -48.14 21.27 -49.5 -18.66c-4,-5.9 -2.94,-1.98 -5.95,-14.6 -2.91,-12.23 -0.44,1.44 -1.75,-11.17l-0.82 -192.72c-52.72,26.33 -133.66,74.87 -185.95,89.89l-43.77 24.42 -0.02 -554.26c-35.7,-1.86 -11.11,-2.58 -20.17,7.2 18.79,13.1 9.99,-18.46 14.86,32.04l-0.73 518.04z"/>
    <path class="fil5" d="M3325.57 1945c24.16,-32.22 207.25,-102.81 250.17,-131.28l1.11 629.6 -333.23 166.79 -2.43 193.39 526.98 -263.6 -1.4 51.11 8.25 -3.65c0.08,-41.11 -6.03,-74.59 -5.87,-117.65 0.9,-230.66 -10.59,-671.63 1.24,-849.44l-518.08 268.26 30.3 24.81c18.88,14.8 22.89,19.53 42.96,31.66z"/>
    <path class="fil7" d="M769.22 1577.42c10.48,9.79 17.4,20.72 26.72,35.17 2.59,4.02 10.05,16.55 11.61,18.62 17.58,23.34 -0.11,9.32 21.33,17.52l2316.58 -1156.83 -52.18 -80.77c-378.53,194.15 -775.04,387.38 -1160.93,580.4 -194.46,97.27 -385.92,193.04 -580.41,290.32l-572.18 286.92c-11.02,7.53 -2.18,-0.15 -10.54,8.65z"/>
    <path class="fil8" d="M574.19 2396.44c30.26,8.86 420.72,202.97 438.52,218.43l0.83 520.16c-3.03,16.64 2.06,8.36 -6.6,7.12l-478.26 -240.04 0.94 -531.4c7.7,5.04 38.79,14.56 44.57,25.73zm-93.46 533.82c53.48,13.26 232.09,112.43 294.08,143.44 93.61,46.82 195.98,93.92 286.4,143.33l-0.01 -626.35 -578.3 -292.01 -2.17 631.59z"/>
    <path class="fil9" d="M868.01 2671.09l-0.56 -33.96 -0.03 -46.22c22.98,4.97 89.37,32.18 97.97,54.2l-3.2 133.56 -92.41 -43.87 -1.77 -63.71zm-145.66 -106.54l-0.03 -46.22c30.1,6.53 76.55,27.46 95.25,48.8l2.63 140.3 -95.42 -45.36 -2.43 -97.52zm-144.53 -118.72c29.77,6.58 76.02,27.46 96.75,48.72l-2.67 139.3 -93.91 -43.19 -0.02 49.28c27.47,7.16 77.84,30.92 96.29,48.8l-1.3 239.53 51.28 24.99 -1.26 -240.01c31.41,9.39 75.42,27.63 96.4,48.05l-1.65 239.41 51.62 25.13 -1.57 -240.78c28.03,7.33 78.37,30.94 96.7,48.75l-0.39 240.09 39.73 19.72 3.12 48.53c8.66,1.24 3.57,9.52 6.6,-7.12l-0.83 -520.16c-17.8,-15.46 -408.26,-209.57 -438.52,-218.43l3.63 49.39z"/>
    <path class="fil10" d="M3770.39 1620.27c-11.83,177.81 -0.34,618.78 -1.24,849.44 -0.16,43.06 5.95,76.54 5.87,117.65l93.81 -45.66 -1.37 -971.06 -97.07 49.63z"/>
    <path class="fil8" d="M47.41 1956.56c-14.31,6.39 -32.95,5.71 -50.36,2.35l-1.29 968.44 93.67 45.84c-1.08,-42.91 4.5,-75.99 4.42,-122.41l0 -915.01 -46.44 20.79z"/>
    <path class="fil11" d="M2561.33 2911.24c8.46,-16.6 3.75,-10.1 23.44,-20.57 8.52,-4.53 15.88,-7.44 24.52,-11.7 15.54,-7.65 40.89,-18.24 47.39,-24.41l0.41 47.73 -95.76 45.84 0 -36.89zm0 -193.55c8.46,-16.6 3.75,-10.1 23.44,-20.57 8.52,-4.53 15.88,-7.43 24.52,-11.69 15.54,-7.66 40.89,-18.25 47.39,-24.41l0.41 47.72 -95.76 45.84 0 -36.89zm-46.52 400.43l188.08 -90.73c-0.94,-75.39 13.31,-476.21 -8.11,-511.36 -25.57,0.25 -10.31,0.68 -29.03,8.15 -6.51,19.49 6.41,10.73 -10.1,15.88 -9.22,-4.83 -14.87,-8.42 -24.27,-17.18 -5.97,6.51 -1.9,3.67 -10.67,10.04l-59.67 28.1 1.69 -47.48 30.98 -9.58 -79.05 -42.59 0.15 656.75z"/>
    <path class="fil10" d="M1544.48 2732.05l-51.98 -1.42c7.89,5.37 -6.05,1.04 13.6,5.74l38.08 1.69 -2.54 960.94c11.86,4.07 27.73,-7.18 49.88,-18.33 18.57,-9.35 40.97,-17.34 51.45,-30.6l-1.18 -49.4 0.93 -914.8 -98.24 46.18z"/>
    <path class="fil10" d="M1883.5 3190.7l0.01 -473.01c9.22,-17.64 16.45,-17.37 36.17,-26.8l254.89 -127.3 47.62 -23.49 0.07 532.15 -339.31 166.82 0.55 -48.37zm-49.04 -497.2l0 618.67 436.47 -215.53 -0.1 -629.69c-53.39,34.61 -316.02,152.9 -412.37,204.74 -20.37,10.96 -15.12,4.35 -24,21.81z"/>
    <path class="fil10" d="M3325.57 1945c10.37,10.14 20.49,17.32 31.55,26.29l123.38 -60.92c10.56,-5.88 45.63,-22.93 47.6,-23.49l0.13 532.21 -281.04 140.65c-7.18,3.69 11.33,15.35 -13.06,0.7l-0.55 -308.74c-8.99,3.85 -14.58,6.19 -23.97,10.89l-24.28 15.29c20.07,41.83 -8.84,695.06 6.36,817.21l48.14 -21.27 -0.11 -119.42 0.38 -102.76 1.09 -48.14 2.43 -193.39 333.23 -166.79 -1.11 -629.6c-42.92,28.47 -226.01,99.06 -250.17,131.28z"/>
    <path class="fil8" d="M1456.83 3654.8l84.81 44.2 2.54 -960.94 -38.08 -1.69c-19.65,-4.7 -5.71,-0.37 -13.6,-5.74l-35.5 -55.01c-13.17,13.32 -9.29,35.57 -8.97,60.17 2.83,218.45 -12.32,792.7 8.8,919.01z"/>
    <path class="fil4" d="M47.41 1956.56l46.44 -20.79 679.54 -316.65c20.49,42.45 56.84,94.48 83.34,132.25 79.08,112.69 178.29,278 257.22,395.96l343.05 528.29 35.5 55.01 51.98 1.42c-7.75,-26.38 -40.21,-69.05 -56.25,-93.13l-46.53 -68.5c-3.77,-5.44 -6.55,-9.61 -12.16,-18.01l-600.66 -903.68c-21.44,-8.2 -3.75,5.82 -21.33,-17.52 -1.56,-2.07 -9.02,-14.6 -11.61,-18.62 -9.32,-14.45 -16.24,-25.38 -26.72,-35.17 -38.97,5.03 -321.09,155.78 -381.41,185.95 -63.52,31.77 -348.59,164.92 -376.64,193.42l36.24 -0.23z"/>
    <path class="fil11" d="M1883.5 3190.7l47.29 -19.35 0.59 -438.65c28.17,-16.09 67.38,-42.09 97.69,-44.84 0,28.92 14.12,132.19 -9.88,143.75l-84.16 43.34c-7.03,25.04 -6.72,24.94 0.55,49.56l93.45 -42.11 0.1 237.26c17.48,-3.77 16.77,-3.21 32.02,-10.62 14.07,-6.83 13.21,-5.38 15.72,-12.67l0 -233.51c13.82,-24.45 69.85,-48.76 95.59,-50.88 3.89,-10.11 4.86,-33.12 4.56,-56.65l-6.52 0 -84.84 46.6c-10.44,-9.04 -8.8,18.18 -8.47,-16.99l-0.72 -80.89 1.81 -46.8c32.73,-14.42 67.66,-31.92 96,-45.66l0.29 -48 -254.89 127.3c-19.72,9.43 -26.95,9.16 -36.17,26.8l-0.01 473.01z"/>
    <path class="fil5" d="M95.46 2977.75l1350.81 672.64c-0.24,-55.44 1.62,-44.18 -18.43,-56.3l-145.94 -71.8c-56.43,-28.23 -112.86,-56.45 -169.29,-84.68 -112.86,-56.46 -225.71,-112.9 -338.57,-169.36l-677.98 -338.01 -0.6 47.51z"/>
    <path class="fil11" d="M1006.94 3142.15l-3.12 -48.53 -39.73 -19.72 -94.74 -48.06 -51.62 -25.13 -93.49 -47.45 -51.28 -24.99 -3.54 -4.48 -72.09 -35.39c-27.41,-16.27 -19.49,-8.36 -19.28,-108.44l-0.08 -140.02 0.02 -49.28 -0.85 -98.69 0.68 -46.14 -3.63 -49.39c-5.78,-11.17 -36.87,-20.69 -44.57,-25.73l-0.94 531.4 478.26 240.04z"/>
    <path class="fil12" d="M2222.15 1346.44c42.73,44.6 -41.55,11.18 88.27,76.14l326.49 163.31c143.73,71.89 292.73,151.63 433.99,217.75l21.62 -36.98 -860.3 -431.91c-16.39,7.27 -1.44,-6.24 -10.07,11.69z"/>
    <path class="fil2" d="M2174.57 2563.59l-0.29 48 2.74 143.74c0.3,23.53 -0.67,46.54 -4.56,56.65l-0.25 237.32 -95.34 47.07c-2.51,7.29 -1.65,5.84 -15.72,12.67 -15.25,7.41 -14.54,6.85 -32.02,10.62l-9.94 2.53 -84.03 44.41 -4.37 4.75 -47.29 19.35 -0.55 48.37 339.31 -166.82 -0.07 -532.15 -47.62 23.49z"/>
    <path class="fil8" d="M3142.19 3076.43l49.5 18.66c-15.2,-122.15 13.71,-775.38 -6.36,-817.21 -20.2,8.09 -32.77,8.29 -44.65,28.52l1.51 770.03z"/>
    <path class="fil13" d="M2707.18 3505.42l770.55 -382.37 0 -47.78c-40.23,10.97 -149.09,72.21 -195.68,95.51l-483.68 241.94c-95.47,47.77 -94.43,27.19 -91.19,92.7z"/>
    <path class="fil14" d="M2804.82 3018.17l-1.43 196.6 286.83 -141.42c-26.07,-23.27 -150.19,-80.32 -192.33,-98.08 -30.09,7.2 -67.91,29.21 -93.07,42.9z"/>
    <path class="fil10" d="M2751.36 2495.08c11.87,113.92 1.63,289.56 1.62,410.11 -0.01,111.39 -10.69,310.28 3.4,407.64l48.14 -21.27 -1.13 -71.41c-10.7,-29.34 -5,-660.7 -6.7,-750.7 -8.33,4.21 -13.35,6.34 -22.34,11l-22.99 14.63z"/>
    <path class="fil8" d="M2706.87 3294.17l49.51 18.66c-14.09,-97.36 -3.41,-296.25 -3.4,-407.64 0.01,-120.55 10.25,-296.19 -1.62,-410.11l-42.44 18.15 -2.05 780.94z"/>
    <path class="fil10" d="M2947.26 2290.91c54.53,-20.74 101.65,-48.87 154.16,-75.14 26.61,-13.31 46.4,-23.21 72.55,-36.29l60.39 -30.41c1.16,-0.78 2.64,-1.83 3.73,-2.64 8.44,-6.23 5.85,-4.36 10.46,-9.38 -12.24,-17.13 -127.06,-119.52 -144.78,-129.66 -22.94,14.02 -68.55,113.31 -80.48,136.55 -21.86,42.58 -62.09,103.49 -76.03,146.97z"/>
    <path class="fil10" d="M2463.96 3189.99l42.36 -18.83 1.46 -713.09 -31.98 -21.36c-6.72,3.91 -12.27,-4.49 -13.49,38.75l0.93 332.96c0,124.33 -4.78,258.47 0.72,381.57z"/>
    <path class="fil2" d="M2852.79 2443.86l-1.89 507.32 -46.47 21.78 0.39 45.21c25.16,-13.69 62.98,-35.7 93.07,-42.9l0.73 -518.04c-4.87,-50.5 3.93,-18.94 -14.86,-32.04l-30.97 18.67z"/>
    <polygon class="fil6" points="3241.19,2803.5 3240.1,2851.64 3766.77,2591.01 3768.17,2539.9 "/>
    <polygon class="fil10" points="2903.93,2417.99 2903.95,2972.25 2947.72,2947.83 2948.61,2393.94 "/>
    <path class="fil11" d="M2804.43 2972.96l46.47 -21.78 1.89 -507.32c-18.87,8.43 -38.39,13.65 -48.43,31.9l0.07 497.2z"/>
    <path class="fil15" d="M869.35 3025.84l94.74 48.06 0.39 -240.09c-18.33,-17.81 -68.67,-41.42 -96.7,-48.75l1.57 240.78z"/>
    <path class="fil16" d="M3382.81 2443.14c32.67,-15.84 63.07,-37.36 96.3,-43.69l-0.02 -243.16c-28.57,7.62 -81.69,27.54 -96.28,53.34l0 233.51z"/>
    <path class="fil16" d="M2076.87 3096.37l95.34 -47.07 0.25 -237.32c-25.74,2.12 -81.77,26.43 -95.59,50.88l0 233.51z"/>
    <path class="fil15" d="M724.24 2953.26l93.49 47.45 1.65 -239.41c-20.98,-20.42 -64.99,-38.66 -96.4,-48.05l1.26 240.01z"/>
    <path class="fil11" d="M3239.81 2271.29l95.16 -42.11 0.1 237.25c17.47,-3.76 16.77,-3.21 32.02,-10.62 14.07,-6.83 13.21,-5.38 15.72,-12.67l0 -233.51c14.59,-25.8 67.71,-45.72 96.28,-53.34l0.02 243.16c17.22,-27.16 4.72,-240.23 3.98,-269.3l-240.23 118.1 -3.05 23.04z"/>
    <polygon class="fil14" points="2513.26,3163.94 2702.75,3262.89 2701.99,3072.61 "/>
    <path class="fil16" d="M3239.49 2407.67l0.52 105.71 85.11 -44.42 0 -222.33c-2.32,12.99 -74.65,149.57 -85.63,161.04z"/>
    <polygon class="fil16" points="1937.39,3060.89 1935.16,3166.6 2019.19,3122.19 2020.82,2900.71 "/>
    <path class="fil6" d="M3103.77 2007.39c17.72,10.14 132.54,112.53 144.78,129.66 -4.61,5.02 -2.02,3.15 -10.46,9.38 -1.09,0.81 -2.57,1.86 -3.73,2.64l-60.39 30.41c-26.15,13.08 -45.94,22.98 -72.55,36.29 -52.51,26.27 -99.63,54.4 -154.16,75.14 -3.3,8.2 -9.33,15.78 -14.57,26.98l362.84 -178.56c-27.39,-29.11 -62.24,-55.4 -91.94,-80.45 -30.76,-25.95 -60.85,-54.36 -90.11,-75.16 -12.56,13.68 -15.06,12.36 -9.71,23.67z"/>
    <path class="fil15" d="M578.05 2779.96c-0.21,100.08 -8.13,92.17 19.28,108.44l72.09 35.39c-13.08,-49.9 -3.38,-121.6 -4.24,-174.73l-87.13 30.9z"/>
    <path class="fil17" d="M578.05 2779.96l87.13 -30.9c0.86,53.13 -8.84,124.83 4.24,174.73l3.54 4.48 1.3 -239.53c-18.45,-17.88 -68.82,-41.64 -96.29,-48.8l0.08 140.02z"/>
    <path class="fil18" d="M3239.81 2271.29l-0.32 136.38c10.98,-11.47 83.31,-148.05 85.63,-161.04l0 222.33 9.95 -2.53 -0.1 -237.25 -95.16 42.11z"/>
    <polygon class="fil17" points="577.99,2590.66 671.9,2633.85 668.79,2533.95 577.14,2491.97 "/>
    <path class="fil17" d="M820.2 2707.43c-4.42,-31.8 -3.62,-66.73 -6.31,-100.89l-91.54 -41.99 2.43 97.52 95.42 45.36z"/>
    <polygon class="fil2" points="2514.81,3118.12 2513.26,3163.94 2701.99,3072.61 2702.89,3027.39 "/>
    <path class="fil15" d="M868.01 2671.09l1.77 63.71 92.41 43.87 -1.19 -96.42c-9.35,-3.98 -15.81,-6.59 -25.22,-11.46 -16.62,-8.61 -12.26,-5.4 -21.71,-16.77l-11.22 1.83 -34.84 15.24z"/>
    <path class="fil19" d="M1930.79 3171.35l4.37 -4.75 2.23 -105.71c4.82,-41.09 8,-98.12 -1.81,-136.38 -7.27,-24.62 -7.58,-24.52 -0.55,-49.56l5.19 -100.1 81.85 -40.55 -2.88 97.31c24,-11.56 9.88,-114.83 9.88,-143.75 -30.31,2.75 -69.52,28.75 -97.69,44.84l-0.59 438.65z"/>
    <path class="fil18" d="M1935.58 2924.51c9.81,38.26 6.63,95.29 1.81,136.38l83.43 -160.18 -1.63 221.48 9.94 -2.53 -0.1 -237.26 -93.45 42.11z"/>
    <polygon class="fil18" points="1935.03,2874.95 2019.19,2831.61 2022.07,2734.3 1940.22,2774.85 "/>
    <path class="fil16" d="M2136.75 2679.65c-8.93,20.47 -18.81,36 -28.54,54.42 -5.62,10.65 -9.45,20.85 -13.61,29.05 -8.58,16.92 -5.09,11.73 -17.41,21.82 -0.33,35.17 -1.97,7.95 8.47,16.99l84.84 -46.6 -2.28 -95.26c-15.62,6.36 -20.29,6.02 -31.47,19.58z"/>
    <path class="fil11" d="M3357.12 1971.29c5.79,25.62 -4.25,7.74 13.58,24.45 1.41,1.33 10.17,6.18 11.87,6.95 14.1,6.43 -9.55,-1.4 14.5,4.67 8.23,-13.45 0.59,-7.53 16.51,-17.9 5.04,-3.28 17.65,-8.43 24.3,-11.7 13.91,-6.84 31.49,-14.14 42.33,-19.4l0.29 -47.99 -123.38 60.92z"/>
    <path class="fil19" d="M2076.47 2704.05l60.28 -24.4c11.18,-13.56 15.85,-13.22 31.47,-19.58l2.28 95.26 6.52 0 -2.74 -143.74c-28.34,13.74 -63.27,31.24 -96,45.66l-1.81 46.8z"/>
    <path class="fil16" d="M577.14 2491.97l91.65 41.98 3.11 99.9 2.67 -139.3c-20.73,-21.26 -66.98,-42.14 -96.75,-48.72l-0.68 46.14z"/>
    <path class="fil16" d="M722.35 2564.55l91.54 41.99c2.69,34.16 1.89,69.09 6.31,100.89l-2.63 -140.3c-18.7,-21.34 -65.15,-42.27 -95.25,-48.8l0.03 46.22z"/>
    <path class="fil2" d="M2561.33 2717.69l0 36.89 95.76 -45.84 -0.41 -47.72c-6.5,6.16 -31.85,16.75 -47.39,24.41 -8.64,4.26 -16,7.16 -24.52,11.69 -19.69,10.47 -14.98,3.97 -23.44,20.57z"/>
    <path class="fil2" d="M2561.33 2911.24l0 36.89 95.76 -45.84 -0.41 -47.73c-6.5,6.17 -31.85,16.76 -47.39,24.41 -8.64,4.26 -16,7.17 -24.52,11.7 -19.69,10.47 -14.98,3.97 -23.44,20.57z"/>
    <path class="fil16" d="M867.45 2637.13c12.46,3.4 9.47,0.17 21.81,6.84 25,13.51 3.97,1.81 13.59,11.88l11.22 -1.83 46.23 -17.32 0.7 45.55 1.19 96.42 3.2 -133.56c-8.6,-22.02 -74.99,-49.23 -97.97,-54.2l0.03 46.22z"/>
    <path class="fil19" d="M3397.07 2007.36c18.63,7.38 15.18,12.99 36.8,22.21 18.85,-10.08 35,-39.22 37.03,-55.28 0.41,29.35 7.37,65.03 0.28,85.14l10.85 6.27 -1.82 -107.34c-10.84,5.26 -28.42,12.56 -42.33,19.4 -6.65,3.27 -19.26,8.42 -24.3,11.7 -15.92,10.37 -8.28,4.45 -16.51,17.9z"/>
    <path class="fil18" d="M2076.47 2704.05l0.72 80.89c12.32,-10.09 8.83,-4.9 17.41,-21.82 4.16,-8.2 7.99,-18.4 13.61,-29.05 9.73,-18.42 19.61,-33.95 28.54,-54.42l-60.28 24.4z"/>
    <path class="fil2" d="M2631.38 2522.88c-18.78,-10.58 -18.12,-13.14 -37.67,-18.92l-30.98 9.58 -1.69 47.48 59.67 -28.1c8.77,-6.37 4.7,-3.53 10.67,-10.04z"/>
    <path class="fil16" d="M3433.87 2029.57c14.19,11.66 21.14,19.06 37.31,29.86 7.09,-20.11 0.13,-55.79 -0.28,-85.14 -2.03,16.06 -18.18,45.2 -37.03,55.28z"/>
    <path class="fil17" d="M914.07 2654.02c9.45,11.37 5.09,8.16 21.71,16.77 9.41,4.87 15.87,7.48 25.22,11.46l-0.7 -45.55 -46.23 17.32z"/>
    <path class="fil17" d="M868.01 2671.09l34.84 -15.24c-9.62,-10.07 11.41,1.63 -13.59,-11.88 -12.34,-6.67 -9.35,-3.44 -21.81,-6.84l0.56 33.96z"/>
   </g>
   <g>
    <path class="fil20" d="M944.77 1281.59l161.78 -81.04 161.78 81.04 -160.36 75.45 -163.2 -75.45zm43.75 -1.06l117.78 -59 117.79 59 -116.75 54.93 -118.82 -54.93z"/>
    <polygon class="fil21" points="1106.55,1670.24 1106.55,1670.24 1107.97,1357.04 1107.97,1357.04 1268.33,1281.59 1269.76,1594.79 "/>
    <polygon class="fil22" points="1106.55,1670.24 1107.97,1357.04 944.77,1281.59 940.81,1592.3 "/>
    <polygon class="fil22" points="1106.3,1221.53 1224.09,1280.53 1107.34,1335.46 988.52,1280.53 "/>
    <g style="clip-path:url(#id0)">
     <g>
      <polygon id="_1" class="fil21" points="981.49,1226.18 1106.3,1221.53 1107.34,1335.46 981.49,1329.06 "/>
     </g>
    </g>
    <polygon class="fil20" points="1106.3,1221.53 1224.09,1280.53 1107.34,1335.46 988.52,1280.53 "/>
   </g>
   <g>
    <path class="fil23" d="M1137.4 178.86c-25.14,2.67 -51.29,-16.63 -68.84,-27.2 -36.46,-21.96 -53.07,2.08 -84.98,-6.79 -32.24,-8.95 -38.73,-21.36 -81.11,-13.03 -27.47,5.4 -52.53,17.44 -60.65,37.9 -1.95,20.18 4.19,13.34 -1.22,32.81 -9.27,33.37 -15.13,53.55 -15.61,92.6 -0.58,47.24 70.33,121.72 11.95,113.16 -12.88,-1.89 -9.34,-1.12 -12.62,-8.48 -4.84,16.61 0.45,3.94 -9.22,7.59l-38.52 15.88 -7.93 8.12c-0.56,0.55 -4.5,4.2 -6.74,6.39 -29.11,28.49 -52.33,74.19 -50.02,118.63 1.5,29.09 13.36,49.21 33.02,63.77 25.22,18.68 52.59,19.3 69.44,26.94 11.15,39.4 3.28,65.71 37.96,90.83 30.2,21.86 55.5,23.54 89.57,33.77 12.08,0.23 24.77,7.8 39.79,13.22 22.3,8.04 19.94,10.49 31.57,29.4 8.3,13.51 17.29,22.6 26.69,33.34 19.65,22.46 18.02,14 44.41,11.78 -2.26,27.32 -45.5,38.66 -64.77,60.67l-42.91 86.89c-4.03,32.45 31.91,70.19 47.04,81.98 5.5,4.29 77.14,47.32 78.76,47.98 33.04,10.57 41.2,-12.12 58.15,31.99 7.76,20.2 6.64,61.35 -2.68,77.39 7.53,9.01 -4.19,3.85 8.52,1.51 27.67,-8.02 32.81,-88.43 14.79,-115.23 -23.58,-35.05 -84.47,-28.57 -109.51,-55.49 -30.29,-32.56 -6.62,-92.48 16.38,-116.99 21.69,-23.12 70.4,-49.62 72.87,-90.16 1.06,-10.26 3.88,-1.67 -1.24,-7.02 -8.86,17.94 -5.16,8.11 -16.82,19.32 -15.76,15.14 -4.2,12.41 -26.2,13.74 6.08,-14.43 -0.25,-0.45 6.67,-12.57 49.04,-85.87 -14.06,-85.78 -55.47,-156.19 -41.01,-69.72 1.84,-52.72 -15.34,-104.33 -5.42,-16.26 -5.12,-7 -7.64,-26.6 -6.66,-51.85 -25.88,-27.11 -33.78,-60.04l106.83 -25.53c63.75,-1.2 54.61,6.12 82.86,-48.53 58.94,-7.15 78.89,47.99 137.39,40.18 38.56,-5.16 59.49,-42.58 63.12,-71.48 3.01,-24.06 -3.26,-17.83 -4.79,-35.34 12.46,-5.24 12.16,-1.38 24.48,-10.66 15.98,-12.05 0.35,-8.69 18.59,-13.23 19.61,12.25 27.91,51.29 26.11,80.31 -7.57,122.39 -174.58,103.39 -187.27,109.98 -11.73,46.78 1.52,73.99 42.84,83.64 29.77,6.96 88.82,-6.34 111.3,-20.92 5.14,-4.89 -1.81,-5.81 9.02,-7.92 -20.62,-3.89 -33.83,-10.42 -36.52,-31.45 15.75,-3.07 96.52,-8.18 98.74,-61.24 1.79,-42.93 -18.83,-1.63 10.36,-61.91 11.27,-23.26 5.03,-36.55 22.64,-58.16 12.41,-15.24 35.9,-22.03 59.95,-12.52 36.82,14.57 44.11,56.41 79.41,23.89 12.29,-11.32 16.92,-41.16 -1.09,-67.9l-4.13 -5.87c29.27,-8.49 29.91,-14.39 19.57,-40.94 -17.85,-45.83 41.34,-56.3 -1.91,-109.91 -21.24,-26.35 -22.45,-5.35 -25.58,-33.63 -2.59,-23.47 -12.09,-62.82 -28.21,-73.02l-8.49 -4.32c-72.97,-40.29 -97.06,24.04 -118.43,17.59 -8.04,-2.43 -37.49,-66.18 -99.63,-55.21 -51.95,9.17 -76.79,66.59 -86.41,70.7 -29.53,12.63 -38.42,-29.3 -151.44,33.45 -15.63,8.68 -14.38,6 -27.65,24.57l-5.42 7.9z"/>
    <path class="fil24" d="M1160.98 870.03l8.08 -13.5c16.08,-41.09 13.51,-77.48 -18.24,-107.63 -42.89,-40.72 -38.94,-58.37 -31.75,-125.09l46.87 -3.12c5.49,-2.51 -2.31,0.38 6.87,-4.75 7.62,-4.25 2.39,-2.08 11.71,-4.85 80.66,-23.94 41.04,-63.84 89.89,-61.32l4.07 12.27c12.69,-6.59 179.7,12.41 187.27,-109.98 1.8,-29.02 -6.5,-68.06 -26.11,-80.31 -18.24,4.54 -2.61,1.18 -18.59,13.23 -12.32,9.28 -12.02,5.42 -24.48,10.66 1.53,17.51 7.8,11.28 4.79,35.34 -3.63,28.9 -24.56,66.32 -63.12,71.48 -58.5,7.81 -78.45,-47.33 -137.39,-40.18 -28.25,54.65 -19.11,47.33 -82.86,48.53l-106.83 25.53c7.9,32.93 27.12,8.19 33.78,60.04 2.52,19.6 2.22,10.34 7.64,26.6 17.18,51.61 -25.67,34.61 15.34,104.33 41.41,70.41 104.51,70.32 55.47,156.19 -6.92,12.12 -0.59,-1.86 -6.67,12.57 22,-1.33 10.44,1.4 26.2,-13.74 11.66,-11.21 7.96,-1.38 16.82,-19.32 5.12,5.35 2.3,-3.24 1.24,7.02z"/>
    <path class="fil24" d="M1137.4 178.86l5.42 -7.9c13.27,-18.57 12.02,-15.89 27.65,-24.57 113.02,-62.75 121.91,-20.82 151.44,-33.45 9.62,-4.11 34.46,-61.53 86.41,-70.7 62.14,-10.97 91.59,52.78 99.63,55.21 21.37,6.45 45.46,-57.88 118.43,-17.59l8.49 4.32c16.12,10.2 25.62,49.55 28.21,73.02 3.13,28.28 4.34,7.28 25.58,33.63 43.25,53.61 -15.94,64.08 1.91,109.91 10.34,26.55 9.7,32.45 -19.57,40.94l4.13 5.87c18.01,26.74 13.38,56.58 1.09,67.9 -35.3,32.52 -42.59,-9.32 -79.41,-23.89 -24.05,-9.51 -47.54,-2.72 -59.95,12.52 -17.61,21.61 -11.37,34.9 -22.64,58.16 -29.19,60.28 -8.57,18.98 -10.36,61.91 -2.22,53.06 -82.99,58.17 -98.74,61.24 2.69,21.03 15.9,27.56 36.52,31.45 -10.83,2.11 -3.88,3.03 -9.02,7.92 28.57,-8.9 138.72,-59.69 142.85,-97.27 4.43,-40.25 -73.14,-47.98 -16.97,-93.17 17.71,-14.26 39.38,-15.76 62.2,-2.56 21.87,12.65 40.88,22.53 60.25,4.23 14.85,-14.05 30.6,-22.97 44.33,-36.33 5.99,-29.91 -7.52,-45.82 -3.83,-71.41 4.12,-28.55 42.8,-143.64 -41.98,-173.14 -1.71,-36.13 -5.86,-61.02 -27.87,-80.14 -55.87,-48.55 -99.12,-11.01 -126.64,-25.79 -27.46,-14.74 -50.76,-41.69 -121.44,-44.86 -32.34,-1.45 -64.26,13.99 -83.36,26.36 -7.96,5.16 -25.02,18.08 -29.51,22.96 -13.17,14.31 -4.79,20.91 -29.04,26.43 -66.61,15.17 -111.75,-13.41 -124.21,98.79z"/>
    <path class="fil24" d="M941.88 771.75c-34.07,-10.23 -59.37,-11.91 -89.57,-33.77 -34.68,-25.12 -26.81,-51.43 -37.96,-90.83 -16.85,-7.64 -44.22,-8.26 -69.44,-26.94 -19.66,-14.56 -31.52,-34.68 -33.02,-63.77 -2.31,-44.44 20.91,-90.14 50.02,-118.63 2.24,-2.19 6.18,-5.84 6.74,-6.39l7.93 -8.12c-62.54,16.03 -117.65,57.73 -118.32,133.14 -0.73,82.56 48.59,116.49 125.76,124.98 10.84,104.16 126.47,139.22 157.86,90.33z"/>
    <path class="fil24" d="M815.1 407.42c9.67,-3.65 4.38,9.02 9.22,-7.59 3.28,7.36 -0.26,6.59 12.62,8.48 58.38,8.56 -12.53,-65.92 -11.95,-113.16 0.48,-39.05 6.34,-59.23 15.61,-92.6 5.41,-19.47 -0.73,-12.63 1.22,-32.81 -45.74,34.06 -74.15,52.13 -82.78,108.01 -6.05,39.17 4.43,80.34 33.59,105.8 28.06,24.5 20.53,7.12 22.47,23.87z"/>
    <path class="fil24" d="M1166.45 1247.9c-12.71,2.34 -0.99,7.5 -8.52,-1.51 9.32,-16.04 10.44,-57.19 2.68,-77.39 -16.95,-44.11 -25.11,-21.42 -58.15,-31.99 6.7,12.41 5.96,7.8 13.42,16.88 53.6,65.27 -4.76,98.3 -13.45,133.5 26.98,0.59 53.34,-23.18 64.02,-39.49z"/>
   </g>
   <g>
    <path class="fil23" d="M1174.9 311.97c-21.5,2.15 -43.87,-13.39 -58.88,-21.89 -31.18,-17.68 -45.39,1.67 -72.69,-5.47 -27.57,-7.21 -33.12,-17.2 -69.37,-10.49 -23.5,4.35 -44.93,14.04 -51.87,30.51 -1.67,16.25 3.58,10.74 -1.05,26.41 -7.93,26.87 -12.94,43.11 -13.35,74.54 -0.49,38.03 60.16,97.99 10.22,91.09 -11.02,-1.52 -7.99,-0.9 -10.79,-6.83 -4.14,13.38 0.38,3.18 -7.89,6.12l-32.95 12.78 -6.78 6.54c-0.47,0.44 -3.84,3.37 -5.76,5.14 -24.9,22.94 -44.76,59.72 -42.79,95.49 1.29,23.42 11.43,39.61 28.24,51.33 21.57,15.04 44.99,15.54 59.4,21.69 9.53,31.72 2.8,52.9 32.47,73.12 25.83,17.6 47.47,18.95 76.61,27.18 10.33,0.19 21.19,6.28 34.04,10.64 19.06,6.47 17.05,8.45 26.99,23.67 7.11,10.88 14.79,18.19 22.83,26.84 16.82,18.08 15.42,11.27 37.99,9.48 -1.93,21.99 -38.92,31.12 -55.4,48.84l-36.7 69.94c-3.45,26.13 27.3,56.5 40.23,65.99 4.71,3.45 65.98,38.09 67.37,38.62 28.26,8.51 35.24,-9.75 49.74,25.76 6.64,16.26 5.67,49.38 -2.29,62.3 6.44,7.24 -3.59,3.09 7.28,1.21 23.67,-6.45 28.07,-71.18 12.65,-92.76 -20.16,-28.21 -72.25,-22.99 -93.67,-44.67 -25.91,-26.21 -5.66,-74.44 14.02,-94.17 18.55,-18.61 60.21,-39.94 62.33,-72.57 0.9,-8.27 3.31,-1.35 -1.07,-5.65 -7.58,14.44 -4.41,6.52 -14.39,15.54 -13.47,12.19 -3.59,10 -22.41,11.07 5.21,-11.62 -0.21,-0.37 5.71,-10.12 41.95,-69.13 -12.02,-69.05 -47.45,-125.73 -35.07,-56.13 1.58,-42.44 -13.12,-83.98 -4.63,-13.09 -4.38,-5.64 -6.53,-21.41 -5.69,-41.74 -22.14,-21.83 -28.89,-48.33l91.37 -20.56c54.53,-0.96 46.71,4.93 70.88,-39.06 50.4,-5.76 67.47,38.63 117.51,32.34 32.98,-4.15 50.89,-34.27 53.99,-57.54 2.57,-19.36 -2.79,-14.35 -4.1,-28.44 10.66,-4.22 10.4,-1.11 20.94,-8.59 13.67,-9.69 0.3,-6.99 15.9,-10.65 16.77,9.86 23.87,41.29 22.33,64.65 -6.47,98.52 -149.32,83.22 -160.17,88.53 -10.04,37.66 1.29,59.56 36.64,67.33 25.46,5.6 75.96,-5.11 95.2,-16.84 4.4,-3.94 -1.55,-4.68 7.71,-6.37 -17.63,-3.14 -28.94,-8.39 -31.23,-25.32 13.47,-2.48 82.55,-6.58 84.45,-49.3 1.53,-34.55 -16.1,-1.31 8.86,-49.84 9.64,-18.72 4.3,-29.42 19.36,-46.81 10.62,-12.27 30.71,-17.73 51.28,-10.08 31.5,11.73 37.73,45.41 67.93,19.23 10.51,-9.11 14.47,-33.14 -0.94,-54.65l-3.53 -4.73c25.04,-6.84 25.58,-11.58 16.74,-32.95 -15.27,-36.9 35.36,-45.33 -1.63,-88.49 -18.18,-21.2 -19.21,-4.3 -21.88,-27.06 -2.22,-18.89 -10.34,-50.58 -24.14,-58.78l-7.25 -3.48c-62.42,-32.44 -83.02,19.35 -101.3,14.16 -6.88,-1.95 -32.07,-53.28 -85.22,-44.44 -44.43,7.38 -65.68,53.6 -73.91,56.91 -25.26,10.16 -32.86,-23.59 -129.53,26.93 -13.37,6.98 -12.3,4.83 -23.65,19.78l-4.64 6.35z"/>
    <path class="fil24" d="M1195.08 868.35l6.9 -10.87c13.76,-33.08 11.56,-62.37 -15.6,-86.64 -36.68,-32.78 -33.3,-46.98 -27.16,-100.69l40.1 -2.52c4.69,-2.02 -1.98,0.31 5.87,-3.82 6.52,-3.43 2.05,-1.67 10.02,-3.9 68.99,-19.28 35.1,-51.39 76.89,-49.36l3.48 9.87c10.85,-5.31 153.7,9.99 160.17,-88.53 1.54,-23.36 -5.56,-54.79 -22.33,-64.65 -15.6,3.66 -2.23,0.96 -15.9,10.65 -10.54,7.48 -10.28,4.37 -20.94,8.59 1.31,14.09 6.67,9.08 4.1,28.44 -3.1,23.27 -21.01,53.39 -53.99,57.54 -50.04,6.29 -67.11,-38.1 -117.51,-32.34 -24.17,43.99 -16.35,38.1 -70.88,39.06l-91.37 20.56c6.75,26.5 23.2,6.59 28.89,48.33 2.15,15.77 1.9,8.32 6.53,21.41 14.7,41.54 -21.95,27.85 13.12,83.98 35.43,56.68 89.4,56.6 47.45,125.73 -5.92,9.75 -0.5,-1.5 -5.71,10.12 18.82,-1.07 8.94,1.12 22.41,-11.07 9.98,-9.02 6.81,-1.1 14.39,-15.54 4.38,4.3 1.97,-2.62 1.07,5.65z"/>
    <path class="fil24" d="M1174.9 311.97l4.64 -6.35c11.35,-14.95 10.28,-12.8 23.65,-19.78 96.67,-50.52 104.27,-16.77 129.53,-26.93 8.23,-3.31 29.48,-49.53 73.91,-56.91 53.15,-8.84 78.34,42.49 85.22,44.44 18.28,5.19 38.88,-46.6 101.3,-14.16l7.25 3.48c13.8,8.2 21.92,39.89 24.14,58.78 2.67,22.76 3.7,5.86 21.88,27.06 36.99,43.16 -13.64,51.59 1.63,88.49 8.84,21.37 8.3,26.11 -16.74,32.95l3.53 4.73c15.41,21.51 11.45,45.54 0.94,54.65 -30.2,26.18 -36.43,-7.5 -67.93,-19.23 -20.57,-7.65 -40.66,-2.19 -51.28,10.08 -15.06,17.39 -9.72,28.09 -19.36,46.81 -24.96,48.53 -7.33,15.29 -8.86,49.84 -1.9,42.72 -70.98,46.82 -84.45,49.3 2.29,16.93 13.6,22.18 31.23,25.32 -9.26,1.69 -3.31,2.43 -7.71,6.37 24.43,-7.17 118.65,-48.05 122.18,-78.3 3.79,-32.4 -62.56,-38.62 -14.52,-75 15.15,-11.48 33.69,-12.69 53.21,-2.06 18.7,10.18 34.96,18.14 51.53,3.4 12.71,-11.3 26.18,-18.48 37.92,-29.24 5.12,-24.08 -6.44,-36.88 -3.28,-57.48 3.52,-22.99 36.61,-115.63 -35.91,-139.37 -1.46,-29.09 -5.01,-49.13 -23.83,-64.52 -47.79,-39.08 -84.78,-8.86 -108.32,-20.76 -23.49,-11.87 -43.42,-33.55 -103.87,-36.11 -27.66,-1.16 -54.97,11.26 -71.3,21.22 -6.82,4.16 -21.4,14.56 -25.24,18.48 -11.27,11.53 -4.1,16.84 -24.84,21.28 -56.98,12.21 -95.59,-10.8 -106.25,79.52z"/>
    <path class="fil24" d="M1007.67 789.23c-29.14,-8.23 -50.78,-9.58 -76.61,-27.18 -29.67,-20.22 -22.94,-41.4 -32.47,-73.12 -14.41,-6.15 -37.83,-6.65 -59.4,-21.69 -16.81,-11.72 -26.95,-27.91 -28.24,-51.33 -1.97,-35.77 17.89,-72.55 42.79,-95.49 1.92,-1.77 5.29,-4.7 5.76,-5.14l6.78 -6.54c-53.49,12.9 -100.63,46.47 -101.2,107.17 -0.63,66.46 41.56,93.77 107.57,100.61 9.27,83.84 108.17,112.07 135.02,72.71z"/>
    <path class="fil24" d="M899.23 495.96c8.27,-2.94 3.75,7.26 7.89,-6.12 2.8,5.93 -0.23,5.31 10.79,6.83 49.94,6.9 -10.71,-53.06 -10.22,-91.09 0.41,-31.43 5.42,-47.67 13.35,-74.54 4.63,-15.67 -0.62,-10.16 1.05,-26.41 -39.13,27.42 -63.43,41.96 -70.81,86.95 -5.17,31.52 3.79,64.66 28.73,85.16 24,19.72 17.56,5.73 19.22,19.22z"/>
    <path class="fil24" d="M1199.75 1172.52c-10.87,1.88 -0.84,6.03 -7.28,-1.21 7.96,-12.92 8.93,-46.04 2.29,-62.3 -14.5,-35.51 -21.48,-17.25 -49.74,-25.76 5.73,10 5.1,6.29 11.48,13.6 45.85,52.54 -4.08,79.13 -11.51,107.46 23.08,0.47 45.63,-18.66 54.76,-31.79z"/>
   </g>
  </g>
 </g>
</svg>
