<?xml version="1.0" encoding="UTF-8"?>
<!DOCTYPE svg PUBLIC "-//W3C//DTD SVG 1.1//EN" "http://www.w3.org/Graphics/SVG/1.1/DTD/svg11.dtd">
<!-- Creator: CorelDRAW -->
<svg xmlns="http://www.w3.org/2000/svg" xml:space="preserve" width="16.0866mm" height="25.3998mm" version="1.1" style="shape-rendering:geometricPrecision; text-rendering:geometricPrecision; image-rendering:optimizeQuality; fill-rule:evenodd; clip-rule:evenodd"
viewBox="0 0 1608.66 2539.98"
 xmlns:xlink="http://www.w3.org/1999/xlink"
 xmlns:xodm="http://www.corel.com/coreldraw/odm/2003">
 <defs>
  <style type="text/css">
   <![CDATA[
    .fil4 {fill:#6C6C6C}
    .fil2 {fill:#929292}
    .fil3 {fill:#A4A4A4}
    .fil1 {fill:#B6B6B6}
    .fil0 {fill:#E4E4E4}
   ]]>
  </style>
 </defs>
 <g id="Camada_x0020_1">
  <metadata id="CorelCorpID_0Corel-Layer"/>
  <g id="_3134793155312">
   <path class="fil0" d="M439.84 280c66.64,174.18 428.98,187.11 594.62,118.48 48.44,-20.07 131.38,-69.52 132.32,-122.68 25.32,168.13 -202.52,214.86 -362.56,218.43 -137.33,3.07 -376.85,-36.81 -364.38,-214.23zm507.92 -95.92c6.87,56.57 4.7,81.9 -32.29,103.16 -52.78,30.34 -284.36,69.42 -254.51,-101.97 53.18,74.28 225.77,77.82 286.8,-1.19zm-802.22 178.97c27.54,43.63 10.41,62.73 93.9,133.8 42.39,36.08 89.93,63.24 148.94,85.94 273.3,105.18 715.36,107.04 961.36,-70.77 71.23,-51.49 86.69,-107.54 109.29,-128.02l3.12 -16.7c-2.75,-89.47 -13.25,-130.95 -66.01,-180.09 -291.24,-271.22 -959.92,-224.13 -1179.61,-9.53 -50.42,49.24 -68.96,90.19 -70.99,185.37z"/>
   <path class="fil1" d="M145.84 1275.16c33.87,55.36 15.38,63.77 100.82,136.87 41.88,35.82 93.19,61.35 151.9,83.11 290.62,107.7 715.71,100.06 968.05,-92.06 76.91,-58.55 73.61,-97.12 95.97,-143.11l0.05 -391.83c-33.51,47.71 -16.62,64.83 -101.51,136.8 -37.97,32.19 -96.34,60.61 -152.07,82.95 -270.01,108.18 -901.94,117.87 -1052.22,-199.57l-11.39 -20.05 0.4 406.89z"/>
   <path class="fil1" d="M145.72 830.01c38.54,63.22 34.82,92.72 98.15,137.17 339.25,238.08 1003.85,182.52 1180.44,-64.57 24.24,-33.92 21.52,-50.3 38.18,-84.59l-0.01 -381.26c-41.49,63.04 -11.93,60.7 -104.32,138.71 -45.53,38.45 -91.01,58.83 -151.57,83.12 -285.77,114.66 -853.83,88.47 -1019.72,-144.12 -16.88,-23.65 -25.34,-54.2 -41.28,-77.58l0.13 393.12z"/>
   <path class="fil1" d="M146.24 1633.46l-0.16 5.77c70.82,116.82 79.67,151.22 253.77,219.4 273.91,107.25 724.54,95.55 964.12,-86.6 30.56,-23.24 35.79,-28.27 57.72,-59.87 24.92,-35.9 25.08,-55.62 41.73,-82.76l-0.84 -319.95c-14.91,24.24 -29.61,60.84 -45.66,81.56 -124.04,160.1 -418.37,205 -612.73,207.98 -146.54,2.24 -280.88,-23.12 -406.54,-68.76 -60.64,-22.02 -108.52,-50.75 -151.23,-83.62 -78.16,-60.15 -76.09,-101.57 -100.88,-136.27l0.7 323.12z"/>
   <path class="fil2" d="M1463.42 1629.4c-16.65,27.14 -16.81,46.86 -41.73,82.76 -21.93,31.6 -27.16,36.63 -57.72,59.87 -239.58,182.15 -690.21,193.85 -964.12,86.6 -174.1,-68.18 -182.95,-102.58 -253.77,-219.4 -0.51,34.25 -2.65,75.19 6.45,103.83 7.59,43.4 31.51,80.53 58.41,104.61 25.57,11.11 49.87,61.21 216.01,121.68 90.67,33 200.37,51.55 302.96,55.93l-0.13 226.76 1.19 255.39 64.35 31.1c15.32,-26.81 6.71,-471.69 6.71,-500.54l74.52 -36.18c-2.78,54.51 -16.98,208.68 3.58,246.47 2.71,-54.87 -7.78,-180.55 5.85,-223.79 139.33,-6.01 360.85,-53.55 468.42,-144.96 11.71,-9.94 34.2,-33.31 43.96,-32.48 24.23,-20.25 46.44,-74.57 64.23,-109.63l0.54 407.96 70.79 33.35 0.77 -494.77c5.16,-20.51 34.74,-23.58 51.41,-35.46 17.99,-12.82 7.45,-4.09 16.32,-15.7 -19.97,-11.17 -51.64,-32.78 -74.82,-28.64 -28.47,5.1 -44.37,31.2 -64.18,25.24z"/>
   <path class="fil1" d="M880.13 2248.28c133.02,-4.86 254.16,-74.7 329.61,-134.06 48.8,-38.39 172.71,-188.16 188.62,-267.17 -9.76,-0.83 -32.25,22.54 -43.96,32.48 -107.57,91.41 -329.09,138.95 -468.42,144.96 -13.63,43.24 -3.14,168.92 -5.85,223.79z"/>
   <path class="fil1" d="M729.78 2252.04l0.13 -226.76c-102.59,-4.38 -212.29,-22.93 -302.96,-55.93 -166.14,-60.47 -190.44,-110.57 -216.01,-121.68 5.37,37.16 61.59,122.31 82.45,151.06 29.34,40.43 71.76,87.29 109.74,118.03 106.48,86.17 169.16,98.91 326.65,135.28z"/>
   <path class="fil3" d="M145.72 830.01l-0.28 38.26 11.39 20.05c150.28,317.44 782.21,307.75 1052.22,199.57 55.73,-22.34 114.1,-50.76 152.07,-82.95 84.89,-71.97 68,-89.09 101.51,-136.8l-0.14 -50.12c-16.66,34.29 -13.94,50.67 -38.18,84.59 -176.59,247.09 -841.19,302.65 -1180.44,64.57 -63.33,-44.45 -59.61,-73.95 -98.15,-137.17z"/>
   <path class="fil1" d="M145.74 402.47c17.63,28.47 15.7,42.69 41.75,76.71 25.99,33.95 24.08,33.49 58.24,59.55 147.4,112.43 374.13,157.05 565.68,152.06 142.35,-3.71 282.73,-20.78 404.47,-70.79 101.61,-41.73 235.67,-120.95 243.15,-236 -22.6,20.48 -38.06,76.53 -109.29,128.02 -246,177.81 -688.06,175.95 -961.36,70.77 -59.01,-22.7 -106.55,-49.86 -148.94,-85.94 -83.49,-71.07 -66.36,-90.17 -93.9,-133.8l0.2 39.42z"/>
   <path class="fil3" d="M145.84 1275.16l-0.3 35.18c24.79,34.7 22.72,76.12 100.88,136.27 42.71,32.87 90.59,61.6 151.23,83.62 125.66,45.64 260,71 406.54,68.76 194.36,-2.98 488.69,-47.88 612.73,-207.98 16.05,-20.72 30.75,-57.32 45.66,-81.56l0 -49.48c-22.36,45.99 -19.06,84.56 -95.97,143.11 -252.34,192.12 -677.43,199.76 -968.05,92.06 -58.71,-21.76 -110.02,-47.29 -151.9,-83.11 -85.44,-73.1 -66.95,-81.51 -100.82,-136.87z"/>
   <path class="fil3" d="M1459.03 384c-7.48,115.05 -141.54,194.27 -243.15,236 -121.74,50.01 -262.12,67.08 -404.47,70.79 -191.55,4.99 -418.28,-39.63 -565.68,-152.06 -34.16,-26.06 -32.25,-25.6 -58.24,-59.55 -26.05,-34.02 -24.12,-48.24 -41.75,-76.71l-0.15 34.42c15.94,23.38 24.4,53.93 41.28,77.58 165.89,232.59 733.95,258.78 1019.72,144.12 60.56,-24.29 106.04,-44.67 151.57,-83.12 92.39,-78.01 62.83,-75.67 104.32,-138.71l-0.33 -69.46 -3.12 16.7z"/>
   <path class="fil1" d="M439.84 280c-12.47,177.42 227.05,217.3 364.38,214.23 160.04,-3.57 387.88,-50.3 362.56,-218.43 -0.94,53.16 -83.88,102.61 -132.32,122.68 -165.64,68.63 -527.98,55.7 -594.62,-118.48z"/>
   <path class="fil2" d="M68.39 2179.53l2.11 -502.46c30.24,-21.51 50.27,-20.99 68.98,-43.61 -82.24,-49.13 -69.6,-26.55 -139.48,0.27l0.57 511.91 67.82 33.89z"/>
   <path class="fil4" d="M68.39 2179.53l77.46 -32.7 6.68 -403.77c-9.1,-28.64 -6.96,-69.58 -6.45,-103.83l0.16 -5.77 -6.76 0c-18.71,22.62 -38.74,22.1 -68.98,43.61l-2.11 502.46z"/>
   <path class="fil4" d="M795.32 2538.53c21.66,7.6 58.1,-16.24 82.19,-31.68l2.62 -258.57c-20.56,-37.79 -6.36,-191.96 -3.58,-246.47l-74.52 36.18c0,28.85 8.61,473.73 -6.71,500.54z"/>
   <path class="fil4" d="M1533.92 2178.73l74.75 -31.09 -4.32 -509.23c-0.24,-3.04 -1.08,-3.83 -1.93,-5.61 -8.87,11.61 1.67,2.88 -16.32,15.7 -16.67,11.88 -46.25,14.95 -51.41,35.46l-0.77 494.77z"/>
   <path class="fil1" d="M947.76 184.08c-61.03,79.01 -233.62,75.47 -286.8,1.19 -29.85,171.39 201.73,132.31 254.51,101.97 36.99,-21.26 39.16,-46.59 32.29,-103.16z"/>
  </g>
 </g>
</svg>
