<?xml version="1.0" encoding="UTF-8"?>
<!DOCTYPE svg PUBLIC "-//W3C//DTD SVG 1.1//EN" "http://www.w3.org/Graphics/SVG/1.1/DTD/svg11.dtd">
<!-- Creator: CorelDRAW -->
<svg xmlns="http://www.w3.org/2000/svg" xml:space="preserve" width="97mm" height="120mm" version="1.1" style="shape-rendering:geometricPrecision; text-rendering:geometricPrecision; image-rendering:optimizeQuality; fill-rule:evenodd; clip-rule:evenodd"
viewBox="0 0 9700 12000"
 xmlns:xlink="http://www.w3.org/1999/xlink"
 xmlns:xodm="http://www.corel.com/coreldraw/odm/2003">
 <defs>
  <style type="text/css">
   <![CDATA[
    .fil3 {fill:#427C00}
    .fil1 {fill:#539A00}
    .fil4 {fill:#75AF33}
    .fil2 {fill:#825012}
    .fil0 {fill:#4B4B4D;fill-opacity:0.200000}
   ]]>
  </style>
 </defs>
 <g id="Camada_x0020_1">
  <metadata id="CorelCorpID_0Corel-Layer"/>
  <path class="fil0" d="M5816.9 10165.03c-818.27,-21.06 -817.64,-60.74 -1933.66,-24.9 -486.08,69.71 -4412.95,272.29 -3783.69,1082.54 439.02,565.3 3115.36,774.42 4638.5,779.99 5841.39,21.36 6779.23,-1607.53 1078.85,-1837.63z"/>
  <path class="fil1" d="M2022.33 4316.23c-197.38,-71.03 -349.26,-85 -549.14,-113.37l-59.3 -516.18c183.31,46.58 190.67,89.3 295.52,203.96 197.39,215.88 675.21,50.99 795.19,644.62 -125.56,-22.88 -310.24,-157.13 -482.27,-219.03zm5285.6 -434.03c40.58,-170.54 156.88,-298.35 294.97,-384.59 444.12,-277.38 588.46,-819.78 1428.88,-517.56l-146.12 47.96c-617.08,130.03 -554.26,328.28 -710.07,445.48 -182.12,137.01 -503.15,-6.16 -867.66,408.71zm-1136.89 -1289.23c883.95,62.6 1217.36,-425.94 1396.06,-507.48 29.79,-13.59 441.12,-84.21 522.81,-102.25 -140.4,571.91 -589.22,641.47 -1051.1,629.13 -174.83,350.96 -702.05,273.34 -867.77,-19.4zm-2128.44 -1259.55c24.57,-309.91 381.1,-447.54 472.17,-513.36 58.17,-42.04 104.28,-105.95 155.55,-163.5 189.6,-212.8 513.26,-430.31 946.35,-374.72l-91.63 65.42c-358.71,217.49 -543.46,273.73 -796.14,818.49 -260.25,-35.95 -530.62,54.66 -686.3,167.67zm-2648.21 688.64c50.27,-67.66 61.57,99.2 53.34,-108.99 181.07,701.26 774.74,1299.06 1553.08,1423.47 313.86,50.16 397.23,-43.27 590.08,146.78 488.9,481.81 1052.68,487.41 1654.56,421.97 -405.65,297.26 -945.51,444.89 -1465.58,92.55 -117.34,-79.5 -97.36,-116.38 -258.89,-82.25 -1167.69,246.8 -2078.05,-451.07 -2148.68,-1631.06 -88.34,87.84 -205.44,121.49 -312.83,183.18 -280.61,161.21 -577.97,455.09 -754.16,763.23 -302.04,528.24 -381.82,1282.31 -235.7,1606.87 3.48,7.72 10.92,19.53 13.97,25.69 3.05,6.21 9,17.52 14.84,25.39 52.66,-35.72 16.41,-13.07 76.28,43.19l360.77 279.51c978.63,609.88 1797.09,81.84 2024.62,62 392,363.36 1004.43,627.84 1728.28,440.03 438.24,-113.71 684.89,-356.46 790.89,-358.31 144.45,-2.53 345.85,231.31 918.73,64.16 -170.68,248.12 -486.7,511.88 -940.37,360.64 -76.53,118.4 -33.28,111.31 -131.39,211.26l71.01 98.37c91.93,47.77 156.63,102.64 241.05,159.2l231.99 95.47c334.81,-23.33 312.44,112.45 524.95,205.4l105.83 -34.85c265.53,-36.11 449.29,47.53 917.47,-178.22 315.79,-152.28 481.93,-348.2 698.85,-570.54 580.96,104.44 894.64,229.82 1557.27,-164.39 379.94,-226.03 269.39,-309.79 365.33,-225.87 101.5,-136.31 58.48,-624.99 -32.57,-837.08 -39.33,-91.6 -161,-277.49 -174.08,-316.82 -42.08,-126.58 332.17,-592.99 -74.26,-1094.44 -183.03,-225.82 -307.21,-274.21 -604.33,-381.11 -58.55,-50 -89.64,-370.47 -401.49,-726 -85.92,-97.96 -152.3,-111.45 -204.12,-183.23 -77.8,-107.77 -56.79,-353.25 -191.37,-551.68 -147.24,-217.11 -221.87,-183.04 -402.18,-371.78 -699.69,-732.42 -953.28,-587.1 -1562.73,-633.39 -96.24,-7.31 -1310.92,-688.88 -2358.62,111.34 -343.75,262.56 -83.34,155.61 -594.3,170.63 -850.21,24.99 -1545.59,667.81 -1645.54,1459.68z"/>
  <path class="fil2" d="M4257.88 6479.09l4.61 803.08c-256.24,-81.11 -278.48,-464.37 -228.47,-790.33l-271.27 -12.56 7.44 144.83c-260.48,10.08 -434.7,-121.46 -451.11,-357.47 -43.04,-28.81 1.44,-26.53 -79.3,-11.63 -3.63,0.67 -66.59,26.48 -68.89,27.57 -44.95,21.34 -113.01,61.44 -148.25,90.26 96.44,106.39 105.02,271.24 249.62,397.67 216.36,189.18 464.64,137.95 476.01,223.33 1.86,13.92 10.04,19.48 12.49,25.66 86.8,219 58.88,366.77 339.26,544.89 108.82,69.13 124.41,32.87 162.47,146.16l-1.63 2367.37c4.32,350.12 -27.5,834.23 28.27,1147.85 199.8,114.61 620,178.14 696.26,-108.13 37.66,-141.39 8.37,-809.94 13.87,-1013.35l-2.85 -1934.44c18.46,-86.02 139.69,-121.39 204.69,-161.99 86.43,-53.97 113.35,-88.44 168.68,-181.31 126.71,-212.65 114.49,-347.05 114.49,-628.48 210,-48 730.04,-76.37 857.26,-481.78l-208.52 -90.68c-106.66,193.2 -401.66,254.35 -647.47,219.51l-15.26 -500.71 -231.99 -95.47c0.59,287.45 -0.37,574.92 0.67,862.37 1.14,314.97 1.56,495.21 -241.41,590.39l-0.31 -1611.96 -71.01 -98.37c-64.26,26.11 -187.65,214.1 -284.97,289.24 -143.56,110.85 -235.47,114.92 -383.38,198.48z"/>
  <path class="fil3" d="M3022.64 6372.84c35.24,-28.82 103.3,-68.92 148.25,-90.26 2.3,-1.09 65.26,-26.9 68.89,-27.57 80.74,-14.9 36.26,-17.18 79.3,11.63 125.29,55.8 270.08,137.48 443.67,212.64l271.27 12.56 223.86 -12.75c147.91,-83.56 239.82,-87.63 383.38,-198.48 97.32,-75.14 220.71,-263.13 284.97,-289.24 98.11,-99.95 54.86,-92.86 131.39,-211.26 453.67,151.24 769.69,-112.52 940.37,-360.64 -572.88,167.15 -774.28,-66.69 -918.73,-64.16 -106,1.85 -352.65,244.6 -790.89,358.31 -723.85,187.81 -1336.28,-76.67 -1728.28,-440.03 -227.53,19.84 -1045.99,547.88 -2024.62,-62l-360.77 -279.51c-59.87,-56.26 -23.62,-78.91 -76.28,-43.19 -15.16,266.18 226.78,625.16 356.12,791.09 171,219.36 373.54,410.6 634.26,565.8 669.57,398.54 1241.78,355.79 1933.84,127.06z"/>
  <path class="fil3" d="M1394.39 2022.06l-22.09 262.47c70.63,1179.99 980.99,1877.86 2148.68,1631.06 161.53,-34.13 141.55,2.75 258.89,82.25 520.07,352.34 1059.93,204.71 1465.58,-92.55 -601.88,65.44 -1165.66,59.84 -1654.56,-421.97 -192.85,-190.05 -276.22,-96.62 -590.08,-146.78 -778.34,-124.41 -1372.01,-722.21 -1553.08,-1423.47 8.23,208.19 -3.07,41.33 -53.34,108.99z"/>
  <path class="fil3" d="M5995.23 6549.81l137.78 75.8 208.52 90.68c659.35,109.82 894.21,108.93 1444.24,-211.26 227.3,-132.32 782.71,191.71 1409.19,-347.92 181.95,-156.72 453.97,-474.82 445.02,-781.17 -95.94,-83.92 14.61,-0.16 -365.33,225.87 -662.63,394.21 -976.31,268.83 -1557.27,164.39 -216.92,222.34 -383.06,418.26 -698.85,570.54 -468.18,225.75 -651.94,142.11 -917.47,178.22l-105.83 34.85z"/>
  <path class="fil3" d="M6171.04 2592.97c165.72,292.74 692.94,370.36 867.77,19.4 461.88,12.34 910.7,-57.22 1051.1,-629.13 -81.69,18.04 -493.02,88.66 -522.81,102.25 -178.7,81.54 -512.11,570.08 -1396.06,507.48z"/>
  <path class="fil4" d="M4042.6 1333.42c155.68,-113.01 426.05,-203.62 686.3,-167.67 252.68,-544.76 437.43,-601 796.14,-818.49l91.63 -65.42c-433.09,-55.59 -756.75,161.92 -946.35,374.72 -51.27,57.55 -97.38,121.46 -155.55,163.5 -91.07,65.82 -447.6,203.45 -472.17,513.36z"/>
  <path class="fil4" d="M7307.93 3882.2c364.51,-414.87 685.54,-271.7 867.66,-408.71 155.81,-117.2 92.99,-315.45 710.07,-445.48l146.12 -47.96c-840.42,-302.22 -984.76,240.18 -1428.88,517.56 -138.09,86.24 -254.39,214.05 -294.97,384.59z"/>
  <path class="fil4" d="M1473.19 4202.86c199.88,28.37 351.76,42.34 549.14,113.37 172.03,61.9 356.71,196.15 482.27,219.03 -119.98,-593.63 -597.8,-428.74 -795.19,-644.62 -104.85,-114.66 -112.21,-157.38 -295.52,-203.96l59.3 516.18z"/>
 </g>
</svg>
