<?xml version="1.0" encoding="UTF-8"?>
<!DOCTYPE svg PUBLIC "-//W3C//DTD SVG 1.1//EN" "http://www.w3.org/Graphics/SVG/1.1/DTD/svg11.dtd">
<!-- Creator: CorelDRAW -->
<svg xmlns="http://www.w3.org/2000/svg" xml:space="preserve" width="76mm" height="127mm" version="1.1" style="shape-rendering:geometricPrecision; text-rendering:geometricPrecision; image-rendering:optimizeQuality; fill-rule:evenodd; clip-rule:evenodd"
viewBox="0 0 7600 12700"
 xmlns:xlink="http://www.w3.org/1999/xlink"
 xmlns:xodm="http://www.corel.com/coreldraw/odm/2003">
 <defs>
  <style type="text/css">
   <![CDATA[
    .fil2 {fill:#427C00}
    .fil5 {fill:#537E22}
    .fil0 {fill:#539A00}
    .fil4 {fill:#75AF33}
    .fil3 {fill:#825012}
    .fil6 {fill:#95AB7A}
    .fil1 {fill:#4B4B4D;fill-opacity:0.200000}
   ]]>
  </style>
 </defs>
 <g id="Camada_x0020_1">
  <metadata id="CorelCorpID_0Corel-Layer"/>
 </g>
 <g id="Camada_x0020_1_2">
  <metadata id="CorelCorpID_1Corel-Layer"/>
 </g>
 <g id="Camada_x0020_1_3">
  <metadata id="CorelCorpID_2Corel-Layer"/>
  <g id="_2202083813456">
   <path class="fil0" d="M2485.21 6315.02c218.21,-699.39 836.32,-1057.43 1441.95,-911.54 396.69,95.56 179.89,181.3 513.99,-31.9 791.01,-504.8 1915.94,-89.23 2181.4,539.77 -386.12,-139.79 -495.44,-320.92 -1085.42,-285.15 -571.3,34.63 -720.14,245.98 -987.66,383.06 -165.13,84.61 -159.68,-35.8 -522.11,-110.11 -790.02,-161.97 -1132.08,193.86 -1542.15,415.87zm-108.73 -219.78c-781.61,-84.37 -668.18,-833.35 -663.99,-1341.62l240.25 62.28c24.08,548.51 -92.3,898.19 494.35,977.95l-70.61 301.39zm2452.07 -1811.75c358.33,-269.59 318.1,-200.71 318.51,-910.07l239.26 52.87c17.29,328.02 44.52,710.21 -164.79,927.72l-392.98 -70.52zm-1153.73 -1353c-336.82,-56.74 -260.3,-415.07 -241.33,-770.77 312.42,44.28 241.33,-28.58 241.33,770.77zm710.51 -2121.58c412.3,183.2 363.89,311.32 532.3,728.04 478.19,-223.38 1590.42,58.03 1418.95,1341.42 -83.17,-113.72 -147.23,-287.13 -243.26,-404.21 -370.01,-451.17 -839.42,-568.43 -1431.27,-472.47 -96.73,-347.81 -162.45,-563.98 -378.18,-741.41 -271.45,-223.29 -399.61,-230.36 -833.97,-292.7 33.03,-10.64 128.19,-149.59 375.36,-206.81 190,-43.99 385.08,-29.61 560.07,48.14zm-3671.57 1236.14c53.68,44.84 112.79,489.74 166.05,610.55 33.77,76.6 83.4,175.75 129.64,253.88 69.94,118.16 115.41,131.09 128.23,251.8l35.3 0c312.45,-348.37 1574.29,-415.68 1880.93,729.23 195.44,54.13 668.27,80.54 852.38,493.06 -322.09,114.04 -358.18,-332.8 -1217.72,-207.69 -240.18,-434.38 -607.65,-774.42 -1321.79,-749.9 -252.89,42.85 -318.84,56.91 -552.09,158.62 -23.55,45.82 21.43,33.55 -82.54,66.19 -211.05,66.26 -52.56,34.14 -126.24,-5.33 -11.89,113.7 29.65,26.37 -73.8,113.28 -123.19,103.49 -162.83,105.43 -305.71,328.81 -431.53,674.69 -198.91,1567.49 269.54,1900.32l21.81 -85.83c311.58,526.91 849.81,944.62 1438.07,1097.63 311.27,80.96 479.97,30.95 773.99,78.11 230.97,399.12 114.98,174.21 289.2,382.64 852.16,1019.55 2513.67,1079.31 3471.09,214.83 17.52,25.86 22.23,-37.69 15.21,72.48 213.01,-133.14 323.54,-645.89 369.91,-931.3l-25.21 -628.02c171.99,-19.33 495.64,-277.26 573.21,-372.75 55.59,-68.41 9.72,-30.14 79.41,-96.17 7.29,-6.91 40.68,-33.54 43.95,-36.27 5.48,-4.54 20.71,-4.66 24.81,-18.13 4.2,-13.79 17.22,-12 25.59,-18.31 6.86,-289.45 -6.93,-480.23 -108.65,-737.29 -108.68,-274.63 -253.71,-372.3 -338.5,-584.69l-24.99 65.27c-117.71,321.44 -210.08,384.05 -461.58,634.49 -357.3,355.81 -154.33,122.6 -603.93,-200.52l-412.23 -310.02c511.42,-48.46 911.9,-135.48 1317.85,-456.42 122.08,-96.51 213.57,-138.96 298.64,-263.17l22.28 58.49c243.55,-278.08 -69.22,-1239.16 -215.57,-1507.15 -165.5,-303.09 -609.07,-784.47 -944.19,-881.07 4.28,-364.05 -98.99,-641.17 -274.03,-853.37 -138.83,-168.31 -438.04,-347.72 -770.5,-364.09 -237.43,-11.69 -354.29,71.32 -498.71,76.67 -208.37,7.73 -513.69,-399.86 -1369.29,-311.32 -1168.03,120.86 -1458.23,1050.38 -1641.1,1171.16 -274.94,181.62 -695.04,394.17 -858.72,861.3z"/>
   <path class="fil1" d="M4568.07 10764.97c-401.18,0 -401.18,0 -1142.01,2.42 -1305.61,70.23 -3752.07,427.93 -3384.26,1102.02 299.56,549.06 2233.75,826.47 3719.71,830.52 4374.93,11.91 5487.39,-1630.32 806.56,-1934.96z"/>
   <path class="fil2" d="M495.94 5987.87c-29.56,955.84 881.28,1888.59 1703.47,2012.62l236.91 41.11 253.42 27.31c177.49,-18.35 154.22,-34.73 251.59,46.25 108.73,71.86 122.25,108.07 236.02,207.22 74.84,65.23 154.8,104.9 240.65,176.1 271.72,101.69 396.39,197.28 746.86,275.88l477.39 47.08 265.69 -24.32c381.82,-67.49 687.35,-173.34 957.68,-360.28 137.58,-95.13 264.73,-198.4 365.34,-302.32 114.52,-118.27 248.8,-246.4 274.35,-386.79 7.02,-110.17 2.31,-46.62 -15.21,-72.48 -957.42,864.48 -2618.93,804.72 -3471.09,-214.83 -174.22,-208.43 -58.23,16.48 -289.2,-382.64 -294.02,-47.16 -462.72,2.85 -773.99,-78.11 -588.26,-153.01 -1126.49,-570.72 -1438.07,-1097.63l-21.81 85.83z"/>
   <path class="fil3" d="M3426.07 10767.39c17.42,773.17 -131.16,1180.25 352.6,1195.4 525.68,16.45 373.45,-419.25 388.22,-1197.82 -3.66,-1931.32 -52.86,-911.21 494.47,-1423.15 155.27,-145.22 203.52,-284.52 246.58,-544.7l-265.69 24.32c-52.41,245.83 -187.92,350.02 -477.39,389.79l0 -436.87c-350.47,-78.6 -475.14,-174.19 -746.86,-275.88l0.98 376.15c-414.59,-93.21 -478.18,-314.45 -477.65,-759.47 -97.37,-80.98 -74.1,-64.6 -251.59,-46.25l-1.33 362.92c-116.01,-54.81 -182.42,-139.27 -216.26,-284.09l-35.83 -106.14 -236.91 -41.11c8.76,198.75 47.48,354.63 137.28,493.23 143.08,220.81 211.08,133.34 360.68,271.13 276.31,254.49 -61.43,272.83 621.66,504.99 139.06,47.26 47.15,-40.44 109.37,69.46l-2.33 1428.09z"/>
   <path class="fil4" d="M2485.21 6315.02c410.07,-222.01 752.13,-577.84 1542.15,-415.87 362.43,74.31 356.98,194.72 522.11,110.11 267.52,-137.08 416.36,-348.43 987.66,-383.06 589.98,-35.77 699.3,145.36 1085.42,285.15 -265.46,-629 -1390.39,-1044.57 -2181.4,-539.77 -334.1,213.2 -117.3,127.46 -513.99,31.9 -605.63,-145.89 -1223.74,212.15 -1441.95,911.54z"/>
   <path class="fil4" d="M3449.9 967.58c434.36,62.34 562.52,69.41 833.97,292.7 215.73,177.43 281.45,393.6 378.18,741.41 591.85,-95.96 1061.26,21.3 1431.27,472.47 96.03,117.08 160.09,290.49 243.26,404.21 171.47,-1283.39 -940.76,-1564.8 -1418.95,-1341.42 -168.41,-416.72 -120,-544.84 -532.3,-728.04 -174.99,-77.75 -370.07,-92.13 -560.07,-48.14 -247.17,57.22 -342.33,196.17 -375.36,206.81z"/>
   <path class="fil4" d="M1172.98 3161.28c54.23,153.16 100.92,147.58 193.8,264.7 714.14,-24.52 1081.61,315.52 1321.79,749.9 859.54,-125.11 895.63,321.73 1217.72,207.69 -184.11,-412.52 -656.94,-438.93 -852.38,-493.06 -306.64,-1144.91 -1568.48,-1077.6 -1880.93,-729.23z"/>
   <path class="fil2" d="M7149.83 4324.8c81.56,-117.67 143.73,-308.04 136.04,-471.88l-22.28 -58.49c-85.07,124.21 -176.56,166.66 -298.64,263.17 -405.95,320.94 -806.43,407.96 -1317.85,456.42l412.23 310.02c449.6,323.12 246.63,556.33 603.93,200.52 251.5,-250.44 343.87,-313.05 461.58,-634.49l24.99 -65.27z"/>
   <path class="fil2" d="M605.91 3645.46c73.68,39.47 -84.81,71.59 126.24,5.33 103.97,-32.64 58.99,-20.37 82.54,-66.19 99.66,-265.39 172.73,-222.73 322.99,-423.32 -12.82,-120.71 -58.29,-133.64 -128.23,-251.8 -46.24,-78.13 -95.87,-177.28 -129.64,-253.88 -53.26,-120.81 -112.37,-565.71 -166.05,-610.55 -117.47,100.2 -204.89,506.92 -223.48,700.1 -34.12,354.66 28.42,591.63 115.63,900.31z"/>
   <path class="fil3" d="M2376.48 6095.24l70.61 -301.39c-586.65,-79.76 -470.27,-429.44 -494.35,-977.95l-240.25 -62.28c-4.19,508.27 -117.62,1257.25 663.99,1341.62z"/>
   <path class="fil2" d="M6875.22 6816.43c350.3,-161.07 648.38,-620.97 721.76,-1169.65 -8.37,6.31 -21.39,4.52 -25.59,18.31 -4.1,13.47 -19.33,13.59 -24.81,18.13 -3.27,2.73 -36.66,29.36 -43.95,36.27 -69.69,66.03 -23.82,27.76 -79.41,96.17 -77.57,95.49 -401.22,353.42 -573.21,372.75l25.21 628.02z"/>
   <path class="fil3" d="M4828.55 4283.49l392.98 70.52c209.31,-217.51 182.08,-599.7 164.79,-927.72l-239.26 -52.87c-0.41,709.36 39.82,640.48 -318.51,910.07z"/>
   <path class="fil3" d="M3674.82 2930.49c0,-799.35 71.09,-726.49 -241.33,-770.77 -18.97,355.7 -95.49,714.03 241.33,770.77z"/>
   <path class="fil5" d="M814.69 3584.6c233.25,-101.71 299.2,-115.77 552.09,-158.62 -92.88,-117.12 -139.57,-111.54 -193.8,-264.7l-35.3 0c-150.26,200.59 -223.33,157.93 -322.99,423.32z"/>
   <polygon class="fil6" points="2472.15,8147.74 2492.75,8062.05 2689.74,8068.91 2436.32,8041.6 "/>
  </g>
 </g>
</svg>
