<?xml version="1.0" encoding="UTF-8"?>
<!DOCTYPE svg PUBLIC "-//W3C//DTD SVG 1.1//EN" "http://www.w3.org/Graphics/SVG/1.1/DTD/svg11.dtd">
<!-- Creator: CorelDRAW 2020 (64 Bit) -->
<svg xmlns="http://www.w3.org/2000/svg" xml:space="preserve" width="500px" height="500px" version="1.1" style="shape-rendering:geometricPrecision; text-rendering:geometricPrecision; image-rendering:optimizeQuality; fill-rule:evenodd; clip-rule:evenodd"
viewBox="0 0 500 500"
 xmlns:xlink="http://www.w3.org/1999/xlink"
 xmlns:xodm="http://www.corel.com/coreldraw/odm/2003">
 <defs>
  <style type="text/css">
   <![CDATA[
    .fil0 {fill:white}
   ]]>
  </style>
 </defs>
 <g id="Camada_x0020_1">
  <metadata id="CorelCorpID_0Corel-Layer"/>
  <g id="_2132869617680">
   <path class="fil0" d="M158.17 243.57c12.11,-2.2 21.6,-1.97 33.46,1.3 72.48,20.03 71.76,127.91 -5.88,143.05 -45.32,8.84 -78.63,-22.85 -86.04,-57.38 -9.66,-44.94 22.68,-80.48 58.46,-86.97zm-84.06 -28.63c-4.79,-3 -6.77,-5.78 -14.58,-8.7 -31.49,-11.78 -64.35,21.69 -48.34,54.88 6.55,13.58 17.78,16.37 24.48,20.43 -2.51,35.94 -7.55,21.49 0.16,67.76 -4.54,4.05 -17.54,5.59 -24.84,21.63 -18.37,40.39 32.4,74.99 63.12,45.51 18.16,13.7 25.29,21.95 50.51,30.88l8.76 3.62c-6.19,48.4 47.01,63.73 69.41,33.55 7.83,-10.54 8.2,-19.41 7.43,-34.27 18.95,-5.72 46.91,-20.02 58.48,-33.95 5.57,3.59 6.64,5.36 14.25,8.31 18.55,7.2 38.07,-0.65 47.52,-15.66 8.59,-13.63 7.61,-31.92 -2.33,-45.16 -1.01,-1.35 -4.09,-4.6 -5.75,-5.98 -4.08,-3.39 -7.94,-5.36 -14.68,-7.53 3.34,-40.78 7.24,-19.52 -0.08,-68.94 46.8,-19.43 30.47,-71.37 -4.23,-76.8 -19.85,-3.11 -28.33,7.81 -35.18,10.54 -12.11,-15.08 -39.04,-28.13 -58.36,-34 10.93,-65.72 -88.19,-63.88 -76.24,-0.2 -49.45,18.15 -45.57,26.48 -59.51,34.08z"/>
   <path class="fil0" d="M310.43 65.05c26.91,-7.43 47.95,11.06 53.24,31.1 7.18,27.17 -11.46,48.39 -31.45,53.64 -53.61,14.07 -80.71,-68.47 -21.79,-84.74zm-62.82 82.8c-20.87,10.16 -12.59,46.4 15.46,42.9 8.45,-1.05 12.28,-6.23 16.92,-10.62 14.41,5.83 20,9.45 38.7,10.64 7.19,38.63 55.7,28.3 44.86,-10.86 2.61,-2.86 22.84,-15.15 28.19,-28.78 9.01,2.79 14.06,5.11 23.03,0.65 19.48,-9.68 18.29,-41.73 -9.96,-44.52 -0.22,-7.38 -1.24,-16.09 -2.82,-21.82 -1.74,-6.31 -4.66,-12.42 -6.84,-17.59 4.21,-5.67 9.68,-6.54 11.13,-17.05 3.09,-22.36 -23.12,-39.57 -43.84,-16.12 -12.59,-7.94 -23.37,-8.51 -39.05,-11.29 -2.41,-29.14 -35.97,-29.7 -44.95,-9.17 -3.61,8.26 -0.89,13.13 0.21,21.05 -22.33,15.41 -15.28,13.1 -28.9,28.04 -14.12,-6.95 -29.98,0.31 -33.95,13.28 -2.58,8.42 -0.07,16.25 3.75,21.73 4.47,6.41 11.04,7.59 18,9.37 0.78,8.29 1.23,13.95 3.26,21.56 2.01,7.56 4.71,12 6.8,18.6z"/>
   <path class="fil0" d="M401.06 271.84c17.05,-3.06 35.69,8.08 39.02,27 7.18,40.82 -45.72,54.03 -62.54,24.68l-2.85 -6.31c-7.98,-21.53 6.89,-41.87 26.37,-45.37zm51.13 -12.28c4.53,-11.81 8.85,-21.22 -5.13,-29.16 -5.83,-3.3 -12.16,-2.68 -17.5,0.07 -5.21,2.69 -6.21,5.95 -9.03,11.52 -13.94,-2.45 -18.04,-0.93 -31.08,0.53 -3.69,-5.28 -4.79,-9.02 -11.02,-11.26 -9.5,-3.41 -34.97,1.01 -20.14,30.74 -5.57,7.14 -12.19,15.78 -14.33,27.45 -29.32,-2.7 -31.88,38.47 1.3,35.66 2.97,13.37 9.67,18.63 15.56,26.81 -4.76,9.72 -7.66,22.19 5.22,28.76 17.56,8.96 26.09,-10.32 27.32,-11.63 9.31,1.47 22.49,2.09 29.97,-0.81 0.99,0.95 11.14,19.88 27.7,10.08 14.08,-8.32 8.1,-21.04 3.89,-29.01 5.03,-6.82 11.86,-15.83 14.29,-27.44 12.67,-0.29 22.79,-5.16 22.72,-18.1 -0.08,-13.32 -9.46,-18.03 -23,-18.27 -2.91,-5.38 -2.54,-7.06 -7.41,-14.79 -3.61,-5.72 -5.1,-6.66 -9.33,-11.15z"/>
  </g>
 </g>
</svg>
