<?xml version="1.0" encoding="UTF-8"?>
<!DOCTYPE svg PUBLIC "-//W3C//DTD SVG 1.1//EN" "http://www.w3.org/Graphics/SVG/1.1/DTD/svg11.dtd">
<!-- Creator: CorelDRAW 2020 (64 Bit) -->
<svg xmlns="http://www.w3.org/2000/svg" xml:space="preserve" width="500px" height="500px" version="1.1" style="shape-rendering:geometricPrecision; text-rendering:geometricPrecision; image-rendering:optimizeQuality; fill-rule:evenodd; clip-rule:evenodd"
viewBox="0 0 500 500"
 xmlns:xlink="http://www.w3.org/1999/xlink"
 xmlns:xodm="http://www.corel.com/coreldraw/odm/2003">
 <defs>
  <style type="text/css">
   <![CDATA[
    .fil0 {fill:white}
   ]]>
  </style>
 </defs>
 <g id="Camada_x0020_1">
  <metadata id="CorelCorpID_0Corel-Layer"/>
  <path class="fil0" d="M225.1 348l49.8 0 0 50.29c-2.7,-1.04 -47.1,-1.04 -49.8,0l0 -50.29zm274.9 86.23l0 4.33c-0.52,9.49 -4.56,18.41 -13.87,25.46 -8.05,6.09 -21.01,8.98 -31.05,8.98l-410.16 0c-10.28,0 -23.18,-3.03 -31.05,-8.98 -6.15,-4.66 -10.38,-10.29 -12.59,-17.69 -1.19,-3.99 -1.28,-6.42 -1.28,-10.19l0 -0.2 0 -0.2 0 -0.2 0 -0.21 0 -0.2 0 -0.21c0,-14.18 7.49,-25.59 14.13,-37.14 1.29,-2.23 2.51,-4.17 3.77,-6.49l37.48 -65.05c2.6,-4.43 5.14,-8.65 7.58,-12.93l65.73 -113.96c0.75,-1.23 1.16,-1.84 1.83,-3.05l56.28 -97.53c1.39,-2.3 2.48,-4.15 3.78,-6.47l14.99 -26.04c1.21,-2.24 2.42,-4.1 3.75,-6.49 5.97,-10.67 7.51,-15.46 17.86,-23.16 12.77,-9.49 25.07,-10.69 39.42,-4.04 12.31,5.71 18.4,16.33 24.25,27.03 1.3,2.37 2.36,4.22 3.74,6.51 15.02,25 30,52.6 44.97,78.07 2.63,4.47 4.88,8.61 7.51,13 2.63,4.39 4.87,8.63 7.51,13 10.03,16.56 20.02,35.33 30.03,52 15.03,25.01 30.09,53.24 44.98,78.07 2.63,4.39 4.87,8.63 7.51,13l22.53 39.01c2.71,4.35 4.84,8.56 7.5,12.99 7.56,12.57 14.96,26.55 22.53,39 5.69,9.36 9.81,19.87 10.34,29.98zm-274.9 -285.93l49.8 0 0 149.41 -49.8 0 0 -149.41z"/>
 </g>
</svg>
