<?xml version="1.0" encoding="UTF-8"?>
<!DOCTYPE svg PUBLIC "-//W3C//DTD SVG 1.1//EN" "http://www.w3.org/Graphics/SVG/1.1/DTD/svg11.dtd">
<!-- Creator: CorelDRAW 2020 (64 Bit) -->
<svg xmlns="http://www.w3.org/2000/svg" xml:space="preserve" width="500px" height="500px" version="1.1" style="shape-rendering:geometricPrecision; text-rendering:geometricPrecision; image-rendering:optimizeQuality; fill-rule:evenodd; clip-rule:evenodd"
viewBox="0 0 500 500"
 xmlns:xlink="http://www.w3.org/1999/xlink"
 xmlns:xodm="http://www.corel.com/coreldraw/odm/2003">
 <defs>
  <style type="text/css">
   <![CDATA[
    .fil0 {fill:white}
   ]]>
  </style>
 </defs>
 <g id="Camada_x0020_1">
  <metadata id="CorelCorpID_0Corel-Layer"/>
  <g id="_2402765885984">
   <path class="fil0" d="M331.04 252.35c0.05,-12.11 0.42,-19.03 13.96,-18.73 14.6,0.33 10.85,8.19 12.8,18.74 18.03,5.29 28.72,11.48 35.78,25.86 3.81,7.76 3.97,16.86 -5.76,18.94 -14.43,3.1 -14.01,-1.79 -18.75,-10.43 -7.84,-14.25 -26.74,-17.93 -42.91,-8.74 -13.46,7.64 -16.32,29.03 -4.37,40.63 10.89,10.56 28.97,10.29 45.52,15.45 37.67,11.74 43.91,51.37 27.73,77.01 -3.68,5.83 -9.89,11.85 -15.4,15.42 -10.11,6.55 -14.24,5.71 -21.41,8.38 -2.42,11.01 0.27,16.83 -14.2,16.58 -13.53,-0.24 -11.37,-6.15 -13.25,-16.58 -9.54,-4.06 -14.59,-3.49 -23.21,-9.41 -6.37,-4.38 -10.92,-9.69 -14.92,-16.73 -3.24,-5.7 -9.15,-18.29 -3.56,-24.53 4.51,-5.04 18,-6.41 22.35,1.24 1.72,3.03 2.65,8.47 4.62,12.14 14.84,27.71 64.73,20.47 60.96,-19.36 -1.8,-19.02 -19.77,-22.59 -37.5,-26.9 -19.73,-4.8 -33.29,-10.25 -42.22,-22.39 -9.9,-13.49 -11.39,-33.55 -3.44,-50.42 7.46,-15.81 21.01,-22.37 37.18,-26.17zm-3.37 -63.5c-24.31,3.13 -41.94,7.92 -60.17,18.1 -55.74,31.15 -88.11,88.06 -81.72,152.49 8.03,80.92 80.72,148.62 172.34,139.78 111.87,-10.78 176.24,-129.39 122.75,-230.32 -7.64,-14.43 -22.1,-32.65 -35.26,-43.08 -31.82,-25.22 -73.34,-42.72 -117.94,-36.97z"/>
   <path class="fil0" d="M331.86 78.35c-8.01,2.76 -19.14,16.69 -72.41,26.65 -63.99,11.96 -191.51,14.12 -250.51,-21.62 -3.47,-2.09 -4.7,-3.63 -8.3,-5.11 -0.41,11.23 -0.1,23.26 -0.1,34.58 -0.01,10.28 -0.87,25.65 0.06,35.3 1.44,14.79 25.86,25.2 40.18,30 67.35,22.6 182.62,22.14 250.26,0.18 49.69,-16.13 40.86,-30.75 40.86,-64.55 0,-11.74 0.14,-23.71 -0.04,-35.43z"/>
   <path class="fil0" d="M142.18 1.01c-34.66,2.71 -62.21,4.61 -93.47,13.64 -22.68,6.56 -67.78,25.19 -39.2,50.52 33.05,29.29 135.01,34.07 180.67,32.01 39.14,-1.77 98.77,-8.18 130.04,-30.17 13.14,-9.24 16.39,-22.52 2.76,-33.56 -34.18,-27.68 -126.19,-36.72 -180.8,-32.44z"/>
   <path class="fil0" d="M240.92 205.53c-9.03,0.11 -22.02,2.32 -31.92,3.09 -55.78,4.38 -147.66,0.8 -197.01,-26.2 -3.44,-1.88 -7.49,-5.55 -11.41,-6.84 -0.3,18.8 -0.19,38.16 0,56.99 0.2,18.92 -3.88,26.24 17.82,39.14 32.96,19.59 102.26,26.4 144.6,26.45 22.6,0.02 7.33,3.15 25.61,-30.99 12.3,-22.98 28.1,-42.61 48.35,-57.94 2.53,-1.92 2.52,-1.66 3.96,-3.7z"/>
   <path class="fil0" d="M179.84 401.46c-3.22,-15.38 -6.8,-18.11 -8.87,-40.44 -2.53,-27.4 1.9,-37.26 1.37,-47.48 -46.25,-0.48 -112.87,-4.05 -154.93,-25.1 -6.17,-3.09 -11.55,-7.22 -16.7,-9.64 -0.92,23.07 -0.93,51.36 -0.12,74.45 1.43,41.12 142.19,50.98 179.25,48.21z"/>
  </g>
 </g>
</svg>
