<?xml version="1.0" encoding="UTF-8"?>
<!DOCTYPE svg PUBLIC "-//W3C//DTD SVG 1.1//EN" "http://www.w3.org/Graphics/SVG/1.1/DTD/svg11.dtd">
<!-- Creator: CorelDRAW 2020 (64 Bit) -->
<svg xmlns="http://www.w3.org/2000/svg" xml:space="preserve" width="500px" height="500px" version="1.1" style="shape-rendering:geometricPrecision; text-rendering:geometricPrecision; image-rendering:optimizeQuality; fill-rule:evenodd; clip-rule:evenodd"
viewBox="0 0 500 500"
 xmlns:xlink="http://www.w3.org/1999/xlink"
 xmlns:xodm="http://www.corel.com/coreldraw/odm/2003">
 <defs>
  <style type="text/css">
   <![CDATA[
    .fil0 {fill:white}
   ]]>
  </style>
 </defs>
 <g id="Camada_x0020_1">
  <metadata id="CorelCorpID_0Corel-Layer"/>
  <g id="_2132899147264">
   <path class="fil0" d="M92.01 432.61c-5.45,-23.24 29.45,-31.2 34.71,-8.71 5.56,23.78 -29.53,30.75 -34.71,8.71zm260.06 -196.05c54.17,19.7 68.38,15.59 108.77,-24.75 23.93,-23.91 59.77,-80.19 24.12,-107.85l-66.1 65.03 -50.2 -49.6c6.12,-10.06 35.31,-36.26 45.09,-46.38 21.35,-22.09 29.59,-31.55 -17.83,-33 -37.46,-1.14 -91,45.46 -102.55,80.06 -10.57,31.67 9.88,63.2 3.73,69.96 -13.64,15 -31.48,31.04 -46.12,45.81 -30.14,30.4 -60.55,60.99 -91.05,91.01 -18.5,18.2 -83.23,74.49 -85.87,96.67 -3.17,26.6 21.65,47.02 46.97,38.53 12.37,-4.15 37.65,-32.99 48.23,-43.48 52.21,-51.73 129.16,-139.44 182.81,-182.01z"/>
   <path class="fil0" d="M42.77 166.82l9.71 13.36c-6.23,4.53 -43.7,1.34 -52.14,31.41 -3.9,13.91 26.43,37.38 36.36,47.33 20.91,20.94 24.05,34.73 48.26,10.25 28.34,-28.66 -0.78,-50.48 29.23,-30.2l31.24 -30.14 53.23 52.96 44.36 -43.72 -52.73 -53.5 34.93 -35.77 -20.93 -21.38c9.36,-11.54 59.48,-49.2 46.93,-60.02 -32.29,-27.83 -70.04,11.9 -87.47,14.55 -18.76,2.85 -3.88,-12.59 -32.33,15.79 -23.91,23.84 -70.66,68.34 -88.65,89.08z"/>
   <path class="fil0" d="M328.29 286.6c-1.52,0.47 -40.36,39.69 -44.77,44.21 -24.31,24.9 -19.1,18.4 8.08,46.65 12.57,13.06 79.27,91.22 91.57,85.63 4.17,-1.89 39.18,-38.18 45.33,-44.44 26.23,-26.67 21.5,-22.78 -6.56,-47.94 -10.49,-9.4 -86.96,-86.16 -93.65,-84.11z"/>
  </g>
 </g>
</svg>
