<?xml version="1.0" encoding="UTF-8"?>
<!DOCTYPE svg PUBLIC "-//W3C//DTD SVG 1.1//EN" "http://www.w3.org/Graphics/SVG/1.1/DTD/svg11.dtd">
<!-- Creator: CorelDRAW 2020 (64 Bit) -->
<svg xmlns="http://www.w3.org/2000/svg" xml:space="preserve" width="500px" height="500px" version="1.1" style="shape-rendering:geometricPrecision; text-rendering:geometricPrecision; image-rendering:optimizeQuality; fill-rule:evenodd; clip-rule:evenodd"
viewBox="0 0 500 500"
 xmlns:xlink="http://www.w3.org/1999/xlink"
 xmlns:xodm="http://www.corel.com/coreldraw/odm/2003">
 <defs>
  <style type="text/css">
   <![CDATA[
    .fil0 {fill:white}
   ]]>
  </style>
 </defs>
 <g id="Camada_x0020_1">
  <metadata id="CorelCorpID_0Corel-Layer"/>
  <path class="fil0" d="M243.27 237.79c20.35,-7.08 29.94,18.7 12.92,25.74 -20.4,8.44 -32.61,-18.89 -12.92,-25.74zm20.61 -123.97c-5.39,-44.6 8.18,-39.21 34.99,-59.68 12.32,-9.39 11.67,-24.72 -5.08,-24.63 -10.54,0.05 -20.45,12.83 -29.88,17.27l-1.86 -44.65c-3.57,-2.44 -21.52,-2.99 -25.04,-0.57l-2.22 44.85 -37.3 -18.24c-11.76,21.3 -1.58,22.79 22.9,40.46 19.26,13.9 16.78,15.57 14.83,45.11 -15.81,-5.53 -47.06,-44.74 -62.71,-26.82 -13.34,13.62 38.82,42.36 47.62,48.4 23.71,16.26 15.85,43.71 15.25,78.36 -24.65,11.38 -28.86,1.06 -54.94,-12.05 -32.51,-16.34 -26.18,-8.7 -32.38,-44.82 -2.45,-14.29 -2.71,-57.21 -27.09,-45.77 -16.22,7.61 0.56,45.82 0.73,60.41 -36.47,-21.59 -31.64,-2.62 -40.32,-50.62 -5.11,-28.25 -32.96,-37.47 -25.08,16.04l-48.98 -19.73 -2.25 4.3c-20.63,19.57 24.68,28.69 35.59,38.44 -14.08,7.63 -47.38,8.63 -27.63,29.78 25.51,12.49 46.25,-33.58 93.61,3.46 -14.02,9.33 -36.31,9.63 -52.08,19.16 -13.49,8.15 -9.55,29.98 24.2,17.73 57.49,-20.87 48.15,-27.22 97.7,-2.06 59.62,30.28 19.71,34.38 -20.2,56.08 -36.12,19.63 -82.36,-28.27 -103.33,-14.01 -26.74,19.94 41.79,30.24 53.69,38.57 -52.85,35.96 -69.41,-10.19 -93.59,3.38 -20.42,20.51 15.14,22.29 27.71,29.86 -23.34,17.83 -50.95,11.53 -34.44,43.08l49.78 -20.7c-8.94,53.03 19.77,45.18 25.2,16.78 8.38,-43.82 2.9,-32.04 40.28,-50.94l-4.06 58.22c33.82,23.01 27.15,-57.39 36.74,-72.88 4.34,-7.02 31.15,-17.86 40.04,-22.38 26.73,-13.59 16.21,-14.53 41.23,-5.3 -0.28,37 9.49,59.65 -16.65,77.58 -10.44,7.16 -57.58,32.24 -46.79,48.28 20.68,14.87 43.07,-19.67 63.07,-27.47 2.46,31.72 3.88,31.95 -15.92,45.97 -28.16,19.95 -33.17,19.26 -20.67,39.91l37.6 -17.59 0.84 45.55 23.07 0.06c5.07,-6.05 2.54,-36.64 2.61,-45.85l35.6 17.77c9.6,-14.87 20.46,-12.52 -16.83,-38.85 -20.52,-14.48 -21.23,-14.45 -17.64,-47.08 14.74,7.17 46.6,42.23 62.53,28.05 11.46,-16.89 -34.27,-40.54 -45.84,-48.39 -26.07,-17.69 -17.8,-40.33 -17.05,-78.51 31.14,-7.55 22.67,-3.37 54.33,12.52 32,16.05 25.09,7.75 31.49,44.33 2.38,13.63 3,58.26 27.58,45.07 14.18,-7.61 0.4,-45.57 -1.89,-59.85 36.61,13.91 34.27,13.82 40.85,50.45 5.34,29.8 31.51,37.88 24.8,-15.8l51.34 20.07 2.79 -5.52c20.83,-15.03 -29.21,-30.95 -38.87,-37.55 19.74,-8.2 44.03,-7.51 28.98,-30.43 -34.31,-8.05 -50.48,33.75 -95.09,-3.43 13.73,-4.93 52.96,-14.87 57.82,-22.9 17.7,-29.24 -36.88,-10.71 -48.2,-6.84 -27.44,9.4 -34.45,18.68 -58.62,5.71 -13.27,-7.12 -47.71,-16.67 -47.79,-32.13 -0.07,-15.16 34.1,-25.05 47.71,-32.19 24.6,-12.91 30.68,-4.02 58.88,5.61 11.04,3.77 65.05,22.58 48.14,-6.77 -4.79,-8.3 -44.36,-17.81 -57.84,-22.99 25.74,-22.11 39.11,-15.89 71.63,-5.24 12.49,4.09 33.5,4.58 27.72,-12.21 -3.51,-10.2 -21.58,-11.36 -33.36,-16.2 12.35,-9.49 57.42,-20.22 38.87,-37.89l-2.75 -5.4 -50.88 21.34c6.74,-54.33 -19.47,-47.49 -25.29,-16.86 -7.32,38.58 -3.35,34.66 -40.81,50.36 2.15,-14.11 15.18,-54.79 0.66,-60.59 -24.2,-9.67 -23.88,31.33 -26.49,46.11 -6.32,35.77 -0.08,28.83 -32.69,44.71 -32.17,15.68 -20.91,19.32 -53.14,11.71l0.18 -69.28c17.02,-7.07 73.47,-38.88 62.71,-61.19l-4.38 -5.73 -57.95 35.68z"/>
 </g>
</svg>
