<?xml version="1.0" encoding="UTF-8"?>
<!DOCTYPE svg PUBLIC "-//W3C//DTD SVG 1.1//EN" "http://www.w3.org/Graphics/SVG/1.1/DTD/svg11.dtd">
<!-- Creator: CorelDRAW 2020 (64 Bit) -->
<svg xmlns="http://www.w3.org/2000/svg" xml:space="preserve" width="500px" height="500px" version="1.1" style="shape-rendering:geometricPrecision; text-rendering:geometricPrecision; image-rendering:optimizeQuality; fill-rule:evenodd; clip-rule:evenodd"
viewBox="0 0 500 500"
 xmlns:xlink="http://www.w3.org/1999/xlink"
 xmlns:xodm="http://www.corel.com/coreldraw/odm/2003">
 <defs>
  <style type="text/css">
   <![CDATA[
    .fil0 {fill:white}
   ]]>
  </style>
 </defs>
 <g id="Camada_x0020_1">
  <metadata id="CorelCorpID_0Corel-Layer"/>
  <g id="_2402915128464">
   <path class="fil0" d="M250.3 294.98l211.42 -197.09c-6.37,-7.28 -28.54,-14.7 -41.06,-16.07 -16.26,-1.79 -39.4,-0.48 -56.39,-0.48l-228.29 0c-35.66,0 -73.84,-4.04 -98.11,16.79l212.43 196.85z"/>
   <path class="fil0" d="M412.23 419.22c24.67,0 33.97,-8.42 49.82,-16.12 -2.41,-3.94 -139.11,-130.71 -142.9,-132.38l-69.31 64.13 -69.95 -64.51 -141.64 132.58c11.25,8.91 31.79,16.3 49.77,16.3l324.21 0z"/>
   <path class="fil0" d="M158.62 250.04l-141.59 -131.14c-9.59,10.11 -17.03,32.85 -17.03,50.93l0 160.19c0,16.2 7.78,43.8 17.26,51.84l141.36 -131.82z"/>
   <path class="fil0" d="M341.44 250.57l142.02 131.31c9.72,-17.89 16.54,-28.01 16.54,-54.74l0 -153.47c0,-20.56 -6.12,-41.95 -17.21,-55.1l-141.35 132z"/>
  </g>
 </g>
</svg>
