<?xml version="1.0" encoding="UTF-8"?>
<!DOCTYPE svg PUBLIC "-//W3C//DTD SVG 1.1//EN" "http://www.w3.org/Graphics/SVG/1.1/DTD/svg11.dtd">
<!-- Creator: CorelDRAW 2020 (64 Bit) -->
<svg xmlns="http://www.w3.org/2000/svg" xml:space="preserve" width="500px" height="500px" version="1.1" style="shape-rendering:geometricPrecision; text-rendering:geometricPrecision; image-rendering:optimizeQuality; fill-rule:evenodd; clip-rule:evenodd"
viewBox="0 0 500 500"
 xmlns:xlink="http://www.w3.org/1999/xlink"
 xmlns:xodm="http://www.corel.com/coreldraw/odm/2003">
 <defs>
  <style type="text/css">
   <![CDATA[
    .fil0 {fill:white}
   ]]>
  </style>
 </defs>
 <g id="Camada_x0020_1">
  <metadata id="CorelCorpID_0Corel-Layer"/>
  <g id="_2402908737056">
   <polygon class="fil0" points="0,500 500,500 500,468.89 31.11,468.89 31.11,0 0,0 "/>
   <path class="fil0" d="M436.86 32.03c-34.1,20.41 -74.29,38.12 -107.05,59.82 11.51,9 27.06,15.78 38.43,23.84 -6.83,16.26 -22.25,35.2 -30.96,54.08l-122.23 -30.74 -130.89 132.08c6.85,6.75 13.84,16.43 22.38,19.82l117.94 -117.24 126.63 30.53c8.1,-10.39 15.39,-24.69 21.99,-35.61 5.91,-9.79 15.63,-28.42 22.8,-36.47l39.47 23.28 1.49 -123.39z"/>
   <path class="fil0" d="M406.67 175.86c-3.99,3.64 -24.87,38.09 -28.28,44.7 -7.46,14.47 -3.14,51.79 -3.14,70.55 0,47.77 -1.79,99.11 0.26,146.31l61.84 -0.29 0.04 -243.49 -30.72 -17.78z"/>
   <path class="fil0" d="M233.33 208.86c-12.29,10.57 -22.74,22.75 -34.69,34.21 -8.82,8.47 -11.06,8.32 -10.92,25.74 0.41,51.92 -2.7,122.04 0.53,168.56l61.4 0.1 0.03 -225.48 -16.35 -3.13z"/>
   <polygon class="fil0" points="281.83,437.45 343.43,436.68 343.61,235.87 281.56,220.88 "/>
   <path class="fil0" d="M95.92 328.43l-0.27 107.75 60.64 0.74 -0.41 -150.3c-8.15,6.02 -43.83,41.41 -48.82,49.39 -7.28,-3.29 -5.35,-3.81 -11.14,-7.58z"/>
  </g>
 </g>
</svg>
