<?xml version="1.0" encoding="UTF-8"?>
<!DOCTYPE svg PUBLIC "-//W3C//DTD SVG 1.1//EN" "http://www.w3.org/Graphics/SVG/1.1/DTD/svg11.dtd">
<!-- Creator: CorelDRAW 2020 (64 Bit) -->
<svg xmlns="http://www.w3.org/2000/svg" xml:space="preserve" width="500px" height="500px" version="1.1" style="shape-rendering:geometricPrecision; text-rendering:geometricPrecision; image-rendering:optimizeQuality; fill-rule:evenodd; clip-rule:evenodd"
viewBox="0 0 500 500"
 xmlns:xlink="http://www.w3.org/1999/xlink"
 xmlns:xodm="http://www.corel.com/coreldraw/odm/2003">
 <defs>
  <style type="text/css">
   <![CDATA[
    .fil0 {fill:white}
   ]]>
  </style>
 </defs>
 <g id="Camada_x0020_1">
  <metadata id="CorelCorpID_0Corel-Layer"/>
  <path class="fil0" d="M90.05 246.24c-6.66,-17.64 -62.77,-19.4 -61.08,-77.05 1.05,-35.81 32.65,-65.33 71.85,-66.23 28.62,-0.65 36.17,8.52 52.77,18.07 28.59,16.45 20.17,-19.21 21.66,-34.22 8.53,-85.78 151.47,-78 147.65,8.89 -2.61,59.5 31.68,-1.57 85.01,6.62 35.55,5.46 66.06,36.54 60.87,75.65 -7.63,57.57 -64.48,46.59 -63.15,73.56 10.6,14 101,40.94 52.55,109.58 -49.18,69.67 -116.31,2.4 -133.25,11.75 -7.89,7.51 14.05,101.82 -76.08,101.18 -90.06,-0.64 -63.52,-80.71 -74.97,-101.9 -25.95,-4.53 -88.98,58.3 -134.68,-12.43 -46.24,-71.56 49.65,-94.84 50.85,-113.47zm57.18 -160.8c-64.96,-15.11 -106.05,-4.54 -133.09,39.16 -35.68,57.68 0.53,94.09 29.28,123.48 -99.65,85.6 -3.9,203.06 101.39,162.72 12.96,18.52 1.29,33.58 32.97,62.18 39.7,35.82 102.57,36.2 142.29,0.1 32.17,-29.22 18.38,-39.76 32.88,-62.32 149.21,43.92 181.85,-126.86 99.94,-162.59 26.93,-29.63 69.48,-64.59 31.03,-125.66 -25.95,-41.22 -72.19,-56.47 -132.79,-38.27 -23.62,-119.47 -192.37,-105.31 -203.9,1.2z"/>
  <path class="fil0" d="M233 198.4c76.51,-20.7 107.54,84.68 32.85,104.46 -75.41,19.97 -107.61,-84.22 -32.85,-104.46zm-52.88 0.31c-123.75,-69.88 -82.7,3.95 -13.1,21.67l-0.78 59.02c-21.75,12.25 -78.03,30.9 -60.42,52.89l3.01 5.25 73.91 -35.74 51.17 30.99 2.37 69.08c3.21,2.6 18.75,4.65 26.02,0.8l1.88 -71.86 54.04 -28.84c14.21,5.71 64.97,41.62 75.14,28.01 23.17,-14.55 -49.4,-45.6 -61.3,-50.13l0.38 -59c15.47,-6.06 78.24,-31.53 62.03,-49.85 -12.22,-13.77 -59.38,20.88 -76.25,27.86l-52.37 -30.88 -2.16 3.37c-0.56,-18.18 9.43,-75.16 -13.63,-76.14 -23.94,-1 -14.43,56.75 -14.73,75.47l-55.21 28.03z"/>
 </g>
</svg>
