<?xml version="1.0" encoding="UTF-8"?>
<!DOCTYPE svg PUBLIC "-//W3C//DTD SVG 1.1//EN" "http://www.w3.org/Graphics/SVG/1.1/DTD/svg11.dtd">
<!-- Creator: CorelDRAW 2020 (64 Bit) -->
<svg xmlns="http://www.w3.org/2000/svg" xml:space="preserve" width="500px" height="500px" version="1.1" style="shape-rendering:geometricPrecision; text-rendering:geometricPrecision; image-rendering:optimizeQuality; fill-rule:evenodd; clip-rule:evenodd"
viewBox="0 0 500 500"
 xmlns:xlink="http://www.w3.org/1999/xlink"
 xmlns:xodm="http://www.corel.com/coreldraw/odm/2003">
 <defs>
  <style type="text/css">
   <![CDATA[
    .fil0 {fill:white}
   ]]>
  </style>
 </defs>
 <g id="Camada_x0020_1">
  <metadata id="CorelCorpID_0Corel-Layer"/>
  <g id="_2402906213744">
   <path class="fil0" d="M0 167.78c0,14.77 7.89,32.27 18.66,40.92 18.03,14.48 27.48,17.49 51.43,17.49 20.17,0 42.63,-17.37 51.03,-34.25 2.89,-5.8 6.22,-14.92 6.22,-22.99l1.16 0c0,29.15 30.59,56.07 56.08,56.07 21.23,0 29.39,-0.66 46.58,-14.16l7.01 -7.01c1.29,-1.64 1.77,-1.99 3.17,-3.85 12.13,-16.06 8.6,-25.25 13.33,-28.72 0,13.24 9.55,29.78 18,36.91 16.66,14.08 26.33,16.83 47.42,16.83 25.92,0 49.39,-20.35 56.25,-44.22 1.42,-4.96 1.34,-8.71 3.33,-11.85 0,27.61 27.15,56.07 54.91,56.07 20.83,0 31.26,-2.07 48.1,-16.16 3.51,-2.93 9.27,-11.32 11.42,-15.44 4.35,-8.36 5.9,-16.71 5.9,-26.81 0,-2.28 -9,-13.18 -11.01,-15.86 -8.02,-10.7 -81.2,-105.65 -82.45,-110.31l-328.27 0c-3.32,6.28 -6.14,9.92 -9.72,15.98l-29.77 47.33c-3.01,4.78 -38.78,57.95 -38.78,64.03z"/>
   <path class="fil0" d="M304.91 303.29l78.27 0 0 130.84 -78.27 0 0 -130.84zm-210.28 0l130.84 0 0 78.27 -130.84 0 0 -78.27zm-25.71 -47.9c-7.77,0 -21.85,-2.26 -26.86,-4.67l0 210.28 421.73 0 0 -209.11c-14.76,1.23 -31.9,8.94 -59.21,-3.88 -17,-7.98 -14.47,-8.59 -27.24,-17.15 -28.14,24.45 -60.39,31.53 -96.65,17.21 -4.75,-1.88 -10.68,-5.02 -14.53,-7.67 -4.4,-3.05 -8.38,-6.67 -12.66,-9.54 -7.93,5.32 -8.32,9.57 -26.18,17.04 -29.41,12.31 -58.72,9.02 -85.04,-7.45 -4.7,-2.94 -8.13,-6.59 -12.61,-9.59 -8.44,5.66 -9.7,9.95 -25.36,16.7 -9.48,4.09 -22.36,7.83 -35.39,7.83z"/>
  </g>
 </g>
</svg>
